STARTFONT 2.1
COMMENT
COMMENT Converted from OpenType font "Lato-Bold.ttf" by "otf2bdf 3.0".
COMMENT
FONT -FreeType-Lato-Bold-R-Normal--53-380-100-100-P-277-ISO10646-1
SIZE 38 100 100
FONTBOUNDINGBOX 100 74 -28 -15
STARTPROPERTIES 19
FOUNDRY "FreeType"
FAMILY_NAME "Lato"
WEIGHT_NAME "Bold"
SLANT "R"
SETWIDTH_NAME "Normal"
ADD_STYLE_NAME ""
PIXEL_SIZE 53
POINT_SIZE 380
RESOLUTION_X 100
RESOLUTION_Y 100
SPACING "P"
AVERAGE_WIDTH 277
CHARSET_REGISTRY "ISO10646"
CHARSET_ENCODING "1"
FONT_ASCENT 52
FONT_DESCENT 11
COPYRIGHT "Copyright (c) 2011-2015 by tyPoland Lukasz Dziedzic (http://www.typoland.com/) with Reserved Font Name "Lato". Licensed under the SIL Open Font License, Version 1.1 (http://scripts.sil.org/OFL). "
_OTF_FONTFILE "Lato-Bold.ttf"
_OTF_PSNAME "Lato-Bold"
ENDPROPERTIES
CHARS 2164
STARTCHAR 0000
ENCODING 0
SWIDTH 0 0
DWIDTH 0 0
BBX 0 0 0 0
BITMAP
ENDCHAR
STARTCHAR 0020
ENCODING 32
SWIDTH 246 0
DWIDTH 13 0
BBX 0 0 0 0
BITMAP
ENDCHAR
STARTCHAR 0021
ENCODING 33
SWIDTH 284 0
DWIDTH 15 0
BBX 8 39 3 0
BITMAP
7F
7F
7F
7F
7F
7F
7F
7F
7F
7F
7F
7F
7F
7F
7F
7F
7F
7E
7E
3E
3E
3E
3E
3E
3E
00
00
00
00
00
00
3C
7F
7F
FF
FF
7F
7F
3C
ENDCHAR
STARTCHAR 0022
ENCODING 34
SWIDTH 397 0
DWIDTH 21 0
BBX 15 14 3 25
BITMAP
F83E
F83E
F83E
F83E
F83E
F83E
F83E
F83E
F83E
F83E
F83E
F83E
781E
701C
ENDCHAR
STARTCHAR 0023
ENCODING 35
SWIDTH 587 0
DWIDTH 31 0
BBX 29 39 1 0
BITMAP
003E0F80
007E0F80
007C0F80
007C0F80
007C1F80
00FC1F80
00FC1F80
00F81F00
00F81F00
00F83F00
00F83F00
3FFFFFF8
3FFFFFF8
3FFFFFF8
7FFFFFF0
7FFFFFF0
01F07E00
03F07E00
03F07C00
03E07C00
03E07C00
03E0FC00
07E0FC00
FFFFFFE0
FFFFFFE0
FFFFFFE0
FFFFFFE0
FFFFFFE0
07C1F800
0FC1F800
0FC1F000
0FC1F000
0F81F000
0F83F000
0F83F000
1F83F000
1F83E000
1F03E000
1E01E000
ENDCHAR
STARTCHAR 0024
ENCODING 36
SWIDTH 587 0
DWIDTH 31 0
BBX 27 51 2 -6
BITMAP
0003C000
0003C000
0003C000
0003C000
0003C000
0007C000
003FF000
01FFFC00
03FFFF00
07FFFF80
0FFFFFC0
1FFFFF80
3FC78F00
3F878300
3F078000
7F078000
7F078000
7F078000
7F0F0000
3F8F0000
3FCF0000
3FFF0000
1FFF0000
0FFFE000
07FFF800
03FFFE00
00FFFF00
001FFF80
000FFFC0
001F7FC0
001E1FC0
001E0FE0
001E0FE0
001E0FE0
001E0FE0
001E0FC0
301E0FC0
3C1E1FC0
7F1E3F80
FFDFFF80
FFFFFF00
7FFFFE00
1FFFFC00
07FFF000
01FFC000
003C0000
003C0000
003C0000
003C0000
003C0000
00380000
ENDCHAR
STARTCHAR 0025
ENCODING 37
SWIDTH 814 0
DWIDTH 43 0
BBX 39 39 2 0
BITMAP
03F00001F8
0FFC0003F0
1FFE0007F0
3FFF0007E0
7FFF800FC0
7E1F801F80
FC0F803F80
F80FC03F00
F807C07E00
F807C0FC00
F807C1FC00
F80FC1F800
FC0F83F000
7E1F87E000
7FFF8FE000
3FFF0FC000
1FFE1F8000
0FFC3F0000
03F07F0000
00007E0F80
0000FC3FE0
0001F8FFF8
0003F8FFF8
0003F1FFFC
0007E3F8FE
000FC3F07E
001FC3E03E
001F83E03E
003F03E03E
007E03E03E
00FE03E03E
00FC03E03E
01F803E03E
03F003F8FE
07F001FFFC
07E000FFF8
0FC000FFF8
1F80003FE0
3F00000F80
ENDCHAR
STARTCHAR 0026
ENCODING 38
SWIDTH 720 0
DWIDTH 38 0
BBX 36 39 2 0
BITMAP
000FE00000
003FFC0000
00FFFE0000
01FFFF0000
01FFFF8000
03FC3F8000
03F01FC000
07F00FC000
07E00FC000
07E0040000
07E0000000
07E0000000
07F0000000
03F0000000
03F8000000
03FC000000
01FE000000
00FF000000
03FF801F00
0FFFC03F00
1FFFE03F00
3FDFE03F00
3F8FF03F00
7F07F83E00
7E03FC7E00
FE01FE7E00
FE00FF7C00
FE007FFC00
FE003FF800
FE001FF800
FE000FF000
FF000FF800
7F801FFC00
7FC07FFE00
3FFFFFFF00
1FFFFE7F80
0FFFFC3FC0
03FFF01FE0
00FF000FF0
ENDCHAR
STARTCHAR 0027
ENCODING 39
SWIDTH 208 0
DWIDTH 11 0
BBX 5 14 3 25
BITMAP
F8
F8
F8
F8
F8
F8
F8
F8
F8
F8
F8
F8
78
70
ENDCHAR
STARTCHAR 0028
ENCODING 40
SWIDTH 284 0
DWIDTH 15 0
BBX 11 50 2 -8
BITMAP
0100
0380
03E0
07E0
07E0
0FC0
0FC0
1F80
1F80
1F80
3F00
3F00
3F00
7E00
7E00
7E00
7E00
7C00
FC00
FC00
FC00
FC00
FC00
FC00
FC00
FC00
FC00
FC00
FC00
FC00
FC00
FC00
FC00
7C00
7E00
7E00
7E00
7E00
3F00
3F00
3F00
1F80
1F80
0F80
0FC0
0FC0
07E0
07E0
03C0
0180
ENDCHAR
STARTCHAR 0029
ENCODING 41
SWIDTH 284 0
DWIDTH 15 0
BBX 12 50 1 -8
BITMAP
0800
3800
7C00
FC00
7E00
7E00
3F00
3F00
1F00
1F80
1F80
0FC0
0FC0
0FC0
07C0
07E0
07E0
07E0
07E0
03E0
03E0
03E0
03E0
03F0
03F0
03F0
03F0
03F0
03E0
03E0
03E0
07E0
07E0
07E0
07E0
07E0
0FC0
0FC0
0FC0
0FC0
1F80
1F80
3F00
3F00
3F00
7E00
7E00
FC00
7800
1800
ENDCHAR
STARTCHAR 002A
ENCODING 42
SWIDTH 435 0
DWIDTH 23 0
BBX 17 18 3 23
BITMAP
01C000
01C000
01C000
41C100
E1C700
F9DF80
7FFF00
1FFC00
0FF000
0FF000
1FFC00
7FFF00
F9DF80
F1C700
41C100
01C000
01C000
01C000
ENDCHAR
STARTCHAR 002B
ENCODING 43
SWIDTH 587 0
DWIDTH 31 0
BBX 26 27 2 5
BITMAP
001F0000
001F0000
001F0000
001F0000
001F0000
001F0000
001F0000
001F0000
001F0000
001F0000
001F0000
FFFFFFC0
FFFFFFC0
FFFFFFC0
FFFFFFC0
FFFFFFC0
001F0000
001F0000
001F0000
001F0000
001F0000
001F0000
001F0000
001F0000
001F0000
001F0000
001F0000
ENDCHAR
STARTCHAR 002C
ENCODING 44
SWIDTH 227 0
DWIDTH 12 0
BBX 8 16 2 -8
BITMAP
3C
7E
FF
FF
FF
7F
7F
3F
0E
1E
1E
3C
78
70
70
20
ENDCHAR
STARTCHAR 002D
ENCODING 45
SWIDTH 378 0
DWIDTH 20 0
BBX 14 5 3 13
BITMAP
FFFC
FFFC
FFFC
FFFC
FFFC
ENDCHAR
STARTCHAR 002E
ENCODING 46
SWIDTH 246 0
DWIDTH 13 0
BBX 8 8 2 0
BITMAP
3C
7E
7F
FF
FF
7F
7E
3C
ENDCHAR
STARTCHAR 002F
ENCODING 47
SWIDTH 473 0
DWIDTH 25 0
BBX 21 42 2 -2
BITMAP
000078
0001F8
0001F0
0001F0
0003E0
0003E0
0007E0
0007C0
0007C0
000FC0
000F80
001F80
001F00
001F00
003F00
003E00
003E00
007C00
007C00
00FC00
00F800
00F800
01F800
01F000
03F000
03E000
03E000
07E000
07C000
07C000
0F8000
0F8000
1F8000
1F0000
1F0000
3F0000
3E0000
7E0000
7C0000
7C0000
FC0000
F80000
ENDCHAR
STARTCHAR 0030
ENCODING 48
SWIDTH 587 0
DWIDTH 31 0
BBX 28 39 1 0
BITMAP
001FC000
00FFF800
01FFFC00
07FFFE00
0FFFFF00
0FF07F80
1FC03F80
1FC01FC0
3F800FC0
3F800FE0
7F0007E0
7F0007F0
7F0007F0
7E0007F0
7E0007F0
FE0007F0
FE0003F0
FE0003F0
FE0003F0
FE0003F0
FE0003F0
FE0003F0
FE0003F0
7E0007F0
7E0007F0
7E0007F0
7F0007F0
7F0007F0
7F0007E0
3F800FE0
3F800FE0
1FC01FC0
1FC03FC0
0FF07F80
0FFFFF00
07FFFE00
01FFFC00
00FFF800
001FC000
ENDCHAR
STARTCHAR 0031
ENCODING 49
SWIDTH 587 0
DWIDTH 31 0
BBX 24 39 3 0
BITMAP
000FC0
003FC0
007FC0
00FFC0
01FFC0
03FFC0
07FFC0
1FFFC0
3FFFC0
7FDFC0
FF9FC0
7F1FC0
3C1FC0
181FC0
001FC0
001FC0
001FC0
001FC0
001FC0
001FC0
001FC0
001FC0
001FC0
001FC0
001FC0
001FC0
001FC0
001FC0
001FC0
001FC0
001FC0
001FC0
001FC0
001FC0
1FFFFF
1FFFFF
1FFFFF
1FFFFF
1FFFFF
ENDCHAR
STARTCHAR 0032
ENCODING 50
SWIDTH 587 0
DWIDTH 31 0
BBX 26 39 2 0
BITMAP
003FC000
01FFF000
07FFFC00
0FFFFE00
1FFFFF00
1FE0FF00
3F807F80
3F003F80
7F001F80
7E001FC0
7E001FC0
04001FC0
00001FC0
00001F80
00003F80
00003F80
00007F00
00007F00
0000FE00
0001FE00
0003FC00
0007F800
000FF000
001FE000
003FC000
007F8000
00FF0000
00FE0000
01FC0000
03FC0000
07F80000
0FF00000
1FE00000
3FFFFFC0
7FFFFFC0
FFFFFFC0
FFFFFFC0
FFFFFFC0
FFFFFFC0
ENDCHAR
STARTCHAR 0033
ENCODING 51
SWIDTH 587 0
DWIDTH 31 0
BBX 26 39 2 0
BITMAP
003FC000
01FFF000
07FFFC00
0FFFFE00
1FFFFF00
1FE0FF80
3F803F80
3F003F80
7F001F80
7F001F80
7E001F80
00001F80
00001F80
00003F80
00007F00
0001FE00
001FFC00
001FF000
001FF800
001FFE00
001FFF00
0000FF80
00003F80
00001FC0
00001FC0
00000FC0
00000FC0
00000FC0
7C000FC0
FE001FC0
FE001FC0
7F003F80
7F807F80
3FC0FF00
3FFFFF00
1FFFFE00
0FFFFC00
03FFF000
007F8000
ENDCHAR
STARTCHAR 0034
ENCODING 52
SWIDTH 587 0
DWIDTH 31 0
BBX 29 39 0 0
BITMAP
00003F80
00007F80
0000FF80
0000FF80
0001FF80
0003FF80
0003FF80
0007FF80
000FDF80
001FDF80
001F9F80
003F1F80
007F1F80
00FE1F80
00FC1F80
01F81F80
03F81F80
07F01F80
07E01F80
0FC01F80
1FC01F80
3F801F80
3F001F80
7F001F80
FFFFFFF8
FFFFFFF8
7FFFFFF8
7FFFFFF8
7FFFFFF8
00001F80
00001F80
00001F80
00001F80
00001F80
00001F80
00001F80
00001F80
00001F80
00001F80
ENDCHAR
STARTCHAR 0035
ENCODING 53
SWIDTH 587 0
DWIDTH 31 0
BBX 26 39 2 0
BITMAP
07FFFF00
07FFFF00
07FFFF00
07FFFF00
07FFFF00
07FFFE00
0FC00000
0FC00000
0FC00000
0FC00000
0F800000
0F800000
1F800000
1F800000
1FFF8000
1FFFF000
1FFFFC00
1FFFFE00
3FFFFF00
0F01FF00
00007F80
00003F80
00001F80
00001FC0
00001FC0
00001FC0
00001FC0
00001FC0
00001FC0
00001F80
00003F80
18003F80
3E007F00
7F81FE00
FFFFFE00
7FFFFC00
3FFFF000
0FFFE000
01FF0000
ENDCHAR
STARTCHAR 0036
ENCODING 54
SWIDTH 587 0
DWIDTH 31 0
BBX 27 39 2 0
BITMAP
0001FE00
0003FC00
0007F800
000FF000
000FE000
001FE000
003FC000
007F8000
007F0000
00FE0000
01FC0000
03FC0000
03F80000
07F00000
0FEFE000
0FFFFC00
1FFFFE00
3FFFFF00
3FFFFF80
7FE0FF80
7F803FC0
7F001FC0
7E000FE0
FE000FE0
FE000FE0
FE000FE0
FE000FE0
FE000FE0
FE000FE0
7E000FC0
7E001FC0
7F001FC0
3F803F80
3FE0FF80
1FFFFF00
0FFFFE00
07FFFC00
01FFF000
007F8000
ENDCHAR
STARTCHAR 0037
ENCODING 55
SWIDTH 587 0
DWIDTH 31 0
BBX 27 39 2 0
BITMAP
FFFFFFE0
FFFFFFE0
FFFFFFE0
FFFFFFE0
FFFFFFE0
7FFFFFC0
00000FC0
00001FC0
00001F80
00003F80
00003F00
00007F00
00007E00
0000FE00
0000FC00
0001FC00
0001F800
0003F800
0003F000
0007F000
0007E000
000FE000
000FC000
001FC000
001F8000
003F8000
003F8000
007F0000
007F0000
00FE0000
00FE0000
01FC0000
01FC0000
03F80000
03F80000
07F00000
07F00000
0FE00000
1FC00000
ENDCHAR
STARTCHAR 0038
ENCODING 56
SWIDTH 587 0
DWIDTH 31 0
BBX 27 39 2 0
BITMAP
007F8000
01FFF000
07FFF800
0FFFFE00
1FFFFE00
1FE0FF00
3F803F80
3F003F80
7F001F80
7F001F80
7F001F80
7F001F80
3F001F80
3F003F80
3F803F80
1FE0FF00
0FFFFE00
07FFFC00
03FFF000
0FFFFC00
1FFFFE00
3FC0FF00
7F803F80
7F001FC0
FE001FC0
FE000FC0
FE000FE0
FE000FE0
FE000FE0
FE000FE0
FE001FC0
7F001FC0
7F803FC0
3FC0FF80
3FFFFF00
1FFFFF00
0FFFFC00
03FFF800
007FC000
ENDCHAR
STARTCHAR 0039
ENCODING 57
SWIDTH 587 0
DWIDTH 31 0
BBX 26 39 2 0
BITMAP
007F8000
01FFF000
07FFF800
0FFFFE00
1FFFFE00
3FE0FF00
3F803F80
7F001F80
7E001F80
FE001FC0
FE000FC0
FE000FC0
FE000FC0
FE001FC0
FE001FC0
7F001FC0
7F803FC0
7FC0FF80
3FFFFF80
1FFFFF80
0FFFFF00
07FFFF00
01FCFE00
0001FE00
0001FC00
0003F800
0007F800
000FF000
000FE000
001FE000
003FC000
007F8000
007F0000
00FF0000
01FE0000
03FC0000
07FC0000
07F80000
0FF00000
ENDCHAR
STARTCHAR 003A
ENCODING 58
SWIDTH 265 0
DWIDTH 14 0
BBX 8 27 3 0
BITMAP
3C
7E
7F
FF
FF
7F
7E
3C
00
00
00
00
00
00
00
00
00
00
00
3C
7E
7F
FF
FF
7F
7E
3C
ENDCHAR
STARTCHAR 003B
ENCODING 59
SWIDTH 265 0
DWIDTH 14 0
BBX 8 35 3 -8
BITMAP
3C
7E
7F
FF
FF
7F
7E
3C
00
00
00
00
00
00
00
00
00
00
00
3C
7E
FF
FF
FF
7F
7F
3F
0E
1E
1E
3C
78
70
70
20
ENDCHAR
STARTCHAR 003C
ENCODING 60
SWIDTH 587 0
DWIDTH 31 0
BBX 21 24 4 6
BITMAP
000008
000038
0000F8
0003F8
000FF8
003FF8
00FFE0
03FF80
0FFF00
3FFC00
7FF000
FFC000
FF8000
FFE000
3FF800
0FFE00
03FF80
00FFE0
003FF0
000FF8
0007F8
0001F8
000078
000018
ENDCHAR
STARTCHAR 003D
ENCODING 61
SWIDTH 587 0
DWIDTH 31 0
BBX 23 14 4 11
BITMAP
FFFFFE
FFFFFE
FFFFFE
FFFFFE
FFFFFE
000000
000000
000000
000000
FFFFFE
FFFFFE
FFFFFE
FFFFFE
FFFFFE
ENDCHAR
STARTCHAR 003E
ENCODING 62
SWIDTH 587 0
DWIDTH 31 0
BBX 21 24 6 6
BITMAP
800000
E00000
F80000
FE0000
FF8000
FFE000
7FF000
1FFC00
07FF00
01FFC0
007FF0
001FF8
000FF8
003FF8
00FFE0
03FF80
0FFE00
3FF800
FFE000
FF8000
FE0000
F80000
E00000
C00000
ENDCHAR
STARTCHAR 003F
ENCODING 63
SWIDTH 454 0
DWIDTH 24 0
BBX 20 39 2 0
BITMAP
03FC00
1FFF00
3FFFC0
FFFFC0
FFFFE0
7C0FF0
3007F0
0003F0
0003F0
0003F0
0003F0
0003F0
0007F0
000FE0
001FE0
003FC0
00FF80
01FE00
01FC00
03F800
03F000
03F000
01F000
01F000
01E000
000000
000000
000000
000000
000000
000000
01E000
03F000
07F800
07F800
07F800
07F800
03F000
01E000
ENDCHAR
STARTCHAR 0040
ENCODING 64
SWIDTH 852 0
DWIDTH 45 0
BBX 41 44 2 -6
BITMAP
00007FC00000
0003FFF80000
000FFFFE0000
003FFFFF8000
007FFFFFC000
01FF803FE000
03FE0007F000
03F80001F800
07E00000FC00
0FC000007C00
1F8000003E00
1F0000003E00
3F0007F81F00
3E003FFE1F00
3E00FFFE1F00
7C01FFFC0F00
7C03F87C0F00
7C07E07C0F80
780FC07C0F80
F80F80F80F80
F81F80F80F80
F81F00F80F00
F81F00F01F00
F81F01F01F00
781F01F01F00
781F01F03E00
7C1F03F03E00
7C1F87F8FC00
7C1FFFFFFC00
3E1FFF7FF800
3E0FFE7FF000
3F07FC3FE000
1F01F01F8000
1F8000000000
0FC000000000
07E000000000
07F800003000
03FE0000F800
01FFC00FF800
00FFFFFFFC00
003FFFFFF000
000FFFFFC000
0003FFFF0000
00003FF00000
ENDCHAR
STARTCHAR 0041
ENCODING 65
SWIDTH 701 0
DWIDTH 37 0
BBX 37 39 0 0
BITMAP
0001FC0000
0003FE0000
0003FE0000
0007FE0000
0007FF0000
0007FF0000
000FFF8000
000FDF8000
001FDF8000
001FDFC000
001F8FC000
003F8FC000
003F8FE000
003F07E000
007F07F000
007E07F000
00FE03F000
00FE03F800
00FC03F800
01FC01FC00
01FC01FC00
03F800FC00
03F800FE00
03F800FE00
07FFFFFE00
07FFFFFF00
07FFFFFF00
0FFFFFFF80
0FFFFFFF80
1FC0001F80
1FC0001FC0
1FC0001FC0
3F80000FE0
3F80000FE0
7F80000FE0
7F000007F0
7F000007F0
FF000007F8
FE000003F8
ENDCHAR
STARTCHAR 0042
ENCODING 66
SWIDTH 663 0
DWIDTH 35 0
BBX 29 39 4 0
BITMAP
FFFFE000
FFFFFC00
FFFFFF00
FFFFFF80
FFFFFFC0
FE007FC0
FE001FE0
FE000FE0
FE000FE0
FE000FF0
FE000FF0
FE000FF0
FE000FE0
FE000FE0
FE000FE0
FE001FC0
FE007F80
FFFFFF00
FFFFFC00
FFFFFE00
FFFFFF80
FFFFFFC0
FE003FE0
FE000FF0
FE0007F0
FE0007F0
FE0003F8
FE0003F8
FE0003F8
FE0007F8
FE0007F0
FE0007F0
FE000FF0
FE003FE0
FFFFFFC0
FFFFFF80
FFFFFF00
FFFFFC00
FFFFE000
ENDCHAR
STARTCHAR 0043
ENCODING 67
SWIDTH 663 0
DWIDTH 35 0
BBX 32 39 2 0
BITMAP
0003FF00
001FFFE0
007FFFF8
00FFFFFC
03FFFFFE
07FFFFFF
0FFE01FE
0FF8007C
1FF00018
3FE00000
3FC00000
7F800000
7F800000
7F000000
7F000000
FF000000
FF000000
FE000000
FE000000
FE000000
FE000000
FE000000
FF000000
FF000000
7F000000
7F000000
7F800000
7F800000
3FC00000
3FE00000
1FF0001C
1FF8003E
0FFE01FF
07FFFFFF
03FFFFFE
01FFFFFC
007FFFF8
001FFFE0
0003FE00
ENDCHAR
STARTCHAR 0044
ENCODING 68
SWIDTH 757 0
DWIDTH 40 0
BBX 34 39 4 0
BITMAP
FFFFF00000
FFFFFE0000
FFFFFF8000
FFFFFFE000
FFFFFFF000
FFFFFFF800
FE001FFC00
FE0007FE00
FE0001FE00
FE0000FF00
FE0000FF00
FE00007F80
FE00003F80
FE00003FC0
FE00003FC0
FE00001FC0
FE00001FC0
FE00001FC0
FE00001FC0
FE00001FC0
FE00001FC0
FE00001FC0
FE00001FC0
FE00001FC0
FE00003FC0
FE00003FC0
FE00003F80
FE00007F80
FE0000FF00
FE0000FF00
FE0001FE00
FE0007FE00
FE001FFC00
FFFFFFF800
FFFFFFF000
FFFFFFE000
FFFFFF8000
FFFFFE0000
FFFFF00000
ENDCHAR
STARTCHAR 0045
ENCODING 69
SWIDTH 568 0
DWIDTH 30 0
BBX 24 39 4 0
BITMAP
FFFFFF
FFFFFF
FFFFFF
FFFFFF
FFFFFF
FFFFFF
FE0000
FE0000
FE0000
FE0000
FE0000
FE0000
FE0000
FE0000
FE0000
FE0000
FE0000
FFFFF8
FFFFF8
FFFFF8
FFFFF8
FFFFF8
FE0000
FE0000
FE0000
FE0000
FE0000
FE0000
FE0000
FE0000
FE0000
FE0000
FE0000
FFFFFF
FFFFFF
FFFFFF
FFFFFF
FFFFFF
FFFFFF
ENDCHAR
STARTCHAR 0046
ENCODING 70
SWIDTH 568 0
DWIDTH 30 0
BBX 24 39 4 0
BITMAP
FFFFFF
FFFFFF
FFFFFF
FFFFFF
FFFFFF
FFFFFF
FE0000
FE0000
FE0000
FE0000
FE0000
FE0000
FE0000
FE0000
FE0000
FE0000
FE0000
FFFFFC
FFFFFC
FFFFFC
FFFFFC
FFFFFC
FFFFFC
FE0000
FE0000
FE0000
FE0000
FE0000
FE0000
FE0000
FE0000
FE0000
FE0000
FE0000
FE0000
FE0000
FE0000
FE0000
FE0000
ENDCHAR
STARTCHAR 0047
ENCODING 71
SWIDTH 720 0
DWIDTH 38 0
BBX 34 39 2 0
BITMAP
0001FF8000
001FFFF000
007FFFFC00
00FFFFFF00
03FFFFFF80
07FFFFFFC0
0FFF00FF80
0FF8001F00
1FF0000F00
3FE0000000
3FC0000000
7F80000000
7F80000000
7F00000000
7F00000000
FF00000000
FF00000000
FE00000000
FE00000000
FE0007FFC0
FE0007FFC0
FE0007FFC0
FE0007FFC0
FF0007FFC0
7F00001FC0
7F00001FC0
7F00001FC0
7F80001FC0
3F80001FC0
3FC0001FC0
1FE0001FC0
0FF0001FC0
07FC001FC0
03FF00FFC0
01FFFFFFC0
00FFFFFFC0
003FFFFF00
000FFFFC00
0001FFC000
ENDCHAR
STARTCHAR 0048
ENCODING 72
SWIDTH 776 0
DWIDTH 41 0
BBX 33 39 4 0
BITMAP
FE00007F80
FE00007F80
FE00007F80
FE00007F80
FE00007F80
FE00007F80
FE00007F80
FE00007F80
FE00007F80
FE00007F80
FE00007F80
FE00007F80
FE00007F80
FE00007F80
FE00007F80
FE00007F80
FE00007F80
FFFFFFFF80
FFFFFFFF80
FFFFFFFF80
FFFFFFFF80
FFFFFFFF80
FE00007F80
FE00007F80
FE00007F80
FE00007F80
FE00007F80
FE00007F80
FE00007F80
FE00007F80
FE00007F80
FE00007F80
FE00007F80
FE00007F80
FE00007F80
FE00007F80
FE00007F80
FE00007F80
FE00007F80
ENDCHAR
STARTCHAR 0049
ENCODING 73
SWIDTH 303 0
DWIDTH 16 0
BBX 7 39 4 0
BITMAP
FE
FE
FE
FE
FE
FE
FE
FE
FE
FE
FE
FE
FE
FE
FE
FE
FE
FE
FE
FE
FE
FE
FE
FE
FE
FE
FE
FE
FE
FE
FE
FE
FE
FE
FE
FE
FE
FE
FE
ENDCHAR
STARTCHAR 004A
ENCODING 74
SWIDTH 435 0
DWIDTH 23 0
BBX 18 39 1 0
BITMAP
001FC0
001FC0
001FC0
001FC0
001FC0
001FC0
001FC0
001FC0
001FC0
001FC0
001FC0
001FC0
001FC0
001FC0
001FC0
001FC0
001FC0
001FC0
001FC0
001FC0
001FC0
001FC0
001FC0
001FC0
001FC0
001FC0
001FC0
001FC0
003FC0
003F80
003F80
007F80
01FF00
FFFF00
FFFE00
FFFC00
FFF800
FFF000
7F8000
ENDCHAR
STARTCHAR 004B
ENCODING 75
SWIDTH 682 0
DWIDTH 36 0
BBX 33 39 4 0
BITMAP
FE0000FF00
FE0001FE00
FE0003FC00
FE0007F800
FE000FF000
FE000FF000
FE001FE000
FE003FC000
FE007F8000
FE007F0000
FE00FF0000
FE01FE0000
FE03FC0000
FE03F80000
FE07F80000
FE0FF00000
FE1FE00000
FFFFC00000
FFFF800000
FFFFC00000
FFFFE00000
FFFFF00000
FE0FF00000
FE07F80000
FE03FC0000
FE03FE0000
FE01FE0000
FE00FF0000
FE007F8000
FE007FC000
FE003FC000
FE001FE000
FE000FF000
FE000FF800
FE0007F800
FE0003FC00
FE0001FE00
FE0001FF00
FE0000FF80
ENDCHAR
STARTCHAR 004C
ENCODING 76
SWIDTH 530 0
DWIDTH 28 0
BBX 23 39 4 0
BITMAP
FE0000
FE0000
FE0000
FE0000
FE0000
FE0000
FE0000
FE0000
FE0000
FE0000
FE0000
FE0000
FE0000
FE0000
FE0000
FE0000
FE0000
FE0000
FE0000
FE0000
FE0000
FE0000
FE0000
FE0000
FE0000
FE0000
FE0000
FE0000
FE0000
FE0000
FE0000
FE0000
FE0000
FFFFFE
FFFFFE
FFFFFE
FFFFFE
FFFFFE
FFFFFE
ENDCHAR
STARTCHAR 004D
ENCODING 77
SWIDTH 947 0
DWIDTH 50 0
BBX 42 39 4 0
BITMAP
FF0000003FC0
FF0000003FC0
FF8000007FC0
FF8000007FC0
FFC00000FFC0
FFC00000FFC0
FFE00001FFC0
FFE00001FFC0
FFF00003FFC0
FFF00003FFC0
FFF80007FFC0
FDFC0007EFC0
FDFC000FEFC0
FEFE000FCFC0
FEFE001FCFC0
FE7F001F8FC0
FE7F003F8FC0
FE3F807F0FC0
FE3F807F0FC0
FE1FC0FE0FC0
FE0FC0FE0FC0
FE0FE1FC0FC0
FE07E1F80FC0
FE07F3F80FC0
FE03F3F00FC0
FE03FFF00FC0
FE01FFE00FC0
FE01FFE00FC0
FE00FFC00FC0
FE00FFC00FC0
FE007F800FC0
FE007F800FC0
FE003F000FC0
FE001F000FC0
FE0000000FC0
FE0000000FC0
FE0000000FC0
FE0000000FC0
FE0000000FC0
ENDCHAR
STARTCHAR 004E
ENCODING 78
SWIDTH 776 0
DWIDTH 41 0
BBX 33 39 4 0
BITMAP
FC00003F80
FE00003F80
FE00003F80
FF00003F80
FF80003F80
FFC0003F80
FFE0003F80
FFE0003F80
FFF0003F80
FFF8003F80
FFFC003F80
FFFE003F80
FDFE003F80
FCFF003F80
FEFF803F80
FE7FC03F80
FE3FC03F80
FE1FE03F80
FE0FF03F80
FE0FF83F80
FE07FC3F80
FE03FC3F80
FE01FE3F80
FE01FF3F80
FE00FFBF80
FE007FBF80
FE003FFF80
FE003FFF80
FE001FFF80
FE000FFF80
FE0007FF80
FE0003FF80
FE0003FF80
FE0001FF80
FE0000FF80
FE00007F80
FE00007F80
FE00003F80
FE00001F80
ENDCHAR
STARTCHAR 004F
ENCODING 79
SWIDTH 814 0
DWIDTH 43 0
BBX 39 39 2 0
BITMAP
0001FF0000
001FFFE000
007FFFF800
00FFFFFE00
03FFFFFF00
07FFFFFF80
0FFF01FFC0
0FF8003FE0
1FF0001FF0
3FE0000FF0
3FC00007F8
7F800003F8
7F800003FC
7F000001FC
7F000001FC
FF000001FC
FF000001FE
FE000001FE
FE000001FE
FE000000FE
FE000001FE
FE000001FE
FE000001FE
FF000001FC
7F000001FC
7F000001FC
7F800003FC
7F800003F8
3FC00007F8
3FE0000FF0
1FF0001FF0
0FF8003FE0
0FFF01FFC0
07FFFFFF80
03FFFFFF00
00FFFFFE00
007FFFFC00
001FFFE000
0001FF0000
ENDCHAR
STARTCHAR 0050
ENCODING 80
SWIDTH 625 0
DWIDTH 33 0
BBX 28 39 4 0
BITMAP
FFFFC000
FFFFF800
FFFFFE00
FFFFFF00
FFFFFF80
FE00FFC0
FE003FC0
FE001FE0
FE000FE0
FE000FE0
FE000FE0
FE000FF0
FE000FF0
FE000FF0
FE000FE0
FE000FE0
FE000FE0
FE001FE0
FE003FC0
FE00FFC0
FFFFFF80
FFFFFF00
FFFFFE00
FFFFF800
FFFFC000
FE000000
FE000000
FE000000
FE000000
FE000000
FE000000
FE000000
FE000000
FE000000
FE000000
FE000000
FE000000
FE000000
FE000000
ENDCHAR
STARTCHAR 0051
ENCODING 81
SWIDTH 814 0
DWIDTH 43 0
BBX 41 46 2 -7
BITMAP
0001FF000000
001FFFE00000
007FFFF80000
00FFFFFE0000
03FFFFFF0000
07FFFFFF8000
0FFF01FFC000
0FF8003FE000
1FF0001FF000
3FE0000FF000
3FC00007F800
3F800003F800
7F800003FC00
7F000001FC00
7F000001FC00
FF000001FC00
FF000001FE00
FE000001FE00
FE000000FE00
FE000000FE00
FE000000FE00
FE000001FE00
FE000001FE00
FF000001FE00
7F000001FC00
7F000001FC00
7F800003FC00
3F800003F800
3FC00007F800
3FE0000FF000
1FF0001FF000
0FF8003FE000
0FFF01FFC000
07FFFFFFC000
03FFFFFF0000
00FFFFFE0000
007FFFFF0000
001FFFFF8000
0001FF7FC000
0000003FE000
0000001FF000
0000000FF800
00000007FC00
00000003FE00
00000001FE00
00000000FF80
ENDCHAR
STARTCHAR 0052
ENCODING 82
SWIDTH 644 0
DWIDTH 34 0
BBX 30 39 4 0
BITMAP
FFFF8000
FFFFF000
FFFFFC00
FFFFFF00
FFFFFF00
FE00FF80
FE003FC0
FE001FC0
FE001FC0
FE001FE0
FE000FE0
FE000FE0
FE000FE0
FE000FE0
FE001FC0
FE001FC0
FE003FC0
FE007F80
FE01FF00
FFFFFF00
FFFFFC00
FFFFF800
FFFFE000
FFFFE000
FE0FF000
FE07F800
FE03FC00
FE03FC00
FE01FE00
FE00FF00
FE00FF00
FE007F80
FE003FC0
FE003FC0
FE001FE0
FE000FF0
FE000FF0
FE0007F8
FE0003FC
ENDCHAR
STARTCHAR 0053
ENCODING 83
SWIDTH 549 0
DWIDTH 29 0
BBX 26 39 1 0
BITMAP
003FE000
00FFFC00
03FFFE00
07FFFF80
0FFFFF80
1FFFFF80
1FE07F00
3FC00F00
3F800200
3F800000
3F000000
3F000000
3F800000
3FC00000
3FE00000
1FFC0000
1FFF8000
0FFFE000
07FFF800
03FFFE00
00FFFF00
001FFF80
0003FF80
00007FC0
00003FC0
00001FC0
00001FC0
00001FC0
00001FC0
00001FC0
3C001FC0
3F003F80
7FC0FF80
FFFFFF00
7FFFFF00
3FFFFE00
0FFFF800
03FFF000
007F8000
ENDCHAR
STARTCHAR 0054
ENCODING 84
SWIDTH 606 0
DWIDTH 32 0
BBX 30 39 1 0
BITMAP
FFFFFFFC
FFFFFFFC
FFFFFFFC
FFFFFFFC
FFFFFFFC
FFFFFFFC
001FC000
001FC000
001FC000
001FC000
001FC000
001FC000
001FC000
001FC000
001FC000
001FC000
001FC000
001FC000
001FC000
001FC000
001FC000
001FC000
001FC000
001FC000
001FC000
001FC000
001FC000
001FC000
001FC000
001FC000
001FC000
001FC000
001FC000
001FC000
001FC000
001FC000
001FC000
001FC000
001FC000
ENDCHAR
STARTCHAR 0055
ENCODING 85
SWIDTH 738 0
DWIDTH 39 0
BBX 32 39 4 0
BITMAP
FE0000FF
FE0000FF
FE0000FF
FE0000FF
FE0000FF
FE0000FF
FE0000FF
FE0000FF
FE0000FF
FE0000FF
FE0000FF
FE0000FF
FE0000FF
FE0000FF
FE0000FF
FE0000FF
FE0000FF
FE0000FF
FE0000FF
FE0000FF
FE0000FF
FE0000FF
FE0000FF
FE0000FF
FE0000FF
FE0000FE
FE0000FE
FF0000FE
7F0001FE
7F8001FC
7F8003FC
3FE007FC
3FF01FF8
1FFFFFF0
0FFFFFE0
07FFFFC0
03FFFF80
00FFFE00
001FF000
ENDCHAR
STARTCHAR 0056
ENCODING 86
SWIDTH 701 0
DWIDTH 37 0
BBX 37 39 0 0
BITMAP
FE000003F8
FF000007F8
7F000007F0
7F80000FF0
7F80000FE0
3F80000FE0
3FC0001FE0
1FC0001FC0
1FC0003FC0
1FE0003F80
0FE0003F80
0FF0007F80
07F0007F00
07F000FF00
07F800FE00
03F800FE00
03F801FE00
01FC01FC00
01FC01FC00
01FE03F800
00FE03F800
00FE07F800
007F07F000
007F07F000
007F0FE000
003F8FE000
003F8FE000
001FDFC000
001FDFC000
001FDF8000
000FDF8000
000FFF8000
0007FF0000
0007FF0000
0007FE0000
0003FE0000
0003FE0000
0001FC0000
0001FC0000
ENDCHAR
STARTCHAR 0057
ENCODING 87
SWIDTH 1061 0
DWIDTH 56 0
BBX 55 39 0 0
BITMAP
FF00003E0000FE
7F80007E0001FE
7F8000FF0001FC
3F8000FF0001FC
3FC000FF0003FC
3FC001FF8003FC
3FC001FF8003F8
1FC001FF8003F8
1FE003FFC007F8
1FE003FFC007F0
0FE003FFC007F0
0FF007FFE007F0
0FF007E7E00FE0
07F007E7E00FE0
07F007E7F00FE0
07F80FC3F01FE0
07F80FC3F01FC0
03F80FC3F81FC0
03F81F83F81FC0
03FC1F81F83F80
01FC1F81FC3F80
01FC3F01FC3F80
01FE3F00FC7F00
00FE3F00FE7F00
00FE7E00FE7F00
00FE7E007E7E00
007F7E007EFE00
007FFC007FFE00
007FFC003FFE00
007FFC003FFC00
003FFC003FFC00
003FF8001FFC00
003FF8001FF800
001FF8001FF800
001FF0000FF800
001FF0000FF000
000FF0000FF000
000FE0000FF000
000FE00007F000
ENDCHAR
STARTCHAR 0058
ENCODING 88
SWIDTH 682 0
DWIDTH 36 0
BBX 35 39 0 0
BITMAP
7F80001FE0
3FC0003FC0
3FC0003F80
1FE0007F80
1FF0007F00
0FF000FE00
07F801FE00
07F801FC00
03FC03F800
01FE07F800
01FE07F000
00FF0FF000
007F0FE000
007F9FC000
003FFFC000
001FFF8000
001FFF0000
000FFF0000
000FFE0000
000FFE0000
000FFF0000
001FFF0000
001FFF8000
003FBFC000
007F9FC000
007F1FE000
00FF0FF000
01FE0FF000
01FC07F800
03FC03F800
07F803FC00
07F001FE00
0FF001FE00
0FE000FF00
1FE000FF80
3FC0007F80
3F80003FC0
7F80003FC0
FF00001FE0
ENDCHAR
STARTCHAR 0059
ENCODING 89
SWIDTH 644 0
DWIDTH 34 0
BBX 35 39 0 0
BITMAP
FE00001FE0
7F00003FC0
7F80003F80
3F80007F80
3FC000FF00
1FC000FE00
1FE001FE00
0FE001FC00
07F003FC00
07F803F800
03F807F800
03FC07F000
01FC0FE000
00FE0FE000
00FE1FC000
007F1FC000
007F3F8000
003FBF0000
003FFF0000
001FFE0000
000FFE0000
000FFC0000
0007FC0000
0007F80000
0003F80000
0003F80000
0003F80000
0003F80000
0003F80000
0003F80000
0003F80000
0003F80000
0003F80000
0003F80000
0003F80000
0003F80000
0003F80000
0003F80000
0003F80000
ENDCHAR
STARTCHAR 005A
ENCODING 90
SWIDTH 606 0
DWIDTH 32 0
BBX 30 39 1 0
BITMAP
7FFFFFFC
7FFFFFFC
7FFFFFFC
7FFFFFFC
7FFFFFF8
7FFFFFF8
00000FF0
00001FE0
00001FC0
00003FC0
00007F80
00007F00
0000FF00
0001FE00
0003FC00
0003FC00
0007F800
000FF000
000FE000
001FE000
003FC000
003F8000
007F8000
00FF0000
01FE0000
01FE0000
03FC0000
07F80000
07F00000
0FF00000
1FE00000
1FC00000
3FC00000
7FFFFFF8
7FFFFFF8
FFFFFFF8
FFFFFFF8
FFFFFFF8
FFFFFFF8
ENDCHAR
STARTCHAR 005B
ENCODING 91
SWIDTH 322 0
DWIDTH 17 0
BBX 11 50 4 -8
BITMAP
FFE0
FFE0
FFE0
FFE0
FFE0
FC00
FC00
FC00
FC00
FC00
FC00
FC00
FC00
FC00
FC00
FC00
FC00
FC00
FC00
FC00
FC00
FC00
FC00
FC00
FC00
FC00
FC00
FC00
FC00
FC00
FC00
FC00
FC00
FC00
FC00
FC00
FC00
FC00
FC00
FC00
FC00
FC00
FC00
FC00
FC00
FFE0
FFE0
FFE0
FFE0
FFE0
ENDCHAR
STARTCHAR 005C
ENCODING 92
SWIDTH 473 0
DWIDTH 25 0
BBX 21 42 2 -2
BITMAP
F00000
F80000
FC0000
7C0000
7E0000
3E0000
3E0000
3F0000
1F0000
1F0000
0F8000
0F8000
0FC000
07C000
07C000
07E000
03E000
03F000
01F000
01F000
01F800
00F800
00F800
007C00
007C00
007E00
003E00
003E00
003F00
001F00
001F80
000F80
000F80
000FC0
0007C0
0007C0
0003E0
0003E0
0003F0
0001F0
0001F0
0000F8
ENDCHAR
STARTCHAR 005D
ENCODING 93
SWIDTH 322 0
DWIDTH 17 0
BBX 11 50 1 -8
BITMAP
FFE0
FFE0
FFE0
FFE0
7FE0
03E0
03E0
03E0
03E0
03E0
03E0
03E0
03E0
03E0
03E0
03E0
03E0
03E0
03E0
03E0
03E0
03E0
03E0
03E0
03E0
03E0
03E0
03E0
03E0
03E0
03E0
03E0
03E0
03E0
03E0
03E0
03E0
03E0
03E0
03E0
03E0
03E0
03E0
03E0
03E0
7FE0
FFE0
FFE0
FFE0
FFE0
ENDCHAR
STARTCHAR 005E
ENCODING 94
SWIDTH 587 0
DWIDTH 31 0
BBX 25 20 3 19
BITMAP
003E0000
007E0000
007F0000
00FF0000
00FF8000
01FF8000
01FFC000
03F7C000
03E7E000
07E3E000
07E3F000
0FC1F000
0FC1F800
1F80F800
1F80FC00
3F007E00
3F007E00
7E003F00
7E003F00
FC001F80
ENDCHAR
STARTCHAR 005F
ENCODING 95
SWIDTH 473 0
DWIDTH 25 0
BBX 21 5 2 -8
BITMAP
FFFFF8
FFFFF8
FFFFF8
FFFFF8
FFFFF8
ENDCHAR
STARTCHAR 0060
ENCODING 96
SWIDTH 397 0
DWIDTH 21 0
BBX 13 8 2 31
BITMAP
FF00
3F80
3F80
1FC0
0FE0
07E0
03F0
01F8
ENDCHAR
STARTCHAR 0061
ENCODING 97
SWIDTH 511 0
DWIDTH 27 0
BBX 23 28 1 0
BITMAP
007F00
03FFC0
0FFFF0
3FFFF8
3FFFF8
3F83FC
1E00FC
0000FE
0000FE
00007E
00007E
00007E
003FFE
01FFFE
0FFFFE
1FFFFE
3FE07E
7F007E
7E007E
FE007E
FE00FE
FE01FE
FF07FE
7FFFFE
7FFFFE
3FFE3E
1FFC3E
07F03E
ENDCHAR
STARTCHAR 0062
ENCODING 98
SWIDTH 568 0
DWIDTH 30 0
BBX 25 40 3 0
BITMAP
FE000000
FE000000
FE000000
FE000000
FE000000
FE000000
FE000000
FE000000
FE000000
FE000000
FE000000
FE000000
FE0FC000
FE3FF000
FEFFF800
FFFFFC00
FFFFFE00
FFC1FF00
FF807F00
FF007F00
FE003F80
FE003F80
FE003F80
FE003F80
FE003F80
FE003F80
FE003F80
FE003F80
FE003F80
FE003F80
FE003F80
FE007F00
FE007F00
FF00FF00
FF81FE00
FFFFFC00
FFFFFC00
FDFFF800
FCFFE000
FC3F8000
ENDCHAR
STARTCHAR 0063
ENCODING 99
SWIDTH 492 0
DWIDTH 26 0
BBX 23 28 2 0
BITMAP
007F80
03FFE0
07FFF8
0FFFFC
1FFFFC
3FE0F8
7F8030
7F0000
7F0000
FE0000
FE0000
FE0000
FE0000
FC0000
FC0000
FE0000
FE0000
FE0000
FE0000
7F0000
7F0000
7F8038
3FE0FC
1FFFFE
0FFFFC
07FFF8
03FFE0
007F00
ENDCHAR
STARTCHAR 0064
ENCODING 100
SWIDTH 568 0
DWIDTH 30 0
BBX 25 40 2 0
BITMAP
00003F80
00003F80
00003F80
00003F80
00003F80
00003F80
00003F80
00003F80
00003F80
00003F80
00003F80
00003F80
00FE3F80
03FFBF80
07FFFF80
1FFFFF80
1FFFFF80
3FE0FF80
7F807F80
7F003F80
7F003F80
FE003F80
FE003F80
FE003F80
FE003F80
FE003F80
FE003F80
FE003F80
FE003F80
FE003F80
FE003F80
FE003F80
7F003F80
7F007F80
7FC1FF80
3FFFFF80
1FFFDF80
0FFF9F80
07FF1F80
01F80F80
ENDCHAR
STARTCHAR 0065
ENCODING 101
SWIDTH 530 0
DWIDTH 28 0
BBX 25 28 2 0
BITMAP
007F0000
03FFE000
07FFF000
0FFFFC00
1FFFFC00
3FC0FE00
7F807E00
7F003F00
7E003F00
FE001F00
FC001F80
FFFFFF80
FFFFFF80
FFFFFF80
FFFFFF00
FC000000
FC000000
FE000000
FE000000
7E000000
7F000000
3F801E00
3FE07E00
1FFFFF00
0FFFFF00
07FFFC00
01FFF800
007FC000
ENDCHAR
STARTCHAR 0066
ENCODING 102
SWIDTH 360 0
DWIDTH 19 0
BBX 18 39 1 0
BITMAP
001FC0
00FFC0
01FFC0
03FFC0
07FF80
07F800
0FE000
0FE000
0FE000
0FC000
0FC000
FFFFC0
FFFFC0
FFFFC0
FFFFC0
7FFFC0
0FE000
0FE000
0FE000
0FE000
0FE000
0FE000
0FE000
0FE000
0FE000
0FE000
0FE000
0FE000
0FE000
0FE000
0FE000
0FE000
0FE000
0FE000
0FE000
0FE000
0FE000
0FE000
0FE000
ENDCHAR
STARTCHAR 0067
ENCODING 103
SWIDTH 530 0
DWIDTH 28 0
BBX 26 38 1 -10
BITMAP
00FF0000
03FFC000
0FFFFFC0
1FFFFFC0
1FFFFFC0
3FC1FF80
3F00FC00
7F007E00
7E007E00
7E007E00
7E007E00
3F007E00
3F00FC00
1FC1FC00
1FFFF800
0FFFF000
03FFC000
0FFF0000
1F000000
1F000000
3F000000
3F800000
3FFFE000
1FFFFE00
1FFFFF00
0FFFFF80
1FFFFF80
3E003FC0
7C001FC0
FC000FC0
FC001F80
FE001F80
7F007F80
7FFFFF00
3FFFFE00
1FFFFC00
0FFFF000
00FF8000
ENDCHAR
STARTCHAR 0068
ENCODING 104
SWIDTH 568 0
DWIDTH 30 0
BBX 24 40 3 0
BITMAP
FE0000
FE0000
FE0000
FE0000
FE0000
FE0000
FE0000
FE0000
FE0000
FE0000
FE0000
FE0000
FE1FC0
FE7FF0
FEFFF8
FFFFFC
FFFFFE
FFC1FE
FF80FE
FE007F
FE007F
FE007F
FE007F
FE007F
FE007F
FE007F
FE007F
FE007F
FE007F
FE007F
FE007F
FE007F
FE007F
FE007F
FE007F
FE007F
FE007F
FE007F
FE007F
FE007F
ENDCHAR
STARTCHAR 0069
ENCODING 105
SWIDTH 246 0
DWIDTH 13 0
BBX 8 40 3 0
BITMAP
3C
FE
FF
FF
FF
FF
FE
3C
00
00
00
00
FE
FE
FE
FE
FE
FE
FE
FE
FE
FE
FE
FE
FE
FE
FE
FE
FE
FE
FE
FE
FE
FE
FE
FE
FE
FE
FE
FE
ENDCHAR
STARTCHAR 006A
ENCODING 106
SWIDTH 246 0
DWIDTH 13 0
BBX 13 50 -2 -10
BITMAP
01E0
07F0
07F8
07F8
07F8
07F8
07F0
01E0
0000
0000
0000
0000
07F0
07F0
07F0
07F0
07F0
07F0
07F0
07F0
07F0
07F0
07F0
07F0
07F0
07F0
07F0
07F0
07F0
07F0
07F0
07F0
07F0
07F0
07F0
07F0
07F0
07F0
07F0
07F0
07F0
07F0
07F0
07F0
0FF0
FFE0
FFE0
FFC0
FF80
FE00
ENDCHAR
STARTCHAR 006B
ENCODING 107
SWIDTH 530 0
DWIDTH 28 0
BBX 25 40 3 0
BITMAP
FE000000
FE000000
FE000000
FE000000
FE000000
FE000000
FE000000
FE000000
FE000000
FE000000
FE000000
FE000000
FE007F80
FE00FF00
FE00FE00
FE01FC00
FE03F800
FE07F800
FE07F000
FE0FE000
FE1FC000
FE3F8000
FE7F8000
FFFF0000
FFFE0000
FFFE0000
FFFF0000
FFFF8000
FE3F8000
FE1FC000
FE1FE000
FE0FE000
FE07F000
FE07F800
FE03FC00
FE01FC00
FE00FE00
FE00FF00
FE007F00
FE003F80
ENDCHAR
STARTCHAR 006C
ENCODING 108
SWIDTH 246 0
DWIDTH 13 0
BBX 7 40 3 0
BITMAP
FE
FE
FE
FE
FE
FE
FE
FE
FE
FE
FE
FE
FE
FE
FE
FE
FE
FE
FE
FE
FE
FE
FE
FE
FE
FE
FE
FE
FE
FE
FE
FE
FE
FE
FE
FE
FE
FE
FE
FE
ENDCHAR
STARTCHAR 006D
ENCODING 109
SWIDTH 833 0
DWIDTH 44 0
BBX 38 28 3 0
BITMAP
F81F003F00
FC7FC1FFE0
FDFFE3FFF0
FFFFF7FFF8
FFFFF7FFF8
FFC3FF83FC
FF01FF01FC
FE00FE01FC
FE00FE00FC
FE00FE00FC
FE00FE00FC
FE00FE00FC
FE00FE00FC
FE00FE00FC
FE00FE00FC
FE00FE00FC
FE00FE00FC
FE00FE00FC
FE00FE00FC
FE00FE00FC
FE00FE00FC
FE00FE00FC
FE00FE00FC
FE00FE00FC
FE00FE00FC
FE00FE00FC
FE00FE00FC
FE00FE00FC
ENDCHAR
STARTCHAR 006E
ENCODING 110
SWIDTH 568 0
DWIDTH 30 0
BBX 24 28 3 0
BITMAP
F83FC0
FCFFF0
FDFFF8
FFFFFC
FFFFFE
FFC1FE
FF80FE
FE007F
FE007F
FE007F
FE007F
FE007F
FE007F
FE007F
FE007F
FE007F
FE007F
FE007F
FE007F
FE007F
FE007F
FE007F
FE007F
FE007F
FE007F
FE007F
FE007F
FE007F
ENDCHAR
STARTCHAR 006F
ENCODING 111
SWIDTH 568 0
DWIDTH 30 0
BBX 27 28 2 0
BITMAP
007F8000
01FFF000
07FFFC00
0FFFFE00
1FFFFF00
3FE0FF00
7F803F80
7F003F80
7E001FC0
FE001FC0
FE000FC0
FE000FE0
FE000FE0
FE000FE0
FE000FE0
FE000FE0
FE000FE0
FE000FC0
FE001FC0
7E001FC0
7F003F80
7F803F80
3FC0FF00
1FFFFF00
0FFFFE00
07FFFC00
01FFF000
007F8000
ENDCHAR
STARTCHAR 0070
ENCODING 112
SWIDTH 568 0
DWIDTH 30 0
BBX 25 37 3 -9
BITMAP
F81FC000
FC7FF000
FCFFF800
FDFFFC00
FFFFFE00
FFC1FF00
FF807F00
FF007F00
FE003F80
FE003F80
FE003F80
FE003F80
FE003F80
FE003F80
FE003F80
FE003F80
FE003F80
FE003F80
FE003F80
FE007F00
FE007F00
FF00FF00
FF81FE00
FFFFFC00
FFFFFC00
FFFFF800
FEFFE000
FE3F8000
FE000000
FE000000
FE000000
FE000000
FE000000
FE000000
FE000000
FE000000
FE000000
ENDCHAR
STARTCHAR 0071
ENCODING 113
SWIDTH 568 0
DWIDTH 30 0
BBX 25 37 2 -9
BITMAP
00FE0F80
03FF9F80
07FFDF80
1FFFFF80
1FFFFF80
3FE0FF80
7F807F80
7F003F80
7F003F80
FE003F80
FE003F80
FE003F80
FE003F80
FE003F80
FE003F80
FE003F80
FE003F80
FE003F80
FE003F80
FE003F80
7F003F80
7F007F80
7FC1FF80
3FFFFF80
1FFFFF80
0FFFBF80
07FF3F80
01F83F80
00003F80
00003F80
00003F80
00003F80
00003F80
00003F80
00003F80
00003F80
00003F80
ENDCHAR
STARTCHAR 0072
ENCODING 114
SWIDTH 378 0
DWIDTH 20 0
BBX 17 28 3 0
BITMAP
FC1F80
FC7F00
FCFF00
FDFF00
FDFF00
FFFF00
FFC000
FF8000
FF0000
FE0000
FE0000
FE0000
FE0000
FE0000
FE0000
FE0000
FE0000
FE0000
FE0000
FE0000
FE0000
FE0000
FE0000
FE0000
FE0000
FE0000
FE0000
FE0000
ENDCHAR
STARTCHAR 0073
ENCODING 115
SWIDTH 435 0
DWIDTH 23 0
BBX 21 28 1 0
BITMAP
01FE00
07FFC0
0FFFE0
1FFFF0
3FFFF0
3F83E0
7F0040
7E0000
7E0000
7F0000
7FC000
3FF000
3FFE00
1FFF80
07FFE0
01FFF0
003FF0
0007F0
0003F8
0003F8
0003F0
3803F0
7E07F0
7FFFE0
FFFFE0
3FFFC0
1FFF00
03FC00
ENDCHAR
STARTCHAR 0074
ENCODING 116
SWIDTH 378 0
DWIDTH 20 0
BBX 18 37 1 0
BITMAP
01E000
03E000
07E000
07E000
07E000
07E000
07E000
07E000
0FE000
3FFFC0
FFFFC0
FFFFC0
FFFFC0
FFFFC0
0FE000
0FE000
0FE000
0FE000
0FE000
0FE000
0FE000
0FE000
0FE000
0FE000
0FE000
0FE000
0FE000
0FE000
0FE000
0FE000
0FE000
0FE100
0FFF80
07FFC0
07FFC0
03FF80
00FE00
ENDCHAR
STARTCHAR 0075
ENCODING 117
SWIDTH 568 0
DWIDTH 30 0
BBX 24 28 3 0
BITMAP
FE007F
FE007F
FE007F
FE007F
FE007F
FE007F
FE007F
FE007F
FE007F
FE007F
FE007F
FE007F
FE007F
FE007F
FE007F
FE007F
FE007F
FE007F
FE007F
FE007F
FE007F
FF01FF
7F83FF
7FFFFF
3FFFFF
1FFF3F
0FFE3F
03F83F
ENDCHAR
STARTCHAR 0076
ENCODING 118
SWIDTH 530 0
DWIDTH 28 0
BBX 28 28 0 0
BITMAP
FE0007F0
7F0007E0
7F000FE0
3F000FC0
3F800FC0
3F801FC0
1F801F80
1FC01F80
0FC03F00
0FC03F00
0FE07F00
07E07E00
07E07E00
07F0FE00
03F0FC00
03F8FC00
01F9F800
01F9F800
01F9F800
00FFF000
00FFF000
007FE000
007FE000
007FE000
003FC000
003FC000
003FC000
001F8000
ENDCHAR
STARTCHAR 0077
ENCODING 119
SWIDTH 814 0
DWIDTH 43 0
BBX 42 28 0 0
BITMAP
FE001F000FC0
7F003F801FC0
7F003F801F80
3F003F801F80
3F007FC03F80
3F807FC03F00
3F807FC03F00
1F80FFE03F00
1F80FFE07E00
1FC0FBE07E00
0FC1FBE07E00
0FC1F3F07E00
0FE1F1F0FC00
07E1F1F0FC00
07E3E1F8FC00
07E3E0F9F800
03F3E0F9F800
03F7C0F9F800
03F7C0FDF000
03F7C07DF000
01FF807FF000
01FF807FE000
01FF803FE000
00FF803FE000
00FF003FE000
00FF001FC000
007F001FC000
007E001FC000
ENDCHAR
STARTCHAR 0078
ENCODING 120
SWIDTH 530 0
DWIDTH 28 0
BBX 28 28 0 0
BITMAP
7F000FE0
3F801FC0
3F801F80
1FC03F80
0FE07F00
0FE07E00
07F0FE00
07F8FC00
03F9F800
01FFF800
01FFF000
00FFE000
007FE000
007FC000
007FE000
00FFF000
00FFF000
01FBF800
03FBF800
03F1FC00
07F0FE00
0FE0FE00
0FC07F00
1FC07F80
3F803F80
3F801FC0
7F001FE0
FE000FF0
ENDCHAR
STARTCHAR 0079
ENCODING 121
SWIDTH 530 0
DWIDTH 28 0
BBX 28 37 0 -9
BITMAP
FE0007F0
7F0007E0
7F000FE0
3F800FE0
3F800FC0
3F801FC0
1FC01F80
1FC01F80
0FE03F00
0FE03F00
07E07F00
07F07E00
07F07E00
03F8FC00
03F8FC00
01F8FC00
01FDF800
00FDF800
00FDF000
00FFF000
007FE000
007FE000
003FE000
003FC000
001FC000
001F8000
001F8000
003F8000
003F0000
003F0000
007E0000
007E0000
00FC0000
00FC0000
01FC0000
01F80000
03F00000
ENDCHAR
STARTCHAR 007A
ENCODING 122
SWIDTH 454 0
DWIDTH 24 0
BBX 22 28 1 0
BITMAP
7FFFFC
7FFFFC
7FFFFC
7FFFFC
7FFFF8
0003F8
0007F0
000FE0
000FE0
001FC0
003F80
003F00
007F00
00FE00
01FC00
01F800
03F800
07F000
0FE000
0FE000
1FC000
3F8000
3F0000
7FFFF8
FFFFF8
FFFFF8
FFFFF8
FFFFF8
ENDCHAR
STARTCHAR 007B
ENCODING 123
SWIDTH 303 0
DWIDTH 16 0
BBX 13 50 2 -8
BITMAP
00F8
07F8
0FF8
1FF8
3FF0
3F80
3F00
3F00
3E00
3E00
3E00
3E00
3E00
3F00
3F00
3F00
3F00
1F00
1F00
1F00
1F00
3F00
7E00
FE00
F800
F800
FE00
7E00
3F00
1F00
1F00
1F00
1F00
3F00
3F00
3F00
3F00
3E00
3E00
3E00
3E00
3E00
3E00
3F00
3F80
3FF0
1FF8
0FF8
07F8
00F8
ENDCHAR
STARTCHAR 007C
ENCODING 124
SWIDTH 265 0
DWIDTH 14 0
BBX 5 51 4 -9
BITMAP
F8
F8
F8
F8
F8
F8
F8
F8
F8
F8
F8
F8
F8
F8
F8
F8
F8
F8
F8
F8
F8
F8
F8
F8
F8
F8
F8
F8
F8
F8
F8
F8
F8
F8
F8
F8
F8
F8
F8
F8
F8
F8
F8
F8
F8
F8
F8
F8
F8
F8
F8
ENDCHAR
STARTCHAR 007D
ENCODING 125
SWIDTH 303 0
DWIDTH 16 0
BBX 13 50 2 -8
BITMAP
F800
FE00
FF00
FF80
FFC0
1FC0
0FC0
07E0
07E0
07E0
07E0
07E0
07C0
07C0
0FC0
0FC0
0FC0
0FC0
0FC0
0FC0
0FC0
0FC0
07E0
03F8
01F8
01F8
03F8
07E0
0FC0
0FC0
0FC0
0FC0
0FC0
0FC0
0FC0
0FC0
07C0
07C0
07E0
07E0
07E0
07E0
07E0
0FC0
1FC0
FFC0
FF80
FF00
FE00
F800
ENDCHAR
STARTCHAR 007E
ENCODING 126
SWIDTH 587 0
DWIDTH 31 0
BBX 25 10 3 11
BITMAP
00000F80
07C00F80
1FF81F80
3FFE1F80
7FFFFF00
7FFFFF00
FC3FFE00
FC0FFC00
F803F000
F8000000
ENDCHAR
STARTCHAR 00A0
ENCODING 160
SWIDTH 246 0
DWIDTH 13 0
BBX 0 0 0 0
BITMAP
ENDCHAR
STARTCHAR 00A1
ENCODING 161
SWIDTH 265 0
DWIDTH 14 0
BBX 8 37 3 -9
BITMAP
3C
7E
FF
FF
FF
FF
7E
3C
00
00
00
00
00
3C
3E
3E
7E
7E
7E
7E
7E
7E
7E
7E
7E
7E
7E
7E
7E
7E
7E
7E
7E
7E
7E
7E
7E
ENDCHAR
STARTCHAR 00A2
ENCODING 162
SWIDTH 587 0
DWIDTH 31 0
BBX 25 40 3 -6
BITMAP
0003C000
0003C000
0003C000
0003C000
0003C000
0003C000
003FE000
01FFF800
07FFFE00
0FFFFF00
1FFFFF00
1FF7BE00
3FC78C00
7F878000
7F078000
7E078000
FE078000
FE078000
FE0F8000
FE0F0000
FE0F0000
FE0F0000
FE0F0000
FE0F0000
7E0F0000
7F0F0000
7F0F0000
3F8F0E00
3FEF3F00
1FFFFF80
0FFFFF00
07FFFE00
03FFF800
00FFE000
001E0000
001E0000
001E0000
001E0000
001E0000
001C0000
ENDCHAR
STARTCHAR 00A3
ENCODING 163
SWIDTH 587 0
DWIDTH 31 0
BBX 29 39 1 0
BITMAP
0007F800
001FFE00
007FFF80
00FFFFC0
01FFFFE0
01FE0FE0
03F807F0
03F803C0
07F00000
07F00000
07F00000
07F00000
07F00000
07F00000
07F00000
07F00000
07F00000
07F00000
7FFFFE00
FFFFFE00
FFFFFE00
FFFFFE00
FFFFFC00
07F00000
07F00000
07F00000
07F00000
07F00000
07F00000
07F00000
07F00000
07E00000
0FE00000
0FC00000
1FFFFFF8
7FFFFFF8
7FFFFFF8
7FFFFFF0
7FFFFFF0
ENDCHAR
STARTCHAR 00A4
ENCODING 164
SWIDTH 587 0
DWIDTH 31 0
BBX 25 26 3 5
BITMAP
10000400
30000E00
78001F00
FC7E3F80
7FFFFF00
3FFFFE00
1FFFFC00
1FFFF800
0FC3F800
1F80F800
1F007C00
1F007C00
1E007C00
1E007C00
1F007C00
1F007C00
1F80FC00
0FC3F800
0FFFF800
1FFFFC00
3FFFFE00
7FFFBF00
FC7E1F80
78000F00
38000E00
10000400
ENDCHAR
STARTCHAR 00A5
ENCODING 165
SWIDTH 587 0
DWIDTH 31 0
BBX 30 39 0 0
BITMAP
FE0001FC
7F0001FC
3F8003F8
3F8003F8
1F8007F0
1FC007F0
1FC00FE0
0FE00FE0
0FE01FC0
07F01FC0
07F01F80
03F83F80
03F83F00
01F87F00
01FC7E00
00FCFE00
00FEFC00
007EFC00
007EFC00
003FF800
003FF800
001FF000
0FFFFFE0
0FFFFFE0
0FFFFFE0
0FFFFFE0
000FE000
000FE000
0FFFFFE0
0FFFFFE0
0FFFFFE0
0FFFFFE0
000FE000
000FE000
000FE000
000FE000
000FE000
000FE000
000FE000
ENDCHAR
STARTCHAR 00A6
ENCODING 166
SWIDTH 265 0
DWIDTH 14 0
BBX 6 51 4 -9
BITMAP
FC
FC
FC
FC
FC
FC
FC
FC
FC
FC
FC
FC
FC
FC
FC
FC
FC
FC
FC
FC
FC
FC
00
00
00
00
00
00
00
FC
FC
FC
FC
FC
FC
FC
FC
FC
FC
FC
FC
FC
FC
FC
FC
FC
FC
FC
FC
FC
FC
ENDCHAR
STARTCHAR 00A7
ENCODING 167
SWIDTH 511 0
DWIDTH 27 0
BBX 22 43 2 -4
BITMAP
00FF00
03FFC0
07FFF0
0FFFF8
1FFFF8
1FC1F0
3F0020
3F0000
3F0000
3F0000
3F8000
1FE000
1FF800
0FFF00
07FFC0
1FFFE0
3FFFF0
7E3FF8
7C0FFC
FC03FC
FC00FC
FE00FC
FF007C
7F807C
7FE0FC
3FFDF8
1FFFF0
0FFFE0
03FFE0
007FF0
001FF0
0007F8
0003F8
0001F8
0001F8
0001F8
3C01F8
3F07F0
7FFFF0
7FFFE0
3FFFC0
0FFF80
03FC00
ENDCHAR
STARTCHAR 00A8
ENCODING 168
SWIDTH 397 0
DWIDTH 21 0
BBX 18 7 2 32
BITMAP
780F00
FC1F80
FE3F80
FE3FC0
FE3F80
FC1F80
780F00
ENDCHAR
STARTCHAR 00A9
ENCODING 169
SWIDTH 833 0
DWIDTH 44 0
BBX 39 39 2 0
BITMAP
0001FF0000
000FFFE000
003FFFF800
007F00FE00
01F8001F00
03E0000F80
07C00003C0
0F807F01E0
0F03FFC0F0
1E07FFF078
3C0FFFF878
3C1FFFF03C
383FC0F03C
783F00601C
787E00001E
707E00001E
F07C00000E
F0FC00000E
F0FC00000E
F0FC00000E
F0FC00000E
F0FC00000E
F07C00000E
707E00001E
787E00001E
787F00401C
383FC1E03C
3C1FFFF03C
3C1FFFF878
1E07FFF078
0F03FFC0F0
0F80FF01E0
07C00003C0
03E0000F80
01F8001F00
007F00FE00
003FFFF800
000FFFE000
0001FF0000
ENDCHAR
STARTCHAR 00AA
ENCODING 170
SWIDTH 360 0
DWIDTH 19 0
BBX 14 17 2 22
BITMAP
07E0
3FF0
7FF8
7FFC
387C
003C
003C
07FC
1FFC
7FFC
7C3C
F83C
F83C
F87C
7FFC
7FDC
1F1C
ENDCHAR
STARTCHAR 00AB
ENCODING 171
SWIDTH 454 0
DWIDTH 24 0
BBX 19 22 2 3
BITMAP
0180C0
03C1E0
07C3E0
07C3E0
0F87C0
1F8FC0
1F0F80
3F1F80
3E1F00
7C3E00
FC7E00
7C3E00
7E3F00
3E1F00
1F0F80
1F0F80
0F87C0
0FC7E0
07C3E0
03C1E0
03C1E0
010080
ENDCHAR
STARTCHAR 00AC
ENCODING 172
SWIDTH 587 0
DWIDTH 31 0
BBX 23 12 4 9
BITMAP
FFFFFE
FFFFFE
FFFFFE
FFFFFE
FFFFFE
00007E
00007E
00007E
00007E
00007E
00007E
00007E
ENDCHAR
STARTCHAR 00AD
ENCODING 173
SWIDTH 378 0
DWIDTH 20 0
BBX 14 5 3 13
BITMAP
FFFC
FFFC
FFFC
FFFC
FFFC
ENDCHAR
STARTCHAR 00AE
ENCODING 174
SWIDTH 833 0
DWIDTH 44 0
BBX 39 39 2 0
BITMAP
0001FF0000
000FFFE000
003FFFF800
007F00FE00
01F8001F00
03E0000F80
07C00003C0
0F9FFF01E0
0F1FFFE0F0
1E1FFFF078
3C1FFFF078
3C1FFFF83C
381F81F83C
781F81F81C
781F80F81E
701F80F81E
F01F81F80E
F01F83F00E
F01FFFF00E
F01FFFC00E
F01FFF000E
F01FFF800E
F01F8FC00E
701F8FE01E
781F87E01E
781F87F01C
381F83F03C
3C1F83F83C
3C1F81F878
1E1F81FC78
0F1F80FEF0
0F800001E0
07C00003C0
03E0000F80
01F8001F00
007F00FE00
003FFFF800
000FFFE000
0001FF0000
ENDCHAR
STARTCHAR 00AF
ENCODING 175
SWIDTH 397 0
DWIDTH 21 0
BBX 16 4 3 33
BITMAP
FFFF
FFFF
FFFF
FFFF
ENDCHAR
STARTCHAR 00B0
ENCODING 176
SWIDTH 416 0
DWIDTH 22 0
BBX 18 19 2 20
BITMAP
03F000
0FFC00
1FFE00
3FFF00
7FFF80
7E1F80
FC0FC0
F807C0
F807C0
F003C0
F007C0
F807C0
F80FC0
7E1F80
7FFF80
3FFF00
1FFE00
0FFC00
03F000
ENDCHAR
STARTCHAR 00B1
ENCODING 177
SWIDTH 587 0
DWIDTH 31 0
BBX 26 31 2 2
BITMAP
001F0000
001F0000
001F0000
001F0000
001F0000
001F0000
001F0000
001F0000
001F0000
FFFFFFC0
FFFFFFC0
FFFFFFC0
FFFFFFC0
FFFFFFC0
001F0000
001F0000
001F0000
001F0000
001F0000
001F0000
001F0000
001F0000
001F0000
001F0000
00000000
00000000
FFFFFFC0
FFFFFFC0
FFFFFFC0
FFFFFFC0
FFFFFFC0
ENDCHAR
STARTCHAR 00B2
ENCODING 178
SWIDTH 341 0
DWIDTH 18 0
BBX 14 20 2 24
BITMAP
0FC0
3FF0
7FF8
FFF8
F8F8
F078
2078
00F8
00F8
01F0
03E0
07C0
0F80
1F00
3E00
7FF8
FFFC
FFFC
FFFC
FFFC
ENDCHAR
STARTCHAR 00B3
ENCODING 179
SWIDTH 341 0
DWIDTH 18 0
BBX 15 20 1 24
BITMAP
07E0
1FF8
3FFC
3FFC
7C7C
783C
003C
007C
03F8
03F0
03F8
007C
003E
103E
F83E
7C7C
7FFC
3FF8
1FF0
07E0
ENDCHAR
STARTCHAR 00B4
ENCODING 180
SWIDTH 397 0
DWIDTH 21 0
BBX 13 8 7 31
BITMAP
07F8
0FE0
1FC0
1FC0
3F80
3F00
7E00
FC00
ENDCHAR
STARTCHAR 00B5
ENCODING 181
SWIDTH 663 0
DWIDTH 35 0
BBX 29 37 4 -9
BITMAP
FE003F00
FE003F00
FE003F00
FE003F00
FE003F00
FE003F00
FE003F00
FE003F00
FE003F00
FE003F00
FE003F00
FE003F00
FE003F00
FE003F00
FE003F00
FE003F00
FE003F00
FE003F00
FE007F00
FE007F00
FF00FF00
FF01FF00
FF83FF80
FFFFDFF8
FFFFDFF8
FFFF8FF8
FDFF07F8
FCFC03F0
FC000000
FC000000
FC000000
FE000000
FE000000
FE000000
FE000000
7E000000
7E000000
ENDCHAR
STARTCHAR 00B6
ENCODING 182
SWIDTH 738 0
DWIDTH 39 0
BBX 35 44 2 -5
BITMAP
00FFFFFFE0
07FFFFFFE0
0FFFFFFFE0
3FFFFFFFE0
3FFFFFFFE0
7FFFC0F800
7FFFC0F800
FFFFC0F800
FFFFC0F800
FFFFC0F800
FFFFC0F800
FFFFC0F800
FFFFC0F800
FFFFC0F800
FFFFC0F800
7FFFC0F800
7FFFC0F800
3FFFC0F800
1FFFC0F800
07FFC0F800
01FFC0F800
000FC0F800
000FC0F800
000FC0F800
000FC0F800
000FC0F800
000FC0F800
000FC0F800
000FC0F800
000FC0F800
000FC0F800
000FC0F800
000FC0F800
000FC0F800
000FC0F800
000FC0F800
000FC0F800
000FC0F800
000FC0F800
000FC0F800
000FC0F800
000FC0F800
000FC0F800
000FC0F800
ENDCHAR
STARTCHAR 00B7
ENCODING 183
SWIDTH 284 0
DWIDTH 15 0
BBX 10 10 2 11
BITMAP
1E00
3F80
7FC0
FFC0
FFC0
FFC0
FFC0
7FC0
3F80
1E00
ENDCHAR
STARTCHAR 00B8
ENCODING 184
SWIDTH 397 0
DWIDTH 21 0
BBX 10 11 6 -10
BITMAP
1E00
1C00
3C00
3E00
7F80
1FC0
07C0
47C0
7FC0
FF80
7E00
ENDCHAR
STARTCHAR 00B9
ENCODING 185
SWIDTH 341 0
DWIDTH 18 0
BBX 13 20 2 24
BITMAP
03C0
0FC0
1FC0
3FC0
7FC0
FFC0
7BC0
37C0
07C0
07C0
07C0
07C0
07C0
07C0
07C0
07C0
07C0
3FF8
3FF8
3FF8
ENDCHAR
STARTCHAR 00BA
ENCODING 186
SWIDTH 397 0
DWIDTH 21 0
BBX 17 17 2 22
BITMAP
07F000
1FFC00
3FFE00
7FFF00
7E1F00
FC0F80
F80F80
F80F80
F80F80
F80F80
F80F80
FC0F80
7E1F00
7FFF00
3FFE00
1FFC00
07F000
ENDCHAR
STARTCHAR 00BB
ENCODING 187
SWIDTH 454 0
DWIDTH 24 0
BBX 19 22 3 3
BITMAP
301800
F07800
F87C00
FC7E00
7C3E00
3E1F00
3F1F80
1F0F80
1F8FC0
0FC7E0
07C3E0
0FC7E0
0F87C0
1F8FC0
1F0F80
3E1F00
7E3F00
7C3E00
F87C00
F87C00
703800
100800
ENDCHAR
STARTCHAR 00BC
ENCODING 188
SWIDTH 738 0
DWIDTH 39 0
BBX 35 39 2 0
BITMAP
03C0001F00
0FC0003E00
1FC0007C00
3FC0007C00
7FC000F800
FFC000F800
7BC001F000
37C003E000
07C003E000
07C007C000
07C007C000
07C00F8000
07C01F0000
07C01F0000
07C03E0000
07C03E0000
07C07C0000
3FF8F80000
3FF8F80000
3FF9F00F80
0001F01F80
0003E01F80
0007C03F80
0007C07F80
000F807F80
000F80F780
001F01F780
003E01E780
003E03C780
007C078780
007C078780
00F80F0780
01F01FFFE0
01F00FFFE0
03E00FFFE0
03E0000780
07C0000780
0F80000780
0F00000780
ENDCHAR
STARTCHAR 00BD
ENCODING 189
SWIDTH 738 0
DWIDTH 39 0
BBX 35 39 2 0
BITMAP
03C0003E00
0FC0007C00
1FC000F800
3FC000F800
7FC001F000
FFC001F000
7BC003E000
37C007C000
07C007C000
07C00F8000
07C00F8000
07C01F0000
07C03E0000
07C03E0000
07C07C0000
07C07C0000
07C0F80000
3FF9F00000
3FF9F00000
3FFBE07E00
0003E1FF80
0007C3FFC0
000F87FFC0
000F87C7C0
001F0783C0
001F0103C0
003E0007C0
007C0007C0
007C000F80
00F8001F00
00F8003E00
01F0007C00
03E000F800
03E001F000
07C003FFC0
07C007FFE0
0F8007FFE0
1F0007FFE0
1E0007FFE0
ENDCHAR
STARTCHAR 00BE
ENCODING 190
SWIDTH 757 0
DWIDTH 40 0
BBX 35 39 2 0
BITMAP
07E0000F80
1FF8001F00
3FFC003E00
3FFC003E00
7C7C007C00
783C007C00
003C00F800
007C01F000
03F801F000
03F003E000
03F803E000
007C07C000
003E0F8000
103E0F8000
F83E1F0000
7C7C1F0000
7FFC3E0000
3FF87C0000
1FF07C0000
07E0F80F80
0000F81F80
0001F01F80
0003E03F80
0003E07F80
0007C07F80
0007C0F780
000F81F780
001F01E780
001F03C780
003E078780
003E078780
007C0F0780
00F81FFFE0
00F80FFFE0
01F00FFFE0
01F0000780
03E0000780
07C0000780
0780000780
ENDCHAR
STARTCHAR 00BF
ENCODING 191
SWIDTH 454 0
DWIDTH 24 0
BBX 20 38 2 -10
BITMAP
007800
00FC00
00FE00
01FE00
01FE00
00FE00
00FE00
007800
000000
000000
000000
000000
000000
007C00
007C00
007C00
00FC00
00FC00
00FC00
03FC00
07F800
1FF000
3FE000
3F8000
7F0000
7E0000
FE0000
FC0000
FC0000
FC0000
FC0000
FE00E0
7F83E0
7FFFF0
3FFFF0
1FFFE0
0FFF80
01FC00
ENDCHAR
STARTCHAR 00C0
ENCODING 192
SWIDTH 701 0
DWIDTH 37 0
BBX 37 51 0 0
BITMAP
01FE000000
00FF000000
007F800000
003FC00000
001FE00000
000FE00000
0007F00000
0003F80000
0001FC0000
0000000000
0000000000
0000000000
0001FC0000
0003FE0000
0003FE0000
0007FE0000
0007FF0000
0007FF0000
000FFF8000
000FDF8000
001FDF8000
001FDFC000
001F8FC000
003F8FC000
003F8FE000
003F07E000
007F07F000
007E07F000
00FE03F000
00FE03F800
00FC03F800
01FC01FC00
01FC01FC00
03F800FC00
03F800FE00
03F800FE00
07FFFFFE00
07FFFFFF00
07FFFFFF00
0FFFFFFF80
0FFFFFFF80
1FC0001F80
1FC0001FC0
1FC0001FC0
3F80000FE0
3F80000FE0
7F80000FE0
7F000007F0
7F000007F0
FF000007F8
FE000003F8
ENDCHAR
STARTCHAR 00C1
ENCODING 193
SWIDTH 701 0
DWIDTH 37 0
BBX 37 51 0 0
BITMAP
000007F800
00001FF000
00003FE000
00003FC000
00007F8000
0000FF0000
0001FE0000
0001F80000
0003F00000
0000000000
0000000000
0000000000
0001FC0000
0003FE0000
0003FE0000
0007FE0000
0007FF0000
0007FF0000
000FFF8000
000FDF8000
001FDF8000
001FDFC000
001F8FC000
003F8FC000
003F8FE000
003F07E000
007F07F000
007E07F000
00FE03F000
00FE03F800
00FC03F800
01FC01FC00
01FC01FC00
03F800FC00
03F800FE00
03F800FE00
07FFFFFE00
07FFFFFF00
07FFFFFF00
0FFFFFFF80
0FFFFFFF80
1FC0001F80
1FC0001FC0
1FC0001FC0
3F80000FE0
3F80000FE0
7F80000FE0
7F000007F0
7F000007F0
FF000007F8
FE000003F8
ENDCHAR
STARTCHAR 00C2
ENCODING 194
SWIDTH 701 0
DWIDTH 37 0
BBX 37 50 0 0
BITMAP
0000FC0000
0001FE0000
0003FE0000
0007FF0000
000FDF8000
001F8FC000
001F07E000
007F03F000
0000000000
0000000000
0000000000
0001FC0000
0003FE0000
0003FE0000
0007FE0000
0007FF0000
0007FF0000
000FFF8000
000FDF8000
001FDF8000
001FDFC000
001F8FC000
003F8FC000
003F8FE000
003F07E000
007F07F000
007E07F000
00FE03F000
00FE03F800
00FC03F800
01FC01FC00
01FC01FC00
03F800FC00
03F800FE00
03F800FE00
07FFFFFE00
07FFFFFF00
07FFFFFF00
0FFFFFFF80
0FFFFFFF80
1FC0001F80
1FC0001FC0
1FC0001FC0
3F80000FE0
3F80000FE0
7F80000FE0
7F000007F0
7F000007F0
FF000007F8
FE000003F8
ENDCHAR
STARTCHAR 00C3
ENCODING 195
SWIDTH 701 0
DWIDTH 37 0
BBX 37 48 0 0
BITMAP
0007C0F000
001FF1F000
001FFFF000
003FFFF000
003FFFE000
007C7FC000
00780F8000
0000000000
0000000000
0001FC0000
0003FE0000
0003FE0000
0007FE0000
0007FF0000
0007FF0000
000FFF8000
000FDF8000
001FDF8000
001FDFC000
001F8FC000
003F8FC000
003F8FE000
003F07E000
007F07F000
007E07F000
00FE03F000
00FE03F800
00FC03F800
01FC01FC00
01FC01FC00
03F800FC00
03F800FE00
03F800FE00
07FFFFFE00
07FFFFFF00
07FFFFFF00
0FFFFFFF80
0FFFFFFF80
1FC0001F80
1FC0001FC0
1FC0001FC0
3F80000FE0
3F80000FE0
7F80000FE0
7F000007F0
7F000007F0
FF000007F8
FE000003F8
ENDCHAR
STARTCHAR 00C4
ENCODING 196
SWIDTH 701 0
DWIDTH 37 0
BBX 37 48 0 0
BITMAP
001C01C000
003F03E000
007F07F000
007F07F000
007F07F000
003F07E000
001E01C000
0000000000
0000000000
0001FC0000
0003FE0000
0003FE0000
0007FE0000
0007FF0000
0007FF0000
000FFF8000
000FDF8000
001FDF8000
001FDFC000
001F8FC000
003F8FC000
003F8FE000
003F07E000
007F07F000
007E07F000
00FE03F000
00FE03F800
00FC03F800
01FC01FC00
01FC01FC00
03F800FC00
03F800FE00
03F800FE00
07FFFFFE00
07FFFFFF00
07FFFFFF00
0FFFFFFF80
0FFFFFFF80
1FC0001F80
1FC0001FC0
1FC0001FC0
3F80000FE0
3F80000FE0
7F80000FE0
7F000007F0
7F000007F0
FF000007F8
FE000003F8
ENDCHAR
STARTCHAR 00C5
ENCODING 197
SWIDTH 701 0
DWIDTH 37 0
BBX 37 51 0 0
BITMAP
0000F80000
0001FE0000
0003FE0000
00078F0000
0007070000
0007070000
00078F0000
0003FE0000
0001FE0000
0000F80000
0000000000
0000000000
0001FC0000
0003FE0000
0003FE0000
0007FE0000
0007FF0000
0007FF0000
000FFF8000
000FDF8000
001FDF8000
001FDFC000
001F8FC000
003F8FC000
003F8FE000
003F07E000
007F07F000
007E07F000
00FE03F000
00FE03F800
00FC03F800
01FC01FC00
01FC01FC00
03F800FC00
03F800FE00
03F800FE00
07FFFFFE00
07FFFFFF00
07FFFFFF00
0FFFFFFF80
0FFFFFFF80
1FC0001F80
1FC0001FC0
1FC0001FC0
3F80000FE0
3F80000FE0
7F80000FE0
7F000007F0
7F000007F0
FF000007F8
FE000003F8
ENDCHAR
STARTCHAR 00C6
ENCODING 198
SWIDTH 928 0
DWIDTH 49 0
BBX 48 39 -1 0
BITMAP
00000FFFFFFF
00001FFFFFFF
00001FFFFFFF
00003FFFFFFF
00003FFFFFFF
00007FFFFFFF
00007FFC0000
0000FFFC0000
0000FCFC0000
0001FCFC0000
0001F8FE0000
0003F8FE0000
0003F0FE0000
0007F0FE0000
0007E0FE0000
000FE0FE0000
000FC07E0000
001FC07FFFF8
001F807FFFF8
003F807FFFF8
003F007FFFF8
007F007FFFF8
007E007F0000
00FE007F0000
00FFFFFF0000
01FFFFFF0000
01FFFFFF8000
03FFFFFF8000
03FFFFFF8000
07F0003F8000
07F0003F8000
0FE0003F8000
0FE0003F8000
1FC0001FFFFF
1FC0001FFFFF
3F80001FFFFF
3F80001FFFFF
7F00001FFFFF
FF00001FFFFF
ENDCHAR
STARTCHAR 00C7
ENCODING 199
SWIDTH 663 0
DWIDTH 35 0
BBX 32 49 2 -10
BITMAP
0003FF00
001FFFE0
007FFFF8
00FFFFFC
03FFFFFE
07FFFFFF
0FFE01FE
0FF8007C
1FF00018
3FE00000
3FC00000
3F800000
7F800000
7F000000
7F000000
FF000000
FF000000
FE000000
FE000000
FE000000
FE000000
FE000000
FE000000
FF000000
FF000000
7F000000
7F800000
7F800000
3FC00000
3FC00000
3FE00008
1FF0003C
0FFC007E
0FFFCFFF
07FFFFFF
03FFFFFE
00FFFFFC
007FFFF0
001FFFC0
0001FC00
0000F000
0000FC00
0001FE00
00007F00
00001F00
00001F00
0001FF00
0003FE00
0001F800
ENDCHAR
STARTCHAR 00C8
ENCODING 200
SWIDTH 568 0
DWIDTH 30 0
BBX 24 51 4 0
BITMAP
3FC000
1FE000
0FF000
07F800
03FC00
01FC00
00FE00
007F00
003F80
000000
000000
000000
FFFFFF
FFFFFF
FFFFFF
FFFFFF
FFFFFF
FFFFFF
FE0000
FE0000
FE0000
FE0000
FE0000
FE0000
FE0000
FE0000
FE0000
FE0000
FE0000
FFFFF8
FFFFF8
FFFFF8
FFFFF8
FFFFF8
FE0000
FE0000
FE0000
FE0000
FE0000
FE0000
FE0000
FE0000
FE0000
FE0000
FE0000
FFFFFF
FFFFFF
FFFFFF
FFFFFF
FFFFFF
FFFFFF
ENDCHAR
STARTCHAR 00C9
ENCODING 201
SWIDTH 568 0
DWIDTH 30 0
BBX 24 51 4 0
BITMAP
0000FF
0003FE
0007FC
0007F8
000FF0
001FE0
003FC0
003F00
007E00
000000
000000
000000
FFFFFF
FFFFFF
FFFFFF
FFFFFF
FFFFFF
FFFFFF
FE0000
FE0000
FE0000
FE0000
FE0000
FE0000
FE0000
FE0000
FE0000
FE0000
FE0000
FFFFF8
FFFFF8
FFFFF8
FFFFF8
FFFFF8
FE0000
FE0000
FE0000
FE0000
FE0000
FE0000
FE0000
FE0000
FE0000
FE0000
FE0000
FFFFFF
FFFFFF
FFFFFF
FFFFFF
FFFFFF
FFFFFF
ENDCHAR
STARTCHAR 00CA
ENCODING 202
SWIDTH 568 0
DWIDTH 30 0
BBX 24 50 4 0
BITMAP
003F00
007F80
00FF80
01FFC0
03F7E0
07E3F0
07C1F8
1FC0FC
000000
000000
000000
FFFFFF
FFFFFF
FFFFFF
FFFFFF
FFFFFF
FFFFFF
FE0000
FE0000
FE0000
FE0000
FE0000
FE0000
FE0000
FE0000
FE0000
FE0000
FE0000
FFFFF8
FFFFF8
FFFFF8
FFFFF8
FFFFF8
FE0000
FE0000
FE0000
FE0000
FE0000
FE0000
FE0000
FE0000
FE0000
FE0000
FE0000
FFFFFF
FFFFFF
FFFFFF
FFFFFF
FFFFFF
FFFFFF
ENDCHAR
STARTCHAR 00CB
ENCODING 203
SWIDTH 568 0
DWIDTH 30 0
BBX 24 48 4 0
BITMAP
070070
0FC0F8
1FC1FC
1FC1FC
1FC1FC
0FC1F8
078070
000000
000000
FFFFFF
FFFFFF
FFFFFF
FFFFFF
FFFFFF
FFFFFF
FE0000
FE0000
FE0000
FE0000
FE0000
FE0000
FE0000
FE0000
FE0000
FE0000
FE0000
FFFFF8
FFFFF8
FFFFF8
FFFFF8
FFFFF8
FE0000
FE0000
FE0000
FE0000
FE0000
FE0000
FE0000
FE0000
FE0000
FE0000
FE0000
FFFFFF
FFFFFF
FFFFFF
FFFFFF
FFFFFF
FFFFFF
ENDCHAR
STARTCHAR 00CC
ENCODING 204
SWIDTH 303 0
DWIDTH 16 0
BBX 15 51 -3 0
BITMAP
FF00
7F80
3FC0
1FE0
0FF0
07F0
03F8
01FC
00FE
0000
0000
0000
01FC
01FC
01FC
01FC
01FC
01FC
01FC
01FC
01FC
01FC
01FC
01FC
01FC
01FC
01FC
01FC
01FC
01FC
01FC
01FC
01FC
01FC
01FC
01FC
01FC
01FC
01FC
01FC
01FC
01FC
01FC
01FC
01FC
01FC
01FC
01FC
01FC
01FC
01FC
ENDCHAR
STARTCHAR 00CD
ENCODING 205
SWIDTH 303 0
DWIDTH 16 0
BBX 15 51 4 0
BITMAP
01FE
07FC
0FF8
0FF0
1FE0
3FC0
7F80
7E00
FC00
0000
0000
0000
FE00
FE00
FE00
FE00
FE00
FE00
FE00
FE00
FE00
FE00
FE00
FE00
FE00
FE00
FE00
FE00
FE00
FE00
FE00
FE00
FE00
FE00
FE00
FE00
FE00
FE00
FE00
FE00
FE00
FE00
FE00
FE00
FE00
FE00
FE00
FE00
FE00
FE00
FE00
ENDCHAR
STARTCHAR 00CE
ENCODING 206
SWIDTH 303 0
DWIDTH 16 0
BBX 19 50 -2 0
BITMAP
01F800
03FC00
07FC00
0FFE00
1FBF00
3F1F80
3E0FC0
FE07E0
000000
000000
000000
03F800
03F800
03F800
03F800
03F800
03F800
03F800
03F800
03F800
03F800
03F800
03F800
03F800
03F800
03F800
03F800
03F800
03F800
03F800
03F800
03F800
03F800
03F800
03F800
03F800
03F800
03F800
03F800
03F800
03F800
03F800
03F800
03F800
03F800
03F800
03F800
03F800
03F800
03F800
ENDCHAR
STARTCHAR 00CF
ENCODING 207
SWIDTH 303 0
DWIDTH 16 0
BBX 19 48 -2 0
BITMAP
380380
7E07C0
FE0FE0
FE0FE0
FE0FE0
7E0FC0
3C0380
000000
000000
03F800
03F800
03F800
03F800
03F800
03F800
03F800
03F800
03F800
03F800
03F800
03F800
03F800
03F800
03F800
03F800
03F800
03F800
03F800
03F800
03F800
03F800
03F800
03F800
03F800
03F800
03F800
03F800
03F800
03F800
03F800
03F800
03F800
03F800
03F800
03F800
03F800
03F800
03F800
ENDCHAR
STARTCHAR 00D0
ENCODING 208
SWIDTH 776 0
DWIDTH 41 0
BBX 39 39 0 0
BITMAP
07FFFF0000
07FFFFE000
07FFFFF800
07FFFFFE00
07FFFFFF00
07FFFFFF80
07F001FFC0
07F0003FE0
07F0001FF0
07F0000FF0
07F00007F8
07F00003F8
07F00003FC
07F00003FC
07F00001FC
07F00001FC
07F00001FE
FFFFE001FE
FFFFE001FE
FFFFE001FE
FFFFE001FE
07F00001FE
07F00001FE
07F00001FC
07F00001FC
07F00003FC
07F00003FC
07F00003F8
07F00007F8
07F0000FF0
07F0001FF0
07F0003FE0
07F001FFC0
07FFFFFFC0
07FFFFFF00
07FFFFFE00
07FFFFFC00
07FFFFF000
07FFFF0000
ENDCHAR
STARTCHAR 00D1
ENCODING 209
SWIDTH 776 0
DWIDTH 41 0
BBX 33 48 4 0
BITMAP
001F03C000
007FC7C000
007FFFC000
00FFFFC000
00FFFF8000
01F1FF0000
01E03E0000
0000000000
0000000000
FC00003F80
FE00003F80
FE00003F80
FF00003F80
FF80003F80
FFC0003F80
FFE0003F80
FFE0003F80
FFF0003F80
FFF8003F80
FFFC003F80
FFFE003F80
FDFE003F80
FCFF003F80
FEFF803F80
FE7FC03F80
FE3FC03F80
FE1FE03F80
FE0FF03F80
FE0FF83F80
FE07FC3F80
FE03FC3F80
FE01FE3F80
FE01FF3F80
FE00FFBF80
FE007FBF80
FE003FFF80
FE003FFF80
FE001FFF80
FE000FFF80
FE0007FF80
FE0003FF80
FE0003FF80
FE0001FF80
FE0000FF80
FE00007F80
FE00007F80
FE00003F80
FE00001F80
ENDCHAR
STARTCHAR 00D2
ENCODING 210
SWIDTH 814 0
DWIDTH 43 0
BBX 39 51 2 0
BITMAP
00FF000000
007F800000
003FC00000
001FE00000
000FF00000
0007F00000
0003F80000
0001FC0000
0000FE0000
0000000000
0000000000
0000000000
0001FF0000
001FFFE000
007FFFF800
00FFFFFE00
03FFFFFF00
07FFFFFF80
0FFF01FFC0
0FF8003FE0
1FF0001FF0
3FE0000FF0
3FC00007F8
7F800003F8
7F800003FC
7F000001FC
7F000001FC
FF000001FC
FF000001FE
FE000001FE
FE000001FE
FE000000FE
FE000001FE
FE000001FE
FE000001FE
FF000001FC
7F000001FC
7F000001FC
7F800003FC
7F800003F8
3FC00007F8
3FE0000FF0
1FF0001FF0
0FF8003FE0
0FFF01FFC0
07FFFFFF80
03FFFFFF00
00FFFFFE00
007FFFFC00
001FFFE000
0001FF0000
ENDCHAR
STARTCHAR 00D3
ENCODING 211
SWIDTH 814 0
DWIDTH 43 0
BBX 39 51 2 0
BITMAP
000003FC00
00000FF800
00001FF000
00001FE000
00003FC000
00007F8000
0000FF0000
0000FC0000
0001F80000
0000000000
0000000000
0000000000
0001FF0000
001FFFE000
007FFFF800
00FFFFFE00
03FFFFFF00
07FFFFFF80
0FFF01FFC0
0FF8003FE0
1FF0001FF0
3FE0000FF0
3FC00007F8
7F800003F8
7F800003FC
7F000001FC
7F000001FC
FF000001FC
FF000001FE
FE000001FE
FE000001FE
FE000000FE
FE000001FE
FE000001FE
FE000001FE
FF000001FC
7F000001FC
7F000001FC
7F800003FC
7F800003F8
3FC00007F8
3FE0000FF0
1FF0001FF0
0FF8003FE0
0FFF01FFC0
07FFFFFF80
03FFFFFF00
00FFFFFE00
007FFFFC00
001FFFE000
0001FF0000
ENDCHAR
STARTCHAR 00D4
ENCODING 212
SWIDTH 814 0
DWIDTH 43 0
BBX 39 50 2 0
BITMAP
00007E0000
0000FF0000
0001FF0000
0003FF8000
0007EFC000
000FC7E000
000F83F000
003F81F800
0000000000
0000000000
0000000000
0001FF0000
001FFFE000
007FFFF800
00FFFFFE00
03FFFFFF00
07FFFFFF80
0FFF01FFC0
0FF8003FE0
1FF0001FF0
3FE0000FF0
3FC00007F8
7F800003F8
7F800003FC
7F000001FC
7F000001FC
FF000001FC
FF000001FE
FE000001FE
FE000001FE
FE000000FE
FE000001FE
FE000001FE
FE000001FE
FF000001FC
7F000001FC
7F000001FC
7F800003FC
7F800003F8
3FC00007F8
3FE0000FF0
1FF0001FF0
0FF8003FE0
0FFF01FFC0
07FFFFFF80
03FFFFFF00
00FFFFFE00
007FFFFC00
001FFFE000
0001FF0000
ENDCHAR
STARTCHAR 00D5
ENCODING 213
SWIDTH 814 0
DWIDTH 43 0
BBX 39 48 2 0
BITMAP
0003E07800
000FF8F800
000FFFF800
001FFFF800
001FFFF000
003E3FE000
003C07C000
0000000000
0000000000
0001FF0000
001FFFE000
007FFFF800
00FFFFFE00
03FFFFFF00
07FFFFFF80
0FFF01FFC0
0FF8003FE0
1FF0001FF0
3FE0000FF0
3FC00007F8
7F800003F8
7F800003FC
7F000001FC
7F000001FC
FF000001FC
FF000001FE
FE000001FE
FE000001FE
FE000000FE
FE000001FE
FE000001FE
FE000001FE
FF000001FC
7F000001FC
7F000001FC
7F800003FC
7F800003F8
3FC00007F8
3FE0000FF0
1FF0001FF0
0FF8003FE0
0FFF01FFC0
07FFFFFF80
03FFFFFF00
00FFFFFE00
007FFFFC00
001FFFE000
0001FF0000
ENDCHAR
STARTCHAR 00D6
ENCODING 214
SWIDTH 814 0
DWIDTH 43 0
BBX 39 48 2 0
BITMAP
000E00E000
001F81F000
003F83F800
003F83F800
003F83F800
001F83F000
000F00E000
0000000000
0000000000
0001FF0000
001FFFE000
007FFFF800
00FFFFFE00
03FFFFFF00
07FFFFFF80
0FFF01FFC0
0FF8003FE0
1FF0001FF0
3FE0000FF0
3FC00007F8
7F800003F8
7F800003FC
7F000001FC
7F000001FC
FF000001FC
FF000001FE
FE000001FE
FE000001FE
FE000000FE
FE000001FE
FE000001FE
FE000001FE
FF000001FC
7F000001FC
7F000001FC
7F800003FC
7F800003F8
3FC00007F8
3FE0000FF0
1FF0001FF0
0FF8003FE0
0FFF01FFC0
07FFFFFF80
03FFFFFF00
00FFFFFE00
007FFFFC00
001FFFE000
0001FF0000
ENDCHAR
STARTCHAR 00D7
ENCODING 215
SWIDTH 587 0
DWIDTH 31 0
BBX 25 25 3 5
BITMAP
10000800
38000C00
7C001E00
FE003F00
7F007F00
3F80FE00
1FC1FC00
0FE3F800
07F7F000
03FFE000
01FFC000
00FF8000
007F0000
00FF8000
01FFC000
03FFE000
07F7F000
0FE3F800
1FC1FC00
3F80FE00
7F007F00
FE003F80
7C001F00
38000E00
10000400
ENDCHAR
STARTCHAR 00D8
ENCODING 216
SWIDTH 814 0
DWIDTH 43 0
BBX 39 43 2 -2
BITMAP
00000000FC
00000000F8
0001FF01F0
001FFFE3E0
007FFFFBE0
00FFFFFFC0
03FFFFFF80
07FFFFFFC0
0FFF01FFE0
0FF8003FE0
1FF0007FF0
3FE0007FF8
3FC000FFF8
7F8001F3F8
7F8003F3FC
7F0003E1FC
7F0007C1FC
FF000FC1FE
FF001F81FE
FE001F01FE
FE003E01FE
FE007E00FE
FE007C01FE
FE00F801FE
FE01F001FE
FF03F001FC
FF03E001FC
7F07C001FC
7F8FC003FC
7F9F8003F8
3FDF0007F8
3FFE000FF0
1FFE001FF0
0FFC003FE0
0FFF01FFC0
07FFFFFF80
03FFFFFF00
03FFFFFE00
07FFFFF800
0FDFFFE000
1F81FF0000
1F00000000
7E00000000
ENDCHAR
STARTCHAR 00D9
ENCODING 217
SWIDTH 738 0
DWIDTH 39 0
BBX 32 51 4 0
BITMAP
07F80000
03FC0000
01FE0000
00FF0000
007F8000
003F8000
001FC000
000FE000
0007F000
00000000
00000000
00000000
FE0000FF
FE0000FF
FE0000FF
FE0000FF
FE0000FF
FE0000FF
FE0000FF
FE0000FF
FE0000FF
FE0000FF
FE0000FF
FE0000FF
FE0000FF
FE0000FF
FE0000FF
FE0000FF
FE0000FF
FE0000FF
FE0000FF
FE0000FF
FE0000FF
FE0000FF
FE0000FF
FE0000FF
FE0000FF
FE0000FE
FE0000FE
FF0000FE
7F0001FE
7F8001FC
7F8003FC
3FE007FC
3FF01FF8
1FFFFFF0
0FFFFFE0
07FFFFC0
03FFFF80
00FFFE00
001FF000
ENDCHAR
STARTCHAR 00DA
ENCODING 218
SWIDTH 738 0
DWIDTH 39 0
BBX 32 51 4 0
BITMAP
00001FE0
00007FC0
0000FF80
0000FF00
0001FE00
0003FC00
0007F800
0007E000
000FC000
00000000
00000000
00000000
FE0000FF
FE0000FF
FE0000FF
FE0000FF
FE0000FF
FE0000FF
FE0000FF
FE0000FF
FE0000FF
FE0000FF
FE0000FF
FE0000FF
FE0000FF
FE0000FF
FE0000FF
FE0000FF
FE0000FF
FE0000FF
FE0000FF
FE0000FF
FE0000FF
FE0000FF
FE0000FF
FE0000FF
FE0000FF
FE0000FE
FE0000FE
FF0000FE
7F0001FE
7F8001FC
7F8003FC
3FE007FC
3FF01FF8
1FFFFFF0
0FFFFFE0
07FFFFC0
03FFFF80
00FFFE00
001FF000
ENDCHAR
STARTCHAR 00DB
ENCODING 219
SWIDTH 738 0
DWIDTH 39 0
BBX 32 50 4 0
BITMAP
0007E000
000FF000
001FF000
003FF800
007EFC00
00FC7E00
00F83F00
03F81F80
00000000
00000000
00000000
FE0000FF
FE0000FF
FE0000FF
FE0000FF
FE0000FF
FE0000FF
FE0000FF
FE0000FF
FE0000FF
FE0000FF
FE0000FF
FE0000FF
FE0000FF
FE0000FF
FE0000FF
FE0000FF
FE0000FF
FE0000FF
FE0000FF
FE0000FF
FE0000FF
FE0000FF
FE0000FF
FE0000FF
FE0000FF
FE0000FE
FE0000FE
FF0000FE
7F0001FE
7F8001FC
7F8003FC
3FE007FC
3FF01FF8
1FFFFFF0
0FFFFFE0
07FFFFC0
03FFFF80
00FFFE00
001FF000
ENDCHAR
STARTCHAR 00DC
ENCODING 220
SWIDTH 738 0
DWIDTH 39 0
BBX 32 48 4 0
BITMAP
00E00E00
01F81F00
03F83F80
03F83F80
03F83F80
01F83F00
00F00E00
00000000
00000000
FE0000FF
FE0000FF
FE0000FF
FE0000FF
FE0000FF
FE0000FF
FE0000FF
FE0000FF
FE0000FF
FE0000FF
FE0000FF
FE0000FF
FE0000FF
FE0000FF
FE0000FF
FE0000FF
FE0000FF
FE0000FF
FE0000FF
FE0000FF
FE0000FF
FE0000FF
FE0000FF
FE0000FF
FE0000FF
FE0000FE
FE0000FE
FF0000FE
7F0001FE
7F8001FC
7F8003FC
3FE007FC
3FF01FF8
1FFFFFF0
0FFFFFE0
07FFFFC0
03FFFF80
00FFFE00
001FF000
ENDCHAR
STARTCHAR 00DD
ENCODING 221
SWIDTH 644 0
DWIDTH 34 0
BBX 35 51 0 0
BITMAP
00000FF000
00003FE000
00007FC000
00007F8000
0000FF0000
0001FE0000
0003FC0000
0003F00000
0007E00000
0000000000
0000000000
0000000000
FE00001FE0
7F00003FC0
7F80003F80
3F80007F80
3FC000FF00
1FC000FE00
1FE001FE00
0FE001FC00
07F003FC00
07F803F800
03F807F800
03FC07F000
01FC0FE000
00FE0FE000
00FE1FC000
007F1FC000
007F3F8000
003FBF0000
003FFF0000
001FFE0000
000FFE0000
000FFC0000
0007FC0000
0007F80000
0003F80000
0003F80000
0003F80000
0003F80000
0003F80000
0003F80000
0003F80000
0003F80000
0003F80000
0003F80000
0003F80000
0003F80000
0003F80000
0003F80000
0003F80000
ENDCHAR
STARTCHAR 00DE
ENCODING 222
SWIDTH 625 0
DWIDTH 33 0
BBX 28 39 4 0
BITMAP
FE000000
FE000000
FE000000
FE000000
FE000000
FE000000
FE000000
FFFFC000
FFFFF800
FFFFFE00
FFFFFF00
FFFFFF80
FE00FFC0
FE003FC0
FE001FE0
FE000FE0
FE000FE0
FE000FE0
FE000FF0
FE000FF0
FE000FF0
FE000FE0
FE000FE0
FE000FE0
FE001FE0
FE003FC0
FE00FFC0
FFFFFF80
FFFFFF00
FFFFFE00
FFFFF800
FFFFC000
FE000000
FE000000
FE000000
FE000000
FE000000
FE000000
FE000000
ENDCHAR
STARTCHAR 00DF
ENCODING 223
SWIDTH 606 0
DWIDTH 32 0
BBX 28 39 3 0
BITMAP
003FC000
01FFF800
07FFFC00
0FFFFE00
1FFFFF00
3FE07F80
3F803F80
7F001F80
7F001FC0
7E001FC0
FE001F80
FE003F80
FE007F80
FE00FF00
FE01FE00
FE03F800
FE07F000
FE0FE000
FE0FE000
FE0FE000
FE0FF000
FE0FF800
FE0FFE00
FE07FF80
FE03FFC0
FE00FFC0
FE003FE0
FE001FE0
FE0007E0
FE0007F0
FE0007F0
FE0007E0
FE3807E0
FE3E0FE0
FE7FFFC0
FE7FFFC0
FE3FFF80
FE1FFE00
FE03F800
ENDCHAR
STARTCHAR 00E0
ENCODING 224
SWIDTH 511 0
DWIDTH 27 0
BBX 23 39 1 0
BITMAP
0FF000
03F800
03F800
01FC00
00FE00
007E00
003F00
001F80
000000
000000
000000
007F00
03FFC0
0FFFF0
3FFFF8
3FFFF8
3F83FC
1E00FC
0000FE
0000FE
00007E
00007E
00007E
003FFE
01FFFE
0FFFFE
1FFFFE
3FE07E
7F007E
7E007E
FE007E
FE00FE
FE01FE
FF07FE
7FFFFE
7FFFFE
3FFE3E
1FFC3E
07F03E
ENDCHAR
STARTCHAR 00E1
ENCODING 225
SWIDTH 511 0
DWIDTH 27 0
BBX 23 39 1 0
BITMAP
0003FC
0007F0
000FE0
000FE0
001FC0
001F80
003F00
007E00
000000
000000
000000
007F00
03FFC0
0FFFF0
3FFFF8
3FFFF8
3F83FC
1E00FC
0000FE
0000FE
00007E
00007E
00007E
003FFE
01FFFE
0FFFFE
1FFFFE
3FE07E
7F007E
7E007E
FE007E
FE00FE
FE01FE
FF07FE
7FFFFE
7FFFFE
3FFE3E
1FFC3E
07F03E
ENDCHAR
STARTCHAR 00E2
ENCODING 226
SWIDTH 511 0
DWIDTH 27 0
BBX 23 39 1 0
BITMAP
007F00
00FF80
01FFC0
01FFE0
03F3E0
07E1F0
0FC0F8
100004
000000
000000
000000
007F00
03FFC0
0FFFF0
3FFFF8
3FFFF8
3F83FC
1E00FC
0000FE
0000FE
00007E
00007E
00007E
003FFE
01FFFE
0FFFFE
1FFFFE
3FE07E
7F007E
7E007E
FE007E
FE00FE
FE01FE
FF07FE
7FFFFE
7FFFFE
3FFE3E
1FFC3E
07F03E
ENDCHAR
STARTCHAR 00E3
ENCODING 227
SWIDTH 511 0
DWIDTH 27 0
BBX 23 39 1 0
BITMAP
01F078
03FC78
07FFF8
07FFF0
0FFFF0
0F9FE0
0F07C0
000000
000000
000000
000000
007F00
03FFC0
0FFFF0
3FFFF8
3FFFF8
3F83FC
1E00FC
0000FE
0000FE
00007E
00007E
00007E
003FFE
01FFFE
0FFFFE
1FFFFE
3FE07E
7F007E
7E007E
FE007E
FE00FE
FE01FE
FF07FE
7FFFFE
7FFFFE
3FFE3E
1FFC3E
07F03E
ENDCHAR
STARTCHAR 00E4
ENCODING 228
SWIDTH 511 0
DWIDTH 27 0
BBX 23 39 1 0
BITMAP
0780F0
0FC1F8
0FE3F8
0FE3FC
0FE3F8
0FC1F8
0780F0
000000
000000
000000
000000
007F00
03FFC0
0FFFF0
3FFFF8
3FFFF8
3F83FC
1E00FC
0000FE
0000FE
00007E
00007E
00007E
003FFE
01FFFE
0FFFFE
1FFFFE
3FE07E
7F007E
7E007E
FE007E
FE00FE
FE01FE
FF07FE
7FFFFE
7FFFFE
3FFE3E
1FFC3E
07F03E
ENDCHAR
STARTCHAR 00E5
ENCODING 229
SWIDTH 511 0
DWIDTH 27 0
BBX 23 41 1 0
BITMAP
003E00
00FF80
00FFC0
01E3C0
01C1C0
01C1E0
01C1C0
01E3C0
00FFC0
00FF80
003E00
000000
000000
007F00
03FFC0
0FFFF0
3FFFF8
3FFFF8
3F83FC
1E00FC
0000FE
0000FE
00007E
00007E
00007E
003FFE
01FFFE
0FFFFE
1FFFFE
3FE07E
7F007E
7E007E
FE007E
FE00FE
FE01FE
FF07FE
7FFFFE
7FFFFE
3FFE3E
1FFC3E
07F03E
ENDCHAR
STARTCHAR 00E6
ENCODING 230
SWIDTH 814 0
DWIDTH 43 0
BBX 40 28 1 0
BITMAP
00FF003F80
03FFC0FFE0
0FFFE3FFF0
1FFFF7FFF8
3FFFFFFFFC
3F83FFC1FE
1E00FF807E
0000FF007E
0000FF003F
00007E003F
00007E003F
001FFFFFFF
01FFFFFFFF
07FFFFFFFF
1FFFFFFFFF
3FF07E0000
7F807E0000
7E007E0000
7E00FF0000
FE00FF0000
FE00FF8000
FE01FF801E
7F07FFE07E
7FFFEFFFFF
7FFFC7FFFE
3FFF83FFF8
1FFF01FFF0
07F8003F80
ENDCHAR
STARTCHAR 00E7
ENCODING 231
SWIDTH 492 0
DWIDTH 26 0
BBX 23 38 2 -10
BITMAP
007F80
03FFE0
07FFF8
0FFFFC
1FFFFC
3FE0F8
3F8038
7F0000
7F0000
FE0000
FE0000
FE0000
FE0000
FC0000
FC0000
FE0000
FE0000
FE0000
FE0000
FE0000
7F0000
7F8038
3FC078
3FFBFC
1FFFFE
0FFFF8
07FFF0
01FFC0
003E00
003C00
003E00
007F80
001FC0
0007C0
0007C0
00FFC0
00FF80
00FE00
ENDCHAR
STARTCHAR 00E8
ENCODING 232
SWIDTH 530 0
DWIDTH 28 0
BBX 25 39 2 0
BITMAP
0FF00000
03F80000
03F80000
01FC0000
00FE0000
007E0000
003F0000
001F8000
00000000
00000000
00000000
007F0000
03FFE000
07FFF000
0FFFFC00
1FFFFC00
3FC0FE00
7F807E00
7F003F00
7E003F00
FE001F00
FC001F80
FFFFFF80
FFFFFF80
FFFFFF80
FFFFFF00
FC000000
FC000000
FE000000
FE000000
7E000000
7F000000
3F801E00
3FE07E00
1FFFFF00
0FFFFF00
07FFFC00
01FFF800
007FC000
ENDCHAR
STARTCHAR 00E9
ENCODING 233
SWIDTH 530 0
DWIDTH 28 0
BBX 25 39 2 0
BITMAP
0003FC00
0007F000
000FE000
000FE000
001FC000
001F8000
003F0000
007E0000
00000000
00000000
00000000
007F0000
03FFE000
07FFF000
0FFFFC00
1FFFFC00
3FC0FE00
7F807E00
7F003F00
7E003F00
FE001F00
FC001F80
FFFFFF80
FFFFFF80
FFFFFF80
FFFFFF00
FC000000
FC000000
FE000000
FE000000
7E000000
7F000000
3F801E00
3FE07E00
1FFFFF00
0FFFFF00
07FFFC00
01FFF800
007FC000
ENDCHAR
STARTCHAR 00EA
ENCODING 234
SWIDTH 530 0
DWIDTH 28 0
BBX 25 39 2 0
BITMAP
007F0000
00FF8000
01FFC000
01FFE000
03F3E000
07E1F000
0FC0F800
10000400
00000000
00000000
00000000
007F0000
03FFE000
07FFF000
0FFFFC00
1FFFFC00
3FC0FE00
7F807E00
7F003F00
7E003F00
FE001F00
FC001F80
FFFFFF80
FFFFFF80
FFFFFF80
FFFFFF00
FC000000
FC000000
FE000000
FE000000
7E000000
7F000000
3F801E00
3FE07E00
1FFFFF00
0FFFFF00
07FFFC00
01FFF800
007FC000
ENDCHAR
STARTCHAR 00EB
ENCODING 235
SWIDTH 530 0
DWIDTH 28 0
BBX 25 39 2 0
BITMAP
0780F000
0FC1F800
0FE3F800
0FE3FC00
0FE3F800
0FC1F800
0780F000
00000000
00000000
00000000
00000000
007F0000
03FFE000
07FFF000
0FFFFC00
1FFFFC00
3FC0FE00
7F807E00
7F003F00
7E003F00
FE001F00
FC001F80
FFFFFF80
FFFFFF80
FFFFFF80
FFFFFF00
FC000000
FC000000
FE000000
FE000000
7E000000
7F000000
3F801E00
3FE07E00
1FFFFF00
0FFFFF00
07FFFC00
01FFF800
007FC000
ENDCHAR
STARTCHAR 00EC
ENCODING 236
SWIDTH 246 0
DWIDTH 13 0
BBX 13 39 -2 0
BITMAP
FF00
3F80
3F80
1FC0
0FE0
07E0
03F0
01F8
0000
0000
0000
07F0
07F0
07F0
07F0
07F0
07F0
07F0
07F0
07F0
07F0
07F0
07F0
07F0
07F0
07F0
07F0
07F0
07F0
07F0
07F0
07F0
07F0
07F0
07F0
07F0
07F0
07F0
07F0
ENDCHAR
STARTCHAR 00ED
ENCODING 237
SWIDTH 246 0
DWIDTH 13 0
BBX 13 39 3 0
BITMAP
07F8
0FE0
1FC0
1FC0
3F80
3F00
7E00
FC00
0000
0000
0000
FE00
FE00
FE00
FE00
FE00
FE00
FE00
FE00
FE00
FE00
FE00
FE00
FE00
FE00
FE00
FE00
FE00
FE00
FE00
FE00
FE00
FE00
FE00
FE00
FE00
FE00
FE00
FE00
ENDCHAR
STARTCHAR 00EE
ENCODING 238
SWIDTH 246 0
DWIDTH 13 0
BBX 19 39 -3 0
BITMAP
03F800
07FC00
0FFE00
0FFF00
1F9F00
3F0F80
7E07C0
800020
000000
000000
000000
03F800
03F800
03F800
03F800
03F800
03F800
03F800
03F800
03F800
03F800
03F800
03F800
03F800
03F800
03F800
03F800
03F800
03F800
03F800
03F800
03F800
03F800
03F800
03F800
03F800
03F800
03F800
03F800
ENDCHAR
STARTCHAR 00EF
ENCODING 239
SWIDTH 246 0
DWIDTH 13 0
BBX 17 39 -2 0
BITMAP
3C1E00
7E3F00
7F3F80
FF7F80
7F3F80
7E3F00
3C1E00
000000
000000
000000
000000
07F000
07F000
07F000
07F000
07F000
07F000
07F000
07F000
07F000
07F000
07F000
07F000
07F000
07F000
07F000
07F000
07F000
07F000
07F000
07F000
07F000
07F000
07F000
07F000
07F000
07F000
07F000
07F000
ENDCHAR
STARTCHAR 00F0
ENCODING 240
SWIDTH 568 0
DWIDTH 30 0
BBX 26 38 2 0
BITMAP
03E00800
03F83C00
07FE7C00
07FFFC00
03FFF800
007FF000
003FF800
007FFC00
00FDFC00
00F8FE00
00607F00
00403F00
00001F80
00FE1F80
03FFCF80
0FFFEFC0
1FFFFFC0
3FFFFFC0
3FC0FFC0
7F803FC0
7F001FC0
FE001FC0
FE000FC0
FC000FC0
FC000FC0
FC000FC0
FC000FC0
FC001FC0
FE001F80
FE001F80
7F003F80
7F807F00
3FC1FF00
3FFFFE00
1FFFFC00
0FFFF800
03FFE000
007F8000
ENDCHAR
STARTCHAR 00F1
ENCODING 241
SWIDTH 568 0
DWIDTH 30 0
BBX 24 39 3 0
BITMAP
01F078
03FC78
07FFF8
07FFF0
0FFFF0
0F9FE0
0F07C0
000000
000000
000000
000000
F83FC0
FCFFF0
FDFFF8
FFFFFC
FFFFFE
FFC1FE
FF80FE
FE007F
FE007F
FE007F
FE007F
FE007F
FE007F
FE007F
FE007F
FE007F
FE007F
FE007F
FE007F
FE007F
FE007F
FE007F
FE007F
FE007F
FE007F
FE007F
FE007F
FE007F
ENDCHAR
STARTCHAR 00F2
ENCODING 242
SWIDTH 568 0
DWIDTH 30 0
BBX 27 39 2 0
BITMAP
07F80000
01FC0000
01FC0000
00FE0000
007F0000
003F0000
001F8000
000FC000
00000000
00000000
00000000
007F8000
01FFF000
07FFFC00
0FFFFE00
1FFFFF00
3FE0FF00
7F803F80
7F003F80
7E001FC0
FE001FC0
FE000FC0
FE000FE0
FE000FE0
FE000FE0
FE000FE0
FE000FE0
FE000FE0
FE000FC0
FE001FC0
7E001FC0
7F003F80
7F803F80
3FC0FF00
1FFFFF00
0FFFFE00
07FFFC00
01FFF000
007F8000
ENDCHAR
STARTCHAR 00F3
ENCODING 243
SWIDTH 568 0
DWIDTH 30 0
BBX 27 39 2 0
BITMAP
0001FE00
0003F800
0007F000
0007F000
000FE000
000FC000
001F8000
003F0000
00000000
00000000
00000000
007F8000
01FFF000
07FFFC00
0FFFFE00
1FFFFF00
3FE0FF00
7F803F80
7F003F80
7E001FC0
FE001FC0
FE000FC0
FE000FE0
FE000FE0
FE000FE0
FE000FE0
FE000FE0
FE000FE0
FE000FC0
FE001FC0
7E001FC0
7F003F80
7F803F80
3FC0FF00
1FFFFF00
0FFFFE00
07FFFC00
01FFF000
007F8000
ENDCHAR
STARTCHAR 00F4
ENCODING 244
SWIDTH 568 0
DWIDTH 30 0
BBX 27 39 2 0
BITMAP
003F8000
007FC000
00FFE000
00FFF000
01F9F000
03F0F800
07E07C00
08000200
00000000
00000000
00000000
007F8000
01FFF000
07FFFC00
0FFFFE00
1FFFFF00
3FE0FF00
7F803F80
7F003F80
7E001FC0
FE001FC0
FE000FC0
FE000FE0
FE000FE0
FE000FE0
FE000FE0
FE000FE0
FE000FE0
FE000FC0
FE001FC0
7E001FC0
7F003F80
7F803F80
3FC0FF00
1FFFFF00
0FFFFE00
07FFFC00
01FFF000
007F8000
ENDCHAR
STARTCHAR 00F5
ENCODING 245
SWIDTH 568 0
DWIDTH 30 0
BBX 27 39 2 0
BITMAP
00F83C00
01FE3C00
03FFFC00
03FFF800
07FFF800
07CFF000
0783E000
00000000
00000000
00000000
00000000
007F8000
01FFF000
07FFFC00
0FFFFE00
1FFFFF00
3FE0FF00
7F803F80
7F003F80
7E001FC0
FE001FC0
FE000FC0
FE000FE0
FE000FE0
FE000FE0
FE000FE0
FE000FE0
FE000FE0
FE000FC0
FE001FC0
7E001FC0
7F003F80
7F803F80
3FC0FF00
1FFFFF00
0FFFFE00
07FFFC00
01FFF000
007F8000
ENDCHAR
STARTCHAR 00F6
ENCODING 246
SWIDTH 568 0
DWIDTH 30 0
BBX 27 39 2 0
BITMAP
03C07800
07E0FC00
07F1FC00
07F1FE00
07F1FC00
07E0FC00
03C07800
00000000
00000000
00000000
00000000
007F8000
01FFF000
07FFFC00
0FFFFE00
1FFFFF00
3FE0FF00
7F803F80
7F003F80
7E001FC0
FE001FC0
FE000FC0
FE000FE0
FE000FE0
FE000FE0
FE000FE0
FE000FE0
FE000FE0
FE000FC0
FE001FC0
7E001FC0
7F003F80
7F803F80
3FC0FF00
1FFFFF00
0FFFFE00
07FFFC00
01FFF000
007F8000
ENDCHAR
STARTCHAR 00F7
ENCODING 247
SWIDTH 587 0
DWIDTH 31 0
BBX 26 27 2 4
BITMAP
001E0000
003F0000
003F8000
007F8000
007F8000
003F8000
003F8000
001E0000
00000000
00000000
00000000
FFFFFFC0
FFFFFFC0
FFFFFFC0
FFFFFFC0
FFFFFFC0
00000000
00000000
00000000
001E0000
003F0000
003F8000
007F8000
007F8000
003F8000
003F8000
001E0000
ENDCHAR
STARTCHAR 00F8
ENCODING 248
SWIDTH 568 0
DWIDTH 30 0
BBX 29 32 1 -1
BITMAP
00000078
000001F0
000003E0
003FC3E0
00FFFFC0
03FFFF80
07FFFF00
0FFFFF80
1FF07F80
3FC07FC0
3F807FE0
3F00FFE0
7F01F7E0
7E03F7E0
7E03E7F0
7E07C7F0
7E0F87F0
7E1F07F0
7E1F07F0
7E3E07E0
7E7C07E0
7FF807E0
3FF80FE0
3FF00FC0
1FE01FC0
1FE07F80
0FFFFF80
0FFFFF00
1FFFFE00
1FFFF800
3E3FC000
FC000000
ENDCHAR
STARTCHAR 00F9
ENCODING 249
SWIDTH 568 0
DWIDTH 30 0
BBX 24 39 3 0
BITMAP
1FE000
07F000
07F000
03F800
01FC00
00FC00
007E00
003F00
000000
000000
000000
FE007F
FE007F
FE007F
FE007F
FE007F
FE007F
FE007F
FE007F
FE007F
FE007F
FE007F
FE007F
FE007F
FE007F
FE007F
FE007F
FE007F
FE007F
FE007F
FE007F
FE007F
FF01FF
7F83FF
7FFFFF
3FFFFF
1FFF3F
0FFE3F
03F83F
ENDCHAR
STARTCHAR 00FA
ENCODING 250
SWIDTH 568 0
DWIDTH 30 0
BBX 24 39 3 0
BITMAP
0007F8
000FE0
001FC0
001FC0
003F80
003F00
007E00
00FC00
000000
000000
000000
FE007F
FE007F
FE007F
FE007F
FE007F
FE007F
FE007F
FE007F
FE007F
FE007F
FE007F
FE007F
FE007F
FE007F
FE007F
FE007F
FE007F
FE007F
FE007F
FE007F
FE007F
FF01FF
7F83FF
7FFFFF
3FFFFF
1FFF3F
0FFE3F
03F83F
ENDCHAR
STARTCHAR 00FB
ENCODING 251
SWIDTH 568 0
DWIDTH 30 0
BBX 24 39 3 0
BITMAP
00FE00
01FF00
03FF80
03FFC0
07E7C0
0FC3E0
1F81F0
200008
000000
000000
000000
FE007F
FE007F
FE007F
FE007F
FE007F
FE007F
FE007F
FE007F
FE007F
FE007F
FE007F
FE007F
FE007F
FE007F
FE007F
FE007F
FE007F
FE007F
FE007F
FE007F
FE007F
FF01FF
7F83FF
7FFFFF
3FFFFF
1FFF3F
0FFE3F
03F83F
ENDCHAR
STARTCHAR 00FC
ENCODING 252
SWIDTH 568 0
DWIDTH 30 0
BBX 24 39 3 0
BITMAP
0F01E0
1F83F0
1FC7F0
1FC7F8
1FC7F0
1F83F0
0F01E0
000000
000000
000000
000000
FE007F
FE007F
FE007F
FE007F
FE007F
FE007F
FE007F
FE007F
FE007F
FE007F
FE007F
FE007F
FE007F
FE007F
FE007F
FE007F
FE007F
FE007F
FE007F
FE007F
FE007F
FF01FF
7F83FF
7FFFFF
3FFFFF
1FFF3F
0FFE3F
03F83F
ENDCHAR
STARTCHAR 00FD
ENCODING 253
SWIDTH 530 0
DWIDTH 28 0
BBX 28 48 0 -9
BITMAP
0000FF00
0001FC00
0003F800
0003F800
0007F000
0007E000
000FC000
001F8000
00000000
00000000
00000000
FE0007F0
7F0007E0
7F000FE0
3F800FE0
3F800FC0
3F801FC0
1FC01F80
1FC01F80
0FE03F00
0FE03F00
07E07F00
07F07E00
07F07E00
03F8FC00
03F8FC00
01F8FC00
01FDF800
00FDF800
00FDF000
00FFF000
007FE000
007FE000
003FE000
003FC000
001FC000
001F8000
001F8000
003F8000
003F0000
003F0000
007E0000
007E0000
00FC0000
00FC0000
01FC0000
01F80000
03F00000
ENDCHAR
STARTCHAR 00FE
ENCODING 254
SWIDTH 568 0
DWIDTH 30 0
BBX 25 49 3 -9
BITMAP
FE000000
FE000000
FE000000
FE000000
FE000000
FE000000
FE000000
FE000000
FE000000
FE000000
FE000000
FE000000
FE0FC000
FE3FF000
FEFFF800
FFFFFC00
FFFFFE00
FFC1FF00
FF807F00
FF007F00
FE003F80
FE003F80
FE003F80
FE003F80
FE003F80
FE003F80
FE003F80
FE003F80
FE003F80
FE003F80
FE003F80
FE007F00
FE007F00
FF00FF00
FF81FE00
FFFFFC00
FFFFFC00
FFFFF800
FEFFE000
FE3F8000
FE000000
FE000000
FE000000
FE000000
FE000000
FE000000
FE000000
FE000000
FE000000
ENDCHAR
STARTCHAR 00FF
ENCODING 255
SWIDTH 530 0
DWIDTH 28 0
BBX 28 48 0 -9
BITMAP
01E03C00
03F07E00
03F8FE00
03F8FF00
03F8FE00
03F07E00
01E03C00
00000000
00000000
00000000
00000000
FE0007F0
7F0007E0
7F000FE0
3F800FE0
3F800FC0
3F801FC0
1FC01F80
1FC01F80
0FE03F00
0FE03F00
07E07F00
07F07E00
07F07E00
03F8FC00
03F8FC00
01F8FC00
01FDF800
00FDF800
00FDF000
00FFF000
007FE000
007FE000
003FE000
003FC000
001FC000
001F8000
001F8000
003F8000
003F0000
003F0000
007E0000
007E0000
00FC0000
00FC0000
01FC0000
01F80000
03F00000
ENDCHAR
STARTCHAR 0100
ENCODING 256
SWIDTH 701 0
DWIDTH 37 0
BBX 37 46 0 0
BITMAP
001FFFE000
001FFFE000
001FFFE000
001FFFE000
0000000000
0000000000
0000000000
0001FC0000
0003FE0000
0003FE0000
0007FE0000
0007FF0000
0007FF0000
000FFF8000
000FDF8000
001FDF8000
001FDFC000
001F8FC000
003F8FC000
003F8FE000
003F07E000
007F07F000
007E07F000
00FE03F000
00FE03F800
00FC03F800
01FC01FC00
01FC01FC00
03F800FC00
03F800FE00
03F800FE00
07FFFFFE00
07FFFFFF00
07FFFFFF00
0FFFFFFF80
0FFFFFFF80
1FC0001F80
1FC0001FC0
1FC0001FC0
3F80000FE0
3F80000FE0
7F80000FE0
7F000007F0
7F000007F0
FF000007F8
FE000003F8
ENDCHAR
STARTCHAR 0101
ENCODING 257
SWIDTH 511 0
DWIDTH 27 0
BBX 23 37 1 0
BITMAP
07FFF8
07FFF8
07FFF8
07FFF8
000000
000000
000000
000000
000000
007F00
03FFC0
0FFFF0
3FFFF8
3FFFF8
3F83FC
1E00FC
0000FE
0000FE
00007E
00007E
00007E
003FFE
01FFFE
0FFFFE
1FFFFE
3FE07E
7F007E
7E007E
FE007E
FE00FE
FE01FE
FF07FE
7FFFFE
7FFFFE
3FFE3E
1FFC3E
07F03E
ENDCHAR
STARTCHAR 0102
ENCODING 258
SWIDTH 701 0
DWIDTH 37 0
BBX 37 50 0 0
BITMAP
003E03E000
003E03E000
003E03E000
003F07E000
001FFFC000
001FFFC000
0007FF0000
0001FC0000
0000000000
0000000000
0000000000
0001FC0000
0003FE0000
0003FE0000
0007FE0000
0007FF0000
0007FF0000
000FFF8000
000FDF8000
001FDF8000
001FDFC000
001F8FC000
003F8FC000
003F8FE000
003F07E000
007F07F000
007E07F000
00FE03F000
00FE03F800
00FC03F800
01FC01FC00
01FC01FC00
03F800FC00
03F800FE00
03F800FE00
07FFFFFE00
07FFFFFF00
07FFFFFF00
0FFFFFFF80
0FFFFFFF80
1FC0001F80
1FC0001FC0
1FC0001FC0
3F80000FE0
3F80000FE0
7F80000FE0
7F000007F0
7F000007F0
FF000007F8
FE000003F8
ENDCHAR
STARTCHAR 0103
ENCODING 259
SWIDTH 511 0
DWIDTH 27 0
BBX 23 39 1 0
BITMAP
0780F8
0780F8
07C0F0
07C1F0
03FFF0
03FFE0
01FFC0
007F00
000000
000000
000000
007F00
03FFC0
0FFFF0
3FFFF8
3FFFF8
3F83FC
1E00FC
0000FE
0000FE
00007E
00007E
00007E
003FFE
01FFFE
0FFFFE
1FFFFE
3FE07E
7F007E
7E007E
FE007E
FE00FE
FE01FE
FF07FE
7FFFFE
7FFFFE
3FFE3E
1FFC3E
07F03E
ENDCHAR
STARTCHAR 0104
ENCODING 260
SWIDTH 701 0
DWIDTH 37 0
BBX 38 48 0 -9
BITMAP
0001FC0000
0003FE0000
0003FE0000
0007FE0000
0007FF0000
0007FF0000
000FFF8000
000FDF8000
001FDF8000
001FDFC000
001F9FC000
003F8FC000
003F0FE000
007F07E000
007F07F000
007E07F000
00FE03F000
00FE03F800
00FC03F800
01FC01FC00
01FC01FC00
03F800FC00
03F800FE00
03F000FE00
07FFFFFE00
07FFFFFF00
0FFFFFFF00
0FFFFFFF80
0FFFFFFF80
1FC0003F80
1FC0001FC0
1FC0001FC0
3F80000FE0
3F80000FE0
7F80000FE0
7F000007F0
7F000007F0
FE000007F0
FE000003F8
00000001E0
00000003C0
0000000780
0000000F80
0000000F80
0000000FFC
0000000FFC
00000007FC
00000003F0
ENDCHAR
STARTCHAR 0105
ENCODING 261
SWIDTH 511 0
DWIDTH 27 0
BBX 26 37 1 -9
BITMAP
007F0000
03FFE000
0FFFF000
3FFFF800
3FFFF800
3F83FC00
1E00FC00
0000FE00
0000FE00
00007E00
00007E00
00007E00
003FFE00
01FFFE00
0FFFFE00
1FFFFE00
3FE07E00
7F007E00
7E007E00
FE007E00
FE00FE00
FE01FE00
FF07FE00
7FFFFE00
7FFFFE00
3FFE3E00
1FFC3E00
07F01E00
00003C00
00007800
0000F000
0000F000
0001F800
0001FF80
0000FF80
0000FFC0
00003F00
ENDCHAR
STARTCHAR 0106
ENCODING 262
SWIDTH 663 0
DWIDTH 35 0
BBX 32 51 2 0
BITMAP
000003FC
00000FF8
00001FF0
00001FE0
00003FC0
00007F80
0000FF00
0000FC00
0001F800
00000000
00000000
00000000
0003FF00
001FFFE0
007FFFF8
00FFFFFC
03FFFFFE
07FFFFFF
0FFE01FE
0FF8007C
1FF00018
3FE00000
3FC00000
7F800000
7F800000
7F000000
7F000000
FF000000
FF000000
FE000000
FE000000
FE000000
FE000000
FE000000
FF000000
FF000000
7F000000
7F000000
7F800000
7F800000
3FC00000
3FE00000
1FF0001C
1FF8003E
0FFE01FF
07FFFFFF
03FFFFFE
01FFFFFC
007FFFF8
001FFFE0
0003FE00
ENDCHAR
STARTCHAR 0107
ENCODING 263
SWIDTH 492 0
DWIDTH 26 0
BBX 23 39 2 0
BITMAP
0003FC
0007F0
000FE0
000FE0
001FC0
001F80
003F00
007E00
000000
000000
000000
007F80
03FFE0
07FFF8
0FFFFC
1FFFFC
3FE0F8
7F8030
7F0000
7F0000
FE0000
FE0000
FE0000
FE0000
FC0000
FC0000
FE0000
FE0000
FE0000
FE0000
7F0000
7F0000
7F8038
3FE0FC
1FFFFE
0FFFFC
07FFF8
03FFE0
007F00
ENDCHAR
STARTCHAR 0108
ENCODING 264
SWIDTH 663 0
DWIDTH 35 0
BBX 32 50 2 0
BITMAP
00007E00
0000FF00
0001FF00
0003FF80
0007EFC0
000FC7E0
000F83F0
003F81F8
00000000
00000000
00000000
0003FF00
001FFFE0
007FFFF8
00FFFFFC
03FFFFFE
07FFFFFF
0FFE01FE
0FF8007C
1FF00018
3FE00000
3FC00000
7F800000
7F800000
7F000000
7F000000
FF000000
FF000000
FE000000
FE000000
FE000000
FE000000
FE000000
FF000000
FF000000
7F000000
7F000000
7F800000
7F800000
3FC00000
3FE00000
1FF0001C
1FF8003E
0FFE01FF
07FFFFFF
03FFFFFE
01FFFFFC
007FFFF8
001FFFE0
0003FE00
ENDCHAR
STARTCHAR 0109
ENCODING 265
SWIDTH 492 0
DWIDTH 26 0
BBX 23 39 2 0
BITMAP
007F00
00FF80
01FFC0
01FFE0
03F3E0
07E1F0
0FC0F8
100004
000000
000000
000000
007F80
03FFE0
07FFF8
0FFFFC
1FFFFC
3FE0F8
7F8030
7F0000
7F0000
FE0000
FE0000
FE0000
FE0000
FC0000
FC0000
FE0000
FE0000
FE0000
FE0000
7F0000
7F0000
7F8038
3FE0FC
1FFFFE
0FFFFC
07FFF8
03FFE0
007F00
ENDCHAR
STARTCHAR 010A
ENCODING 266
SWIDTH 663 0
DWIDTH 35 0
BBX 32 50 2 0
BITMAP
00003800
0000FE00
0000FE00
0000FF00
0000FF00
0000FE00
0000FE00
00003800
00000000
00000000
00000000
0003FF00
001FFFE0
007FFFF8
00FFFFFC
03FFFFFE
07FFFFFF
0FFE01FE
0FF8007C
1FF00018
3FE00000
3FC00000
7F800000
7F800000
7F000000
7F000000
FF000000
FF000000
FE000000
FE000000
FE000000
FE000000
FE000000
FF000000
FF000000
7F000000
7F000000
7F800000
7F800000
3FC00000
3FE00000
1FF0001C
1FF8003E
0FFE01FF
07FFFFFF
03FFFFFE
01FFFFFC
007FFFF8
001FFFE0
0003FE00
ENDCHAR
STARTCHAR 010B
ENCODING 267
SWIDTH 492 0
DWIDTH 26 0
BBX 23 40 2 0
BITMAP
001E00
007F00
007F00
00FF80
00FF80
007F80
007F00
001E00
000000
000000
000000
000000
007F80
03FFE0
07FFF8
0FFFFC
1FFFFC
3FE0F8
7F8030
7F0000
7F0000
FE0000
FE0000
FE0000
FE0000
FC0000
FC0000
FE0000
FE0000
FE0000
FE0000
7F0000
7F0000
7F8038
3FE0FC
1FFFFE
0FFFFC
07FFF8
03FFE0
007F00
ENDCHAR
STARTCHAR 010C
ENCODING 268
SWIDTH 663 0
DWIDTH 35 0
BBX 32 50 2 0
BITMAP
003E00F8
001F83F0
000FC7E0
0007E7E0
0003EFC0
0003FF80
0001FF00
0000FE00
00000000
00000000
00000000
0003FF00
001FFFE0
007FFFF8
00FFFFFC
03FFFFFE
07FFFFFF
0FFE01FE
0FF8007C
1FF00018
3FE00000
3FC00000
7F800000
7F800000
7F000000
7F000000
FF000000
FF000000
FE000000
FE000000
FE000000
FE000000
FE000000
FF000000
FF000000
7F000000
7F000000
7F800000
7F800000
3FC00000
3FE00000
1FF0001C
1FF8003E
0FFE01FF
07FFFFFF
03FFFFFE
01FFFFFC
007FFFF8
001FFFE0
0003FE00
ENDCHAR
STARTCHAR 010D
ENCODING 269
SWIDTH 492 0
DWIDTH 26 0
BBX 23 39 2 0
BITMAP
1F80FC
07C1F8
07E3F0
03F7E0
01FFC0
00FF80
007F00
000000
000000
000000
000000
007F80
03FFE0
07FFF8
0FFFFC
1FFFFC
3FE0F8
7F8030
7F0000
7F0000
FE0000
FE0000
FE0000
FE0000
FC0000
FC0000
FE0000
FE0000
FE0000
FE0000
7F0000
7F0000
7F8038
3FE0FC
1FFFFE
0FFFFC
07FFF8
03FFE0
007F00
ENDCHAR
STARTCHAR 010E
ENCODING 270
SWIDTH 757 0
DWIDTH 40 0
BBX 34 50 4 0
BITMAP
0F803E0000
07E0FC0000
03F1F80000
01F9F80000
00FBF00000
00FFE00000
007FC00000
003F800000
0000000000
0000000000
0000000000
FFFFF00000
FFFFFE0000
FFFFFF8000
FFFFFFE000
FFFFFFF000
FFFFFFF800
FE001FFC00
FE0007FE00
FE0001FE00
FE0000FF00
FE0000FF00
FE00007F80
FE00003F80
FE00003FC0
FE00003FC0
FE00001FC0
FE00001FC0
FE00001FC0
FE00001FC0
FE00001FC0
FE00001FC0
FE00001FC0
FE00001FC0
FE00001FC0
FE00003FC0
FE00003FC0
FE00003F80
FE00007F80
FE0000FF00
FE0000FF00
FE0001FE00
FE0007FE00
FE001FFC00
FFFFFFF800
FFFFFFF000
FFFFFFE000
FFFFFF8000
FFFFFE0000
FFFFF00000
ENDCHAR
STARTCHAR 010F
ENCODING 271
SWIDTH 568 0
DWIDTH 30 0
BBX 34 40 2 0
BITMAP
00003F87C0
00003F87C0
00003F8FC0
00003F8FC0
00003F8F80
00003F8F80
00003F8F00
00003F8F00
00003F9E00
00003F8000
00003F8000
00003F8000
00FE3F8000
03FFBF8000
07FFFF8000
1FFFFF8000
1FFFFF8000
3FE0FF8000
7F807F8000
7F003F8000
7F003F8000
FE003F8000
FE003F8000
FE003F8000
FE003F8000
FE003F8000
FE003F8000
FE003F8000
FE003F8000
FE003F8000
FE003F8000
FE003F8000
7F003F8000
7F007F8000
7FC1FF8000
3FFFFF8000
1FFFDF8000
0FFF9F8000
07FF1F8000
01F80F8000
ENDCHAR
STARTCHAR 0110
ENCODING 272
SWIDTH 776 0
DWIDTH 41 0
BBX 39 39 0 0
BITMAP
07FFFF0000
07FFFFE000
07FFFFF800
07FFFFFE00
07FFFFFF00
07FFFFFF80
07F001FFC0
07F0003FE0
07F0001FF0
07F0000FF0
07F00007F8
07F00003F8
07F00003FC
07F00003FC
07F00001FC
07F00001FC
07F00001FE
FFFFE001FE
FFFFE001FE
FFFFE001FE
FFFFE001FE
07F00001FE
07F00001FE
07F00001FC
07F00001FC
07F00003FC
07F00003FC
07F00003F8
07F00007F8
07F0000FF0
07F0001FF0
07F0003FE0
07F001FFC0
07FFFFFFC0
07FFFFFF00
07FFFFFE00
07FFFFFC00
07FFFFF000
07FFFF0000
ENDCHAR
STARTCHAR 0111
ENCODING 273
SWIDTH 568 0
DWIDTH 30 0
BBX 29 40 2 0
BITMAP
00003F80
00003F80
00003F80
00003F80
00003F80
000FFFF8
000FFFF8
000FFFF8
000FFFF8
00003F80
00003F80
00003F80
00FE3F80
03FFBF80
0FFFFF80
1FFFFF80
1FFFFF80
3FC0FF80
7F807F80
7F003F80
7F003F80
FE003F80
FE003F80
FE003F80
FE003F80
FE003F80
FE003F80
FE003F80
FE003F80
FE003F80
FE003F80
FE003F80
7F003F80
7F00FF80
7FC1FF80
3FFFFF80
1FFFDF80
0FFF9F80
07FF1F80
01F80F80
ENDCHAR
STARTCHAR 0112
ENCODING 274
SWIDTH 568 0
DWIDTH 30 0
BBX 24 46 4 0
BITMAP
07FFF8
07FFF8
07FFF8
07FFF8
000000
000000
000000
FFFFFF
FFFFFF
FFFFFF
FFFFFF
FFFFFF
FFFFFF
FE0000
FE0000
FE0000
FE0000
FE0000
FE0000
FE0000
FE0000
FE0000
FE0000
FE0000
FFFFF8
FFFFF8
FFFFF8
FFFFF8
FFFFF8
FE0000
FE0000
FE0000
FE0000
FE0000
FE0000
FE0000
FE0000
FE0000
FE0000
FE0000
FFFFFF
FFFFFF
FFFFFF
FFFFFF
FFFFFF
FFFFFF
ENDCHAR
STARTCHAR 0113
ENCODING 275
SWIDTH 530 0
DWIDTH 28 0
BBX 25 37 2 0
BITMAP
07FFF800
07FFF800
07FFF800
07FFF800
00000000
00000000
00000000
00000000
00000000
007F0000
03FFE000
07FFF000
0FFFFC00
1FFFFC00
3FC0FE00
7F807E00
7F003F00
7E003F00
FE001F00
FC001F80
FFFFFF80
FFFFFF80
FFFFFF80
FFFFFF00
FC000000
FC000000
FE000000
FE000000
7E000000
7F000000
3F801E00
3FE07E00
1FFFFF00
0FFFFF00
07FFFC00
01FFF800
007FC000
ENDCHAR
STARTCHAR 0114
ENCODING 276
SWIDTH 568 0
DWIDTH 30 0
BBX 24 50 4 0
BITMAP
0F80F8
0F80F8
0F80F8
0FC1F8
07FFF0
07FFF0
01FFC0
007F00
000000
000000
000000
FFFFFF
FFFFFF
FFFFFF
FFFFFF
FFFFFF
FFFFFF
FE0000
FE0000
FE0000
FE0000
FE0000
FE0000
FE0000
FE0000
FE0000
FE0000
FE0000
FFFFF8
FFFFF8
FFFFF8
FFFFF8
FFFFF8
FE0000
FE0000
FE0000
FE0000
FE0000
FE0000
FE0000
FE0000
FE0000
FE0000
FE0000
FFFFFF
FFFFFF
FFFFFF
FFFFFF
FFFFFF
FFFFFF
ENDCHAR
STARTCHAR 0115
ENCODING 277
SWIDTH 530 0
DWIDTH 28 0
BBX 25 39 2 0
BITMAP
0780F800
0780F800
07C0F000
07C1F000
03FFF000
03FFE000
01FFC000
007F0000
00000000
00000000
00000000
007F0000
03FFE000
07FFF000
0FFFFC00
1FFFFC00
3FC0FE00
7F807E00
7F003F00
7E003F00
FE001F00
FC001F80
FFFFFF80
FFFFFF80
FFFFFF80
FFFFFF00
FC000000
FC000000
FE000000
FE000000
7E000000
7F000000
3F801E00
3FE07E00
1FFFFF00
0FFFFF00
07FFFC00
01FFF800
007FC000
ENDCHAR
STARTCHAR 0116
ENCODING 278
SWIDTH 568 0
DWIDTH 30 0
BBX 24 50 4 0
BITMAP
001C00
007F00
007F00
007F80
007F80
007F00
007F00
001C00
000000
000000
000000
FFFFFF
FFFFFF
FFFFFF
FFFFFF
FFFFFF
FFFFFF
FE0000
FE0000
FE0000
FE0000
FE0000
FE0000
FE0000
FE0000
FE0000
FE0000
FE0000
FFFFF8
FFFFF8
FFFFF8
FFFFF8
FFFFF8
FE0000
FE0000
FE0000
FE0000
FE0000
FE0000
FE0000
FE0000
FE0000
FE0000
FE0000
FFFFFF
FFFFFF
FFFFFF
FFFFFF
FFFFFF
FFFFFF
ENDCHAR
STARTCHAR 0117
ENCODING 279
SWIDTH 530 0
DWIDTH 28 0
BBX 25 40 2 0
BITMAP
001E0000
007F0000
007F0000
00FF8000
00FF8000
007F8000
007F0000
001E0000
00000000
00000000
00000000
00000000
007F0000
03FFE000
07FFF000
0FFFFC00
1FFFFC00
3FC0FE00
7F807E00
7F003F00
7E003F00
FE001F00
FC001F80
FFFFFF80
FFFFFF80
FFFFFF80
FFFFFF00
FC000000
FC000000
FE000000
FE000000
7E000000
7F000000
3F801E00
3FE07E00
1FFFFF00
0FFFFF00
07FFFC00
01FFF800
007FC000
ENDCHAR
STARTCHAR 0118
ENCODING 280
SWIDTH 568 0
DWIDTH 30 0
BBX 25 48 4 -9
BITMAP
FFFFFF00
FFFFFF00
FFFFFF00
FFFFFF00
FFFFFF00
FFFFFF00
FE000000
FE000000
FE000000
FE000000
FE000000
FE000000
FE000000
FE000000
FE000000
FE000000
FE000000
FFFFF800
FFFFF800
FFFFF800
FFFFF800
FFFFF800
FE000000
FE000000
FE000000
FE000000
FE000000
FE000000
FE000000
FE000000
FE000000
FE000000
FE000000
FFFFFF00
FFFFFF00
FFFFFF00
FFFFFF00
FFFFFF00
FFFFFF00
00007800
0000F000
0001E000
0001E000
0003F000
0003FF00
0001FF00
0001FF80
00007E00
ENDCHAR
STARTCHAR 0119
ENCODING 281
SWIDTH 530 0
DWIDTH 28 0
BBX 25 37 2 -9
BITMAP
007F0000
03FFE000
07FFF000
0FFFFC00
1FFFFC00
3FC0FE00
7F807E00
7F003F00
7E003F00
FE001F00
FC001F80
FFFFFF80
FFFFFF80
FFFFFF80
FFFFFF00
FC000000
FC000000
FE000000
FE000000
7E000000
7F000000
7F801E00
3FE07E00
1FFFFF00
0FFFFF00
07FFFC00
03FFF800
007FC000
001E0000
003C0000
003C0000
007C0000
007C0000
007FC000
007FE000
003FE000
001F8000
ENDCHAR
STARTCHAR 011A
ENCODING 282
SWIDTH 568 0
DWIDTH 30 0
BBX 24 50 4 0
BITMAP
1F007C
0FC1F8
07E3F0
03F3F0
01F7E0
01FFC0
00FF80
007F00
000000
000000
000000
FFFFFF
FFFFFF
FFFFFF
FFFFFF
FFFFFF
FFFFFF
FE0000
FE0000
FE0000
FE0000
FE0000
FE0000
FE0000
FE0000
FE0000
FE0000
FE0000
FFFFF8
FFFFF8
FFFFF8
FFFFF8
FFFFF8
FE0000
FE0000
FE0000
FE0000
FE0000
FE0000
FE0000
FE0000
FE0000
FE0000
FE0000
FFFFFF
FFFFFF
FFFFFF
FFFFFF
FFFFFF
FFFFFF
ENDCHAR
STARTCHAR 011B
ENCODING 283
SWIDTH 530 0
DWIDTH 28 0
BBX 25 39 2 0
BITMAP
1F80FC00
07C1F800
07E3F000
03F7E000
01FFC000
00FF8000
007F0000
00000000
00000000
00000000
00000000
007F0000
03FFE000
07FFF000
0FFFFC00
1FFFFC00
3FC0FE00
7F807E00
7F003F00
7E003F00
FE001F00
FC001F80
FFFFFF80
FFFFFF80
FFFFFF80
FFFFFF00
FC000000
FC000000
FE000000
FE000000
7E000000
7F000000
3F801E00
3FE07E00
1FFFFF00
0FFFFF00
07FFFC00
01FFF800
007FC000
ENDCHAR
STARTCHAR 011C
ENCODING 284
SWIDTH 720 0
DWIDTH 38 0
BBX 34 50 2 0
BITMAP
00007E0000
0000FF0000
0001FF0000
0003FF8000
0007EFC000
000FC7E000
000F83F000
003F81F800
0000000000
0000000000
0000000000
0001FF8000
001FFFF000
007FFFFC00
00FFFFFF00
03FFFFFF80
07FFFFFFC0
0FFF00FF80
0FF8001F00
1FF0000F00
3FE0000000
3FC0000000
7F80000000
7F80000000
7F00000000
7F00000000
FF00000000
FF00000000
FE00000000
FE00000000
FE0007FFC0
FE0007FFC0
FE0007FFC0
FE0007FFC0
FF0007FFC0
7F00001FC0
7F00001FC0
7F00001FC0
7F80001FC0
3F80001FC0
3FC0001FC0
1FE0001FC0
0FF0001FC0
07FC001FC0
03FF00FFC0
01FFFFFFC0
00FFFFFFC0
003FFFFF00
000FFFFC00
0001FFC000
ENDCHAR
STARTCHAR 011D
ENCODING 285
SWIDTH 530 0
DWIDTH 28 0
BBX 26 49 1 -10
BITMAP
007F0000
00FF8000
01FFC000
01FFE000
03F3E000
07E1F000
0FC0F800
10000400
00000000
00000000
00000000
00FF0000
03FFC000
0FFFFFC0
1FFFFFC0
1FFFFFC0
3FC1FF80
3F00FC00
7F007E00
7E007E00
7E007E00
7E007E00
3F007E00
3F00FC00
1FC1FC00
1FFFF800
0FFFF000
03FFC000
0FFF0000
1F000000
1F000000
3F000000
3F800000
3FFFE000
1FFFFE00
1FFFFF00
0FFFFF80
1FFFFF80
3E003FC0
7C001FC0
FC000FC0
FC001F80
FE001F80
7F007F80
7FFFFF00
3FFFFE00
1FFFFC00
0FFFF000
00FF8000
ENDCHAR
STARTCHAR 011E
ENCODING 286
SWIDTH 720 0
DWIDTH 38 0
BBX 34 50 2 0
BITMAP
001F01F000
001F01F000
001F01F000
001F83F000
000FFFE000
000FFFE000
0003FF8000
0000FE0000
0000000000
0000000000
0000000000
0001FF8000
001FFFF000
007FFFFC00
00FFFFFF00
03FFFFFF80
07FFFFFFC0
0FFF00FF80
0FF8001F00
1FF0000F00
3FE0000000
3FC0000000
7F80000000
7F80000000
7F00000000
7F00000000
FF00000000
FF00000000
FE00000000
FE00000000
FE0007FFC0
FE0007FFC0
FE0007FFC0
FE0007FFC0
FF0007FFC0
7F00001FC0
7F00001FC0
7F00001FC0
7F80001FC0
3F80001FC0
3FC0001FC0
1FE0001FC0
0FF0001FC0
07FC001FC0
03FF00FFC0
01FFFFFFC0
00FFFFFFC0
003FFFFF00
000FFFFC00
0001FFC000
ENDCHAR
STARTCHAR 011F
ENCODING 287
SWIDTH 530 0
DWIDTH 28 0
BBX 26 49 1 -10
BITMAP
0780F800
0780F800
07C0F000
07C1F000
03FFF000
03FFE000
01FFC000
007F0000
00000000
00000000
00000000
00FF0000
03FFC000
0FFFFFC0
1FFFFFC0
1FFFFFC0
3FC1FF80
3F00FC00
7F007E00
7E007E00
7E007E00
7E007E00
3F007E00
3F00FC00
1FC1FC00
1FFFF800
0FFFF000
03FFC000
0FFF0000
1F000000
1F000000
3F000000
3F800000
3FFFE000
1FFFFE00
1FFFFF00
0FFFFF80
1FFFFF80
3E003FC0
7C001FC0
FC000FC0
FC001F80
FE001F80
7F007F80
7FFFFF00
3FFFFE00
1FFFFC00
0FFFF000
00FF8000
ENDCHAR
STARTCHAR 0120
ENCODING 288
SWIDTH 720 0
DWIDTH 38 0
BBX 34 50 2 0
BITMAP
0000380000
0000FE0000
0000FE0000
0000FF0000
0000FF0000
0000FE0000
0000FE0000
0000380000
0000000000
0000000000
0000000000
0001FF8000
001FFFF000
007FFFFC00
00FFFFFF00
03FFFFFF80
07FFFFFFC0
0FFF00FF80
0FF8001F00
1FF0000F00
3FE0000000
3FC0000000
7F80000000
7F80000000
7F00000000
7F00000000
FF00000000
FF00000000
FE00000000
FE00000000
FE0007FFC0
FE0007FFC0
FE0007FFC0
FE0007FFC0
FF0007FFC0
7F00001FC0
7F00001FC0
7F00001FC0
7F80001FC0
3F80001FC0
3FC0001FC0
1FE0001FC0
0FF0001FC0
07FC001FC0
03FF00FFC0
01FFFFFFC0
00FFFFFFC0
003FFFFF00
000FFFFC00
0001FFC000
ENDCHAR
STARTCHAR 0121
ENCODING 289
SWIDTH 530 0
DWIDTH 28 0
BBX 26 50 1 -10
BITMAP
001E0000
007F0000
007F0000
00FF8000
00FF8000
007F8000
007F0000
001E0000
00000000
00000000
00000000
00000000
00FF0000
03FFC000
0FFFFFC0
1FFFFFC0
1FFFFFC0
3FC1FF80
3F00FC00
7F007E00
7E007E00
7E007E00
7E007E00
3F007E00
3F00FC00
1FC1FC00
1FFFF800
0FFFF000
03FFC000
0FFF0000
1F000000
1F000000
3F000000
3F800000
3FFFE000
1FFFFE00
1FFFFF00
0FFFFF80
1FFFFF80
3E003FC0
7C001FC0
FC000FC0
FC001F80
FE001F80
7F007F80
7FFFFF00
3FFFFE00
1FFFFC00
0FFFF000
00FF8000
ENDCHAR
STARTCHAR 0122
ENCODING 290
SWIDTH 720 0
DWIDTH 38 0
BBX 34 49 2 -10
BITMAP
0001FF8000
001FFFF000
007FFFFC00
00FFFFFF00
03FFFFFF80
07FFFFFFC0
0FFF00FF80
0FF8001F00
1FF0000F00
3FE0000000
3FC0000000
7F80000000
7F80000000
7F00000000
7F00000000
FF00000000
FF00000000
FE00000000
FE00000000
FE0007FFC0
FE0007FFC0
FE0007FFC0
FE0007FFC0
FF0007FFC0
7F00001FC0
7F00001FC0
7F00001FC0
7F80001FC0
3F80001FC0
3FC0001FC0
1FE0001FC0
0FF0001FC0
07FC001FC0
03FF00FFC0
01FFFFFFC0
00FFFFFFC0
003FFFFF00
000FFFFC00
0001FFC000
0000000000
0000000000
0000F80000
0001F80000
0001F80000
0001F00000
0001F00000
0001F00000
0001E00000
0003C00000
ENDCHAR
STARTCHAR 0123
ENCODING 291
SWIDTH 530 0
DWIDTH 28 0
BBX 26 49 1 -10
BITMAP
000F8000
000F8000
000F0000
001F0000
001F0000
001F0000
003F0000
003E0000
00000000
00000000
00000000
00FF0000
03FFC000
0FFFFFC0
1FFFFFC0
1FFFFFC0
3FC1FF80
3F00FC00
7F007E00
7E007E00
7E007E00
7E007E00
3F007E00
3F00FC00
1FC1FC00
1FFFF800
0FFFF000
03FFC000
0FFF0000
1F000000
1F000000
3F000000
3F800000
3FFFE000
1FFFFE00
1FFFFF00
0FFFFF80
1FFFFF80
3E003FC0
7C001FC0
FC000FC0
FC001F80
FE001F80
7F007F80
7FFFFF00
3FFFFE00
1FFFFC00
0FFFF000
00FF8000
ENDCHAR
STARTCHAR 0124
ENCODING 292
SWIDTH 776 0
DWIDTH 41 0
BBX 33 50 4 0
BITMAP
0003F00000
0007F80000
000FF80000
001FFC0000
003F7E0000
007E3F0000
007C1F8000
01FC0FC000
0000000000
0000000000
0000000000
FE00007F80
FE00007F80
FE00007F80
FE00007F80
FE00007F80
FE00007F80
FE00007F80
FE00007F80
FE00007F80
FE00007F80
FE00007F80
FE00007F80
FE00007F80
FE00007F80
FE00007F80
FE00007F80
FE00007F80
FFFFFFFF80
FFFFFFFF80
FFFFFFFF80
FFFFFFFF80
FFFFFFFF80
FE00007F80
FE00007F80
FE00007F80
FE00007F80
FE00007F80
FE00007F80
FE00007F80
FE00007F80
FE00007F80
FE00007F80
FE00007F80
FE00007F80
FE00007F80
FE00007F80
FE00007F80
FE00007F80
FE00007F80
ENDCHAR
STARTCHAR 0125
ENCODING 293
SWIDTH 568 0
DWIDTH 30 0
BBX 30 50 -3 0
BITMAP
01F80000
03FC0000
07FC0000
0FFE0000
1FBF0000
3F1F8000
3E0FC000
FE07E000
00000000
00000000
03F80000
03F80000
03F80000
03F80000
03F80000
03F80000
03F80000
03F80000
03F80000
03F80000
03F80000
03F80000
03F87F00
03F9FFC0
03FBFFE0
03FFFFF0
03FFFFF8
03FF07F8
03FE03F8
03F801FC
03F801FC
03F801FC
03F801FC
03F801FC
03F801FC
03F801FC
03F801FC
03F801FC
03F801FC
03F801FC
03F801FC
03F801FC
03F801FC
03F801FC
03F801FC
03F801FC
03F801FC
03F801FC
03F801FC
03F801FC
ENDCHAR
STARTCHAR 0126
ENCODING 294
SWIDTH 776 0
DWIDTH 41 0
BBX 40 39 1 0
BITMAP
0FE00007F0
0FE00007F0
0FE00007F0
0FE00007F0
0FE00007F0
0FE00007F0
0FE00007F0
FFFFFFFFFF
FFFFFFFFFF
FFFFFFFFFF
FFFFFFFFFF
0FE00007F0
0FE00007F0
0FE00007F0
0FE00007F0
0FE00007F0
0FE00007F0
0FFFFFFFF0
0FFFFFFFF0
0FFFFFFFF0
0FFFFFFFF0
0FFFFFFFF0
0FE00007F0
0FE00007F0
0FE00007F0
0FE00007F0
0FE00007F0
0FE00007F0
0FE00007F0
0FE00007F0
0FE00007F0
0FE00007F0
0FE00007F0
0FE00007F0
0FE00007F0
0FE00007F0
0FE00007F0
0FE00007F0
0FE00007F0
ENDCHAR
STARTCHAR 0127
ENCODING 295
SWIDTH 568 0
DWIDTH 30 0
BBX 28 40 -1 0
BITMAP
0FE00000
0FE00000
0FE00000
0FE00000
0FE00000
FFFFC000
FFFFC000
FFFFC000
FFFFC000
0FE00000
0FE00000
0FE00000
0FE1FC00
0FE7FF00
0FEFFF80
0FFFFFC0
0FFFFFE0
0FFC1FE0
0FF80FE0
0FF007F0
0FE007F0
0FE007F0
0FE007F0
0FE007F0
0FE007F0
0FE007F0
0FE007F0
0FE007F0
0FE007F0
0FE007F0
0FE007F0
0FE007F0
0FE007F0
0FE007F0
0FE007F0
0FE007F0
0FE007F0
0FE007F0
0FE007F0
0FE007F0
ENDCHAR
STARTCHAR 0128
ENCODING 296
SWIDTH 303 0
DWIDTH 16 0
BBX 19 48 -2 0
BITMAP
0F81E0
3FE3E0
3FFFE0
7FFFE0
7FFFC0
F8FF80
F01F00
000000
000000
03F800
03F800
03F800
03F800
03F800
03F800
03F800
03F800
03F800
03F800
03F800
03F800
03F800
03F800
03F800
03F800
03F800
03F800
03F800
03F800
03F800
03F800
03F800
03F800
03F800
03F800
03F800
03F800
03F800
03F800
03F800
03F800
03F800
03F800
03F800
03F800
03F800
03F800
03F800
ENDCHAR
STARTCHAR 0129
ENCODING 297
SWIDTH 246 0
DWIDTH 13 0
BBX 17 39 -2 0
BITMAP
1F0780
3FC780
7FFF80
7FFF00
FFFF00
F9FE00
F07C00
000000
000000
000000
000000
07F000
07F000
07F000
07F000
07F000
07F000
07F000
07F000
07F000
07F000
07F000
07F000
07F000
07F000
07F000
07F000
07F000
07F000
07F000
07F000
07F000
07F000
07F000
07F000
07F000
07F000
07F000
07F000
ENDCHAR
STARTCHAR 012A
ENCODING 298
SWIDTH 303 0
DWIDTH 16 0
BBX 16 46 0 0
BITMAP
FFFF
FFFF
FFFF
FFFF
0000
0000
0000
0FE0
0FE0
0FE0
0FE0
0FE0
0FE0
0FE0
0FE0
0FE0
0FE0
0FE0
0FE0
0FE0
0FE0
0FE0
0FE0
0FE0
0FE0
0FE0
0FE0
0FE0
0FE0
0FE0
0FE0
0FE0
0FE0
0FE0
0FE0
0FE0
0FE0
0FE0
0FE0
0FE0
0FE0
0FE0
0FE0
0FE0
0FE0
0FE0
ENDCHAR
STARTCHAR 012B
ENCODING 299
SWIDTH 246 0
DWIDTH 13 0
BBX 16 37 -1 0
BITMAP
FFFF
FFFF
FFFF
FFFF
0000
0000
0000
0000
0000
0FE0
0FE0
0FE0
0FE0
0FE0
0FE0
0FE0
0FE0
0FE0
0FE0
0FE0
0FE0
0FE0
0FE0
0FE0
0FE0
0FE0
0FE0
0FE0
0FE0
0FE0
0FE0
0FE0
0FE0
0FE0
0FE0
0FE0
0FE0
ENDCHAR
STARTCHAR 012C
ENCODING 300
SWIDTH 303 0
DWIDTH 16 0
BBX 17 50 -1 0
BITMAP
F80F80
F80F80
F80F80
FC1F80
7FFF00
7FFF00
1FFC00
07F000
000000
000000
000000
07F000
07F000
07F000
07F000
07F000
07F000
07F000
07F000
07F000
07F000
07F000
07F000
07F000
07F000
07F000
07F000
07F000
07F000
07F000
07F000
07F000
07F000
07F000
07F000
07F000
07F000
07F000
07F000
07F000
07F000
07F000
07F000
07F000
07F000
07F000
07F000
07F000
07F000
07F000
ENDCHAR
STARTCHAR 012D
ENCODING 301
SWIDTH 246 0
DWIDTH 13 0
BBX 16 39 -1 0
BITMAP
F01F
F01F
F81E
F83E
7FFE
7FFC
3FF8
0FE0
0000
0000
0000
0FE0
0FE0
0FE0
0FE0
0FE0
0FE0
0FE0
0FE0
0FE0
0FE0
0FE0
0FE0
0FE0
0FE0
0FE0
0FE0
0FE0
0FE0
0FE0
0FE0
0FE0
0FE0
0FE0
0FE0
0FE0
0FE0
0FE0
0FE0
ENDCHAR
STARTCHAR 012E
ENCODING 302
SWIDTH 303 0
DWIDTH 16 0
BBX 10 48 3 -9
BITMAP
7F00
7F00
7F00
7F00
7F00
7F00
7F00
7F00
7F00
7F00
7F00
7F00
7F00
7F00
7F00
7F00
7F00
7F00
7F00
7F00
7F00
7F00
7F00
7F00
7F00
7F00
7F00
7F00
7F00
7F00
7F00
7F00
7F00
7F00
7F00
7F00
7F00
7F00
7F00
1E00
7800
7800
F800
F800
FF80
FFC0
7FC0
3F00
ENDCHAR
STARTCHAR 012F
ENCODING 303
SWIDTH 246 0
DWIDTH 13 0
BBX 10 49 2 -9
BITMAP
1E00
7F00
7F80
7F80
7F80
7F80
7F00
1E00
0000
0000
0000
0000
7F00
7F00
7F00
7F00
7F00
7F00
7F00
7F00
7F00
7F00
7F00
7F00
7F00
7F00
7F00
7F00
7F00
7F00
7F00
7F00
7F00
7F00
7F00
7F00
7F00
7F00
7F00
7F00
1E00
3800
7800
F800
F800
FF80
FFC0
7FC0
3F00
ENDCHAR
STARTCHAR 0130
ENCODING 304
SWIDTH 303 0
DWIDTH 16 0
BBX 8 50 4 0
BITMAP
38
FE
FE
FF
FF
FE
FE
38
00
00
00
FE
FE
FE
FE
FE
FE
FE
FE
FE
FE
FE
FE
FE
FE
FE
FE
FE
FE
FE
FE
FE
FE
FE
FE
FE
FE
FE
FE
FE
FE
FE
FE
FE
FE
FE
FE
FE
FE
FE
ENDCHAR
STARTCHAR 0131
ENCODING 305
SWIDTH 265 0
DWIDTH 14 0
BBX 7 28 3 0
BITMAP
FE
FE
FE
FE
FE
FE
FE
FE
FE
FE
FE
FE
FE
FE
FE
FE
FE
FE
FE
FE
FE
FE
FE
FE
FE
FE
FE
FE
ENDCHAR
STARTCHAR 0132
ENCODING 306
SWIDTH 738 0
DWIDTH 39 0
BBX 32 39 4 0
BITMAP
FE00007F
FE00007F
FE00007F
FE00007F
FE00007F
FE00007F
FE00007F
FE00007F
FE00007F
FE00007F
FE00007F
FE00007F
FE00007F
FE00007F
FE00007F
FE00007F
FE00007F
FE00007F
FE00007F
FE00007F
FE00007F
FE00007F
FE00007F
FE00007F
FE00007F
FE00007F
FE00007F
FE00007F
FE0000FF
FE0000FE
FE0000FE
FE0001FE
FE0007FC
FE03FFFC
FE03FFF8
FE03FFF0
FE03FFE0
FE03FFC0
FE01FE00
ENDCHAR
STARTCHAR 0133
ENCODING 307
SWIDTH 530 0
DWIDTH 28 0
BBX 22 50 3 -10
BITMAP
3C00F0
FE03F8
FF03FC
FF03FC
FF03FC
FF03FC
FE03F8
3C00F0
000000
000000
000000
000000
FE03F8
FE03F8
FE03F8
FE03F8
FE03F8
FE03F8
FE03F8
FE03F8
FE03F8
FE03F8
FE03F8
FE03F8
FE03F8
FE03F8
FE03F8
FE03F8
FE03F8
FE03F8
FE03F8
FE03F8
FE03F8
FE03F8
FE03F8
FE03F8
FE03F8
FE03F8
FE03F8
FE03F8
0003F8
0003F8
0003F8
0003F8
0007F8
007FF0
007FF0
007FE0
007FC0
007F00
ENDCHAR
STARTCHAR 0134
ENCODING 308
SWIDTH 435 0
DWIDTH 23 0
BBX 24 50 1 0
BITMAP
000FC0
001FE0
003FE0
007FF0
00FDF8
01F8FC
01F07E
07F03F
000000
000000
000000
001FC0
001FC0
001FC0
001FC0
001FC0
001FC0
001FC0
001FC0
001FC0
001FC0
001FC0
001FC0
001FC0
001FC0
001FC0
001FC0
001FC0
001FC0
001FC0
001FC0
001FC0
001FC0
001FC0
001FC0
001FC0
001FC0
001FC0
001FC0
003FC0
003F80
003F80
007F80
01FF00
FFFF00
FFFE00
FFFC00
FFF800
FFF000
7F8000
ENDCHAR
STARTCHAR 0135
ENCODING 309
SWIDTH 246 0
DWIDTH 13 0
BBX 19 49 -3 -10
BITMAP
03F800
07FC00
0FFE00
0FFF00
1F9F00
3F0F80
7E07C0
800020
000000
000000
000000
03F800
03F800
03F800
03F800
03F800
03F800
03F800
03F800
03F800
03F800
03F800
03F800
03F800
03F800
03F800
03F800
03F800
03F800
03F800
03F800
03F800
03F800
03F800
03F800
03F800
03F800
03F800
03F800
03F800
03F800
03F800
03F800
07F800
7FF000
7FF000
7FE000
7FC000
7F0000
ENDCHAR
STARTCHAR 0136
ENCODING 310
SWIDTH 682 0
DWIDTH 36 0
BBX 33 49 4 -10
BITMAP
FE0000FF00
FE0001FE00
FE0003FC00
FE0007F800
FE000FF000
FE000FF000
FE001FE000
FE003FC000
FE007F8000
FE007F0000
FE00FF0000
FE01FE0000
FE03FC0000
FE03F80000
FE07F80000
FE0FF00000
FE1FE00000
FFFFC00000
FFFF800000
FFFFC00000
FFFFE00000
FFFFF00000
FE0FF00000
FE07F80000
FE03FC0000
FE03FE0000
FE01FE0000
FE00FF0000
FE007F8000
FE007FC000
FE003FC000
FE001FE000
FE000FF000
FE000FF800
FE0007F800
FE0003FC00
FE0001FE00
FE0001FF00
FE0000FF80
0000000000
0000000000
000F800000
001F800000
001F800000
001F000000
001F000000
001F000000
001E000000
003C000000
ENDCHAR
STARTCHAR 0137
ENCODING 311
SWIDTH 530 0
DWIDTH 28 0
BBX 25 50 3 -10
BITMAP
FE000000
FE000000
FE000000
FE000000
FE000000
FE000000
FE000000
FE000000
FE000000
FE000000
FE000000
FE000000
FE007F80
FE00FF00
FE00FE00
FE01FC00
FE03F800
FE07F800
FE07F000
FE0FE000
FE1FC000
FE3F8000
FE7F8000
FFFF0000
FFFE0000
FFFE0000
FFFF0000
FFFF8000
FE3F8000
FE1FC000
FE1FE000
FE0FE000
FE07F000
FE07F800
FE03FC00
FE01FC00
FE00FE00
FE00FF00
FE007F00
FE003F80
00000000
00000000
003E0000
007E0000
007E0000
007C0000
007C0000
007C0000
00780000
00F00000
ENDCHAR
STARTCHAR 0138
ENCODING 312
SWIDTH 530 0
DWIDTH 28 0
BBX 25 28 3 0
BITMAP
FE007F80
FE00FF00
FE00FE00
FE01FC00
FE03F800
FE07F800
FE07F000
FE0FE000
FE1FC000
FE3F8000
FE7F8000
FFFF0000
FFFE0000
FFFE0000
FFFF0000
FFFF8000
FE3F8000
FE1FC000
FE1FE000
FE0FE000
FE07F000
FE07F800
FE03FC00
FE01FC00
FE00FE00
FE00FF00
FE007F00
FE003F80
ENDCHAR
STARTCHAR 0139
ENCODING 313
SWIDTH 530 0
DWIDTH 28 0
BBX 23 51 4 0
BITMAP
01FE00
07FC00
0FF800
0FF000
1FE000
3FC000
7F8000
7E0000
FC0000
000000
000000
000000
FE0000
FE0000
FE0000
FE0000
FE0000
FE0000
FE0000
FE0000
FE0000
FE0000
FE0000
FE0000
FE0000
FE0000
FE0000
FE0000
FE0000
FE0000
FE0000
FE0000
FE0000
FE0000
FE0000
FE0000
FE0000
FE0000
FE0000
FE0000
FE0000
FE0000
FE0000
FE0000
FE0000
FFFFFE
FFFFFE
FFFFFE
FFFFFE
FFFFFE
FFFFFE
ENDCHAR
STARTCHAR 013A
ENCODING 314
SWIDTH 246 0
DWIDTH 13 0
BBX 15 51 3 0
BITMAP
01FE
07FC
0FF8
0FF0
1FE0
3FC0
7F80
7E00
FC00
0000
0000
FE00
FE00
FE00
FE00
FE00
FE00
FE00
FE00
FE00
FE00
FE00
FE00
FE00
FE00
FE00
FE00
FE00
FE00
FE00
FE00
FE00
FE00
FE00
FE00
FE00
FE00
FE00
FE00
FE00
FE00
FE00
FE00
FE00
FE00
FE00
FE00
FE00
FE00
FE00
FE00
ENDCHAR
STARTCHAR 013B
ENCODING 315
SWIDTH 530 0
DWIDTH 28 0
BBX 23 49 4 -10
BITMAP
FE0000
FE0000
FE0000
FE0000
FE0000
FE0000
FE0000
FE0000
FE0000
FE0000
FE0000
FE0000
FE0000
FE0000
FE0000
FE0000
FE0000
FE0000
FE0000
FE0000
FE0000
FE0000
FE0000
FE0000
FE0000
FE0000
FE0000
FE0000
FE0000
FE0000
FE0000
FE0000
FE0000
FFFFFE
FFFFFE
FFFFFE
FFFFFE
FFFFFE
FFFFFE
000000
000000
007C00
00FC00
00FC00
00F800
00F800
00F800
00F000
01E000
ENDCHAR
STARTCHAR 013C
ENCODING 316
SWIDTH 246 0
DWIDTH 13 0
BBX 7 50 3 -10
BITMAP
FE
FE
FE
FE
FE
FE
FE
FE
FE
FE
FE
FE
FE
FE
FE
FE
FE
FE
FE
FE
FE
FE
FE
FE
FE
FE
FE
FE
FE
FE
FE
FE
FE
FE
FE
FE
FE
FE
FE
FE
00
00
3E
7E
7E
7C
7C
7C
78
F0
ENDCHAR
STARTCHAR 013D
ENCODING 317
SWIDTH 530 0
DWIDTH 28 0
BBX 23 40 4 0
BITMAP
0007C0
FE07C0
FE0FC0
FE0FC0
FE0F80
FE0F80
FE0F00
FE0F00
FE1E00
FE0000
FE0000
FE0000
FE0000
FE0000
FE0000
FE0000
FE0000
FE0000
FE0000
FE0000
FE0000
FE0000
FE0000
FE0000
FE0000
FE0000
FE0000
FE0000
FE0000
FE0000
FE0000
FE0000
FE0000
FE0000
FFFFFE
FFFFFE
FFFFFE
FFFFFE
FFFFFE
FFFFFE
ENDCHAR
STARTCHAR 013E
ENCODING 318
SWIDTH 246 0
DWIDTH 13 0
BBX 16 40 3 0
BITMAP
FE1F
FE1F
FE3F
FE3F
FE3E
FE3E
FE3C
FE3C
FE78
FE00
FE00
FE00
FE00
FE00
FE00
FE00
FE00
FE00
FE00
FE00
FE00
FE00
FE00
FE00
FE00
FE00
FE00
FE00
FE00
FE00
FE00
FE00
FE00
FE00
FE00
FE00
FE00
FE00
FE00
FE00
ENDCHAR
STARTCHAR 013F
ENCODING 319
SWIDTH 549 0
DWIDTH 29 0
BBX 23 39 4 0
BITMAP
FE0000
FE0000
FE0000
FE0000
FE0000
FE0000
FE0000
FE0000
FE0000
FE0000
FE0000
FE0000
FE0000
FE00F0
FE03F8
FE03F8
FE07FC
FE07FC
FE03FC
FE03F8
FE00F0
FE0000
FE0000
FE0000
FE0000
FE0000
FE0000
FE0000
FE0000
FE0000
FE0000
FE0000
FE0000
FFFFFE
FFFFFE
FFFFFE
FFFFFE
FFFFFE
FFFFFE
ENDCHAR
STARTCHAR 0140
ENCODING 320
SWIDTH 397 0
DWIDTH 21 0
BBX 18 40 3 0
BITMAP
FE0000
FE0000
FE0000
FE0000
FE0000
FE0000
FE0000
FE0000
FE0000
FE0000
FE0000
FE0000
FE0000
FE0000
FE0000
FE0F00
FE1F80
FE1FC0
FE3FC0
FE3FC0
FE1FC0
FE1F80
FE0F00
FE0000
FE0000
FE0000
FE0000
FE0000
FE0000
FE0000
FE0000
FE0000
FE0000
FE0000
FE0000
FE0000
FE0000
FE0000
FE0000
FE0000
ENDCHAR
STARTCHAR 0141
ENCODING 321
SWIDTH 530 0
DWIDTH 28 0
BBX 28 39 0 0
BITMAP
07F00000
07F00000
07F00000
07F00000
07F00000
07F00000
07F00000
07F00000
07F00000
07F00000
07F00000
07F00C00
07F03C00
07F0FC00
07F3FC00
07FFFC00
07FFFC00
07FFF000
07FFC000
0FFF0000
3FFC0000
7FF00000
FFF00000
FFF00000
FFF00000
F7F00000
C7F00000
07F00000
07F00000
07F00000
07F00000
07F00000
07F00000
07FFFFF0
07FFFFF0
07FFFFF0
07FFFFF0
07FFFFF0
07FFFFF0
ENDCHAR
STARTCHAR 0142
ENCODING 322
SWIDTH 322 0
DWIDTH 17 0
BBX 16 40 1 0
BITMAP
0FE0
0FE0
0FE0
0FE0
0FE0
0FE0
0FE0
0FE0
0FE0
0FE0
0FE0
0FE0
0FE1
0FE7
0FFF
0FFF
0FFF
3FFE
FFF8
FFE0
FFE0
FFE0
CFE0
0FE0
0FE0
0FE0
0FE0
0FE0
0FE0
0FE0
0FE0
0FE0
0FE0
0FE0
0FE0
0FE0
0FE0
0FE0
0FE0
0FE0
ENDCHAR
STARTCHAR 0143
ENCODING 323
SWIDTH 776 0
DWIDTH 41 0
BBX 33 51 4 0
BITMAP
00000FF000
00003FE000
00007FC000
00007F8000
0000FF0000
0001FE0000
0003FC0000
0003F00000
0007E00000
0000000000
0000000000
0000000000
FC00003F80
FE00003F80
FE00003F80
FF00003F80
FF80003F80
FFC0003F80
FFE0003F80
FFE0003F80
FFF0003F80
FFF8003F80
FFFC003F80
FFFE003F80
FDFE003F80
FCFF003F80
FEFF803F80
FE7FC03F80
FE3FC03F80
FE1FE03F80
FE0FF03F80
FE0FF83F80
FE07FC3F80
FE03FC3F80
FE01FE3F80
FE01FF3F80
FE00FFBF80
FE007FBF80
FE003FFF80
FE003FFF80
FE001FFF80
FE000FFF80
FE0007FF80
FE0003FF80
FE0003FF80
FE0001FF80
FE0000FF80
FE00007F80
FE00007F80
FE00003F80
FE00001F80
ENDCHAR
STARTCHAR 0144
ENCODING 324
SWIDTH 568 0
DWIDTH 30 0
BBX 24 39 3 0
BITMAP
0003FC
0007F0
000FE0
000FE0
001FC0
001F80
003F00
007E00
000000
000000
000000
F83FC0
FCFFF0
FDFFF8
FFFFFC
FFFFFE
FFC1FE
FF80FE
FE007F
FE007F
FE007F
FE007F
FE007F
FE007F
FE007F
FE007F
FE007F
FE007F
FE007F
FE007F
FE007F
FE007F
FE007F
FE007F
FE007F
FE007F
FE007F
FE007F
FE007F
ENDCHAR
STARTCHAR 0145
ENCODING 325
SWIDTH 776 0
DWIDTH 41 0
BBX 33 49 4 -10
BITMAP
FC00003F80
FE00003F80
FE00003F80
FF00003F80
FF80003F80
FFC0003F80
FFE0003F80
FFE0003F80
FFF0003F80
FFF8003F80
FFFC003F80
FFFE003F80
FDFE003F80
FCFF003F80
FEFF803F80
FE7FC03F80
FE3FC03F80
FE1FE03F80
FE0FF03F80
FE0FF83F80
FE07FC3F80
FE03FC3F80
FE01FE3F80
FE01FF3F80
FE00FFBF80
FE007FBF80
FE003FFF80
FE003FFF80
FE001FFF80
FE000FFF80
FE0007FF80
FE0003FF80
FE0003FF80
FE0001FF80
FE0000FF80
FE00007F80
FE00007F80
FE00003F80
FE00001F80
0000000000
0000000000
0001F00000
0003F00000
0003F00000
0003E00000
0003E00000
0003E00000
0003C00000
0007800000
ENDCHAR
STARTCHAR 0146
ENCODING 326
SWIDTH 568 0
DWIDTH 30 0
BBX 24 38 3 -10
BITMAP
F83FC0
FCFFF0
FDFFF8
FFFFFC
FFFFFE
FFC1FE
FF80FE
FE007F
FE007F
FE007F
FE007F
FE007F
FE007F
FE007F
FE007F
FE007F
FE007F
FE007F
FE007F
FE007F
FE007F
FE007F
FE007F
FE007F
FE007F
FE007F
FE007F
FE007F
000000
000000
003E00
007E00
007E00
007C00
007C00
007C00
007800
00F000
ENDCHAR
STARTCHAR 0147
ENCODING 327
SWIDTH 776 0
DWIDTH 41 0
BBX 33 50 4 0
BITMAP
01F007C000
00FC1F8000
007E3F0000
003F3F0000
001F7E0000
001FFC0000
000FF80000
0007F00000
0000000000
0000000000
0000000000
FC00003F80
FE00003F80
FE00003F80
FF00003F80
FF80003F80
FFC0003F80
FFE0003F80
FFE0003F80
FFF0003F80
FFF8003F80
FFFC003F80
FFFE003F80
FDFE003F80
FCFF003F80
FEFF803F80
FE7FC03F80
FE3FC03F80
FE1FE03F80
FE0FF03F80
FE0FF83F80
FE07FC3F80
FE03FC3F80
FE01FE3F80
FE01FF3F80
FE00FFBF80
FE007FBF80
FE003FFF80
FE003FFF80
FE001FFF80
FE000FFF80
FE0007FF80
FE0003FF80
FE0003FF80
FE0001FF80
FE0000FF80
FE00007F80
FE00007F80
FE00003F80
FE00001F80
ENDCHAR
STARTCHAR 0148
ENCODING 328
SWIDTH 568 0
DWIDTH 30 0
BBX 24 39 3 0
BITMAP
1F80FC
07C1F8
07E3F0
03F7E0
01FFC0
00FF80
007F00
000000
000000
000000
000000
F83FC0
FCFFF0
FDFFF8
FFFFFC
FFFFFE
FFC1FE
FF80FE
FE007F
FE007F
FE007F
FE007F
FE007F
FE007F
FE007F
FE007F
FE007F
FE007F
FE007F
FE007F
FE007F
FE007F
FE007F
FE007F
FE007F
FE007F
FE007F
FE007F
FE007F
ENDCHAR
STARTCHAR 0149
ENCODING 329
SWIDTH 625 0
DWIDTH 33 0
BBX 31 41 0 0
BITMAP
08000000
7C000000
FC000000
7E000000
7E000000
7E000000
3E000000
3E000000
3E000000
3E000000
3E000000
7C000000
7C000000
F9F07F80
F1F9FFE0
F1FBFFF0
21FFFFF8
01FFFFFC
01FF83FC
01FF01FC
01FC00FE
01FC00FE
01FC00FE
01FC00FE
01FC00FE
01FC00FE
01FC00FE
01FC00FE
01FC00FE
01FC00FE
01FC00FE
01FC00FE
01FC00FE
01FC00FE
01FC00FE
01FC00FE
01FC00FE
01FC00FE
01FC00FE
01FC00FE
01FC00FE
ENDCHAR
STARTCHAR 014A
ENCODING 330
SWIDTH 776 0
DWIDTH 41 0
BBX 33 49 4 -10
BITMAP
FC00003F80
FE00003F80
FE00003F80
FF00003F80
FF80003F80
FFC0003F80
FFE0003F80
FFE0003F80
FFF0003F80
FFF8003F80
FFFC003F80
FFFE003F80
FDFE003F80
FCFF003F80
FEFF803F80
FE7FC03F80
FE3FC03F80
FE1FE03F80
FE0FF03F80
FE0FF83F80
FE07FC3F80
FE03FC3F80
FE01FE3F80
FE01FF3F80
FE00FFBF80
FE007FBF80
FE003FFF80
FE003FFF80
FE001FFF80
FE000FFF80
FE0007FF80
FE0003FF80
FE0003FF80
FE0001FF80
FE0000FF80
FE00007F80
FE00007F80
FE00003F80
FE00003F80
0000003F80
0000003F00
0000003F00
0000007F00
000000FF00
00001FFE00
00001FFE00
00003FFC00
00003FF800
00001FE000
ENDCHAR
STARTCHAR 014B
ENCODING 331
SWIDTH 568 0
DWIDTH 30 0
BBX 24 38 3 -10
BITMAP
F83FC0
FCFFF0
FDFFF8
FFFFFC
FFFFFE
FFC1FE
FF80FE
FE007F
FE007F
FE007F
FE007F
FE007F
FE007F
FE007F
FE007F
FE007F
FE007F
FE007F
FE007F
FE007F
FE007F
FE007F
FE007F
FE007F
FE007F
FE007F
FE007F
FE007F
00007F
00007F
00007F
00007E
0001FE
003FFE
003FFC
007FF8
007FF0
001FC0
ENDCHAR
STARTCHAR 014C
ENCODING 332
SWIDTH 814 0
DWIDTH 43 0
BBX 39 46 2 0
BITMAP
000FFFF000
000FFFF000
000FFFF000
000FFFF000
0000000000
0000000000
0000000000
0001FF0000
001FFFE000
007FFFF800
00FFFFFE00
03FFFFFF00
07FFFFFF80
0FFF01FFC0
0FF8003FE0
1FF0001FF0
3FE0000FF0
3FC00007F8
7F800003F8
7F800003FC
7F000001FC
7F000001FC
FF000001FC
FF000001FE
FE000001FE
FE000001FE
FE000000FE
FE000001FE
FE000001FE
FE000001FE
FF000001FC
7F000001FC
7F000001FC
7F800003FC
7F800003F8
3FC00007F8
3FE0000FF0
1FF0001FF0
0FF8003FE0
0FFF01FFC0
07FFFFFF80
03FFFFFF00
00FFFFFE00
007FFFFC00
001FFFE000
0001FF0000
ENDCHAR
STARTCHAR 014D
ENCODING 333
SWIDTH 568 0
DWIDTH 30 0
BBX 27 37 2 0
BITMAP
03FFFC00
03FFFC00
03FFFC00
03FFFC00
00000000
00000000
00000000
00000000
00000000
007F8000
01FFF000
07FFFC00
0FFFFE00
1FFFFF00
3FE0FF00
7F803F80
7F003F80
7E001FC0
FE001FC0
FE000FC0
FE000FE0
FE000FE0
FE000FE0
FE000FE0
FE000FE0
FE000FE0
FE000FC0
FE001FC0
7E001FC0
7F003F80
7F803F80
3FC0FF00
1FFFFF00
0FFFFE00
07FFFC00
01FFF000
007F8000
ENDCHAR
STARTCHAR 014E
ENCODING 334
SWIDTH 814 0
DWIDTH 43 0
BBX 39 50 2 0
BITMAP
001F01F000
001F01F000
001F01F000
001F83F000
000FFFE000
000FFFE000
0003FF8000
0000FE0000
0000000000
0000000000
0000000000
0001FF0000
001FFFE000
007FFFF800
00FFFFFE00
03FFFFFF00
07FFFFFF80
0FFF01FFC0
0FF8003FE0
1FF0001FF0
3FE0000FF0
3FC00007F8
7F800003F8
7F800003FC
7F000001FC
7F000001FC
FF000001FC
FF000001FE
FE000001FE
FE000001FE
FE000000FE
FE000001FE
FE000001FE
FE000001FE
FF000001FC
7F000001FC
7F000001FC
7F800003FC
7F800003F8
3FC00007F8
3FE0000FF0
1FF0001FF0
0FF8003FE0
0FFF01FFC0
07FFFFFF80
03FFFFFF00
00FFFFFE00
007FFFFC00
001FFFE000
0001FF0000
ENDCHAR
STARTCHAR 014F
ENCODING 335
SWIDTH 568 0
DWIDTH 30 0
BBX 27 39 2 0
BITMAP
03C07C00
03C07C00
03E07800
03E0F800
01FFF800
01FFF000
00FFE000
003F8000
00000000
00000000
00000000
007F8000
01FFF000
07FFFC00
0FFFFE00
1FFFFF00
3FE0FF00
7F803F80
7F003F80
7E001FC0
FE001FC0
FE000FC0
FE000FE0
FE000FE0
FE000FE0
FE000FE0
FE000FE0
FE000FE0
FE000FC0
FE001FC0
7E001FC0
7F003F80
7F803F80
3FC0FF00
1FFFFF00
0FFFFE00
07FFFC00
01FFF000
007F8000
ENDCHAR
STARTCHAR 0150
ENCODING 336
SWIDTH 814 0
DWIDTH 43 0
BBX 39 49 2 0
BITMAP
00007E1FC0
0000FC3F00
0001F87E00
0001F0FC00
0003E1F800
0007C3F000
000787C000
0000000000
0000000000
0000000000
0001FF0000
001FFFE000
007FFFF800
00FFFFFE00
03FFFFFF00
07FFFFFF80
0FFF01FFC0
0FF8003FE0
1FF0001FF0
3FE0000FF0
3FC00007F8
7F800003F8
7F800003FC
7F000001FC
7F000001FC
FF000001FC
FF000001FE
FE000001FE
FE000001FE
FE000000FE
FE000001FE
FE000001FE
FE000001FE
FF000001FC
7F000001FC
7F000001FC
7F800003FC
7F800003F8
3FC00007F8
3FE0000FF0
1FF0001FF0
0FF8003FE0
0FFF01FFC0
07FFFFFF80
03FFFFFF00
00FFFFFE00
007FFFFC00
001FFFE000
0001FF0000
ENDCHAR
STARTCHAR 0151
ENCODING 337
SWIDTH 568 0
DWIDTH 30 0
BBX 27 39 2 0
BITMAP
001F8FC0
003F1F80
003E3F00
007C3E00
007C7C00
00F8F800
00F1F000
01E3E000
00000000
00000000
00000000
007F8000
01FFF000
07FFFC00
0FFFFE00
1FFFFF00
3FE0FF00
7F803F80
7F003F80
7E001FC0
FE001FC0
FE000FC0
FE000FE0
FE000FE0
FE000FE0
FE000FE0
FE000FE0
FE000FE0
FE000FC0
FE001FC0
7E001FC0
7F003F80
7F803F80
3FC0FF00
1FFFFF00
0FFFFE00
07FFFC00
01FFF000
007F8000
ENDCHAR
STARTCHAR 0152
ENCODING 338
SWIDTH 1080 0
DWIDTH 57 0
BBX 53 39 2 0
BITMAP
0007FC03FFFFF8
003FFF83FFFFF8
00FFFFC3FFFFF8
01FFFFF3FFFFF8
03FFFFFBFFFFF8
07FFFFFFFFFFF8
0FFE03FFF00000
1FF800FFF00000
1FE0007FF00000
3FE0003FF00000
3FC0001FF00000
7F80001FF00000
7F80000FF00000
7F00000FF00000
7F00000FF00000
FF000007F00000
FF000007F00000
FE000007FFFFC0
FE000007FFFFC0
FE000007FFFFC0
FE000007FFFFC0
FE000007FFFFC0
FE000007F00000
FF000007F00000
7F000007F00000
7F00000FF00000
7F00000FF00000
7F80000FF00000
3F80001FF00000
3FC0001FF00000
1FC0003FF00000
1FE0007FF00000
0FF800FFF00000
07FE03FFF00000
03FFFFFFFFFFF8
01FFFFFBFFFFF8
00FFFFE3FFFFF8
003FFF83FFFFF8
0007FC03FFFFF8
ENDCHAR
STARTCHAR 0153
ENCODING 339
SWIDTH 871 0
DWIDTH 46 0
BBX 43 28 2 0
BITMAP
007F000FE000
03FFC03FF800
07FFF07FFE00
0FFFF9FFFF00
1FFFFDFFFF00
3FC1FFF83F80
7F807FE01FC0
7F007FE00FC0
7E003FC00FC0
FE003FC007C0
FE001F8007E0
FE001FFFFFE0
FE001FFFFFE0
FE001FFFFFE0
FE001FFFFFC0
FE001F800000
FE001FC00000
FE001FC00000
FE003FC00000
7E003FC00000
7F007FE00100
7F807FF00780
3FC1FFFC1FC0
1FFFFDFFFFE0
0FFFF8FFFFC0
07FFF07FFF00
03FFC03FFE00
00FF000FF000
ENDCHAR
STARTCHAR 0154
ENCODING 340
SWIDTH 644 0
DWIDTH 34 0
BBX 30 51 4 0
BITMAP
0001FE00
0007FC00
000FF800
000FF000
001FE000
003FC000
007F8000
007E0000
00FC0000
00000000
00000000
00000000
FFFF8000
FFFFF000
FFFFFC00
FFFFFF00
FFFFFF00
FE00FF80
FE003FC0
FE001FC0
FE001FC0
FE001FE0
FE000FE0
FE000FE0
FE000FE0
FE000FE0
FE001FC0
FE001FC0
FE003FC0
FE007F80
FE01FF00
FFFFFF00
FFFFFC00
FFFFF800
FFFFE000
FFFFE000
FE0FF000
FE07F800
FE03FC00
FE03FC00
FE01FE00
FE00FF00
FE00FF00
FE007F80
FE003FC0
FE003FC0
FE001FE0
FE000FF0
FE000FF0
FE0007F8
FE0003FC
ENDCHAR
STARTCHAR 0155
ENCODING 341
SWIDTH 378 0
DWIDTH 20 0
BBX 18 39 3 0
BITMAP
003FC0
007F00
00FE00
00FE00
01FC00
01F800
03F000
07E000
000000
000000
000000
FC1F80
FC7F00
FCFF00
FDFF00
FDFF00
FFFF00
FFC000
FF8000
FF0000
FE0000
FE0000
FE0000
FE0000
FE0000
FE0000
FE0000
FE0000
FE0000
FE0000
FE0000
FE0000
FE0000
FE0000
FE0000
FE0000
FE0000
FE0000
FE0000
ENDCHAR
STARTCHAR 0156
ENCODING 342
SWIDTH 644 0
DWIDTH 34 0
BBX 30 49 4 -10
BITMAP
FFFF8000
FFFFF000
FFFFFC00
FFFFFF00
FFFFFF00
FE00FF80
FE003FC0
FE001FC0
FE001FC0
FE001FE0
FE000FE0
FE000FE0
FE000FE0
FE000FE0
FE001FC0
FE001FC0
FE003FC0
FE007F80
FE01FF00
FFFFFF00
FFFFFC00
FFFFF800
FFFFE000
FFFFE000
FE0FF000
FE07F800
FE03FC00
FE03FC00
FE01FE00
FE00FF00
FE00FF00
FE007F80
FE003FC0
FE003FC0
FE001FE0
FE000FF0
FE000FF0
FE0007F8
FE0003FC
00000000
00000000
000F8000
001F8000
001F8000
001F0000
001F0000
001F0000
001E0000
003C0000
ENDCHAR
STARTCHAR 0157
ENCODING 343
SWIDTH 378 0
DWIDTH 20 0
BBX 17 38 3 -10
BITMAP
FC1F80
FC7F00
FCFF00
FDFF00
FDFF00
FFFF00
FFC000
FF8000
FF0000
FE0000
FE0000
FE0000
FE0000
FE0000
FE0000
FE0000
FE0000
FE0000
FE0000
FE0000
FE0000
FE0000
FE0000
FE0000
FE0000
FE0000
FE0000
FE0000
000000
000000
3E0000
7E0000
7E0000
7C0000
7C0000
7C0000
780000
F00000
ENDCHAR
STARTCHAR 0158
ENCODING 344
SWIDTH 644 0
DWIDTH 34 0
BBX 30 50 4 0
BITMAP
1F007C00
0FC1F800
07E3F000
03F3F000
01F7E000
01FFC000
00FF8000
007F0000
00000000
00000000
00000000
FFFF8000
FFFFF000
FFFFFC00
FFFFFF00
FFFFFF00
FE00FF80
FE003FC0
FE001FC0
FE001FC0
FE001FE0
FE000FE0
FE000FE0
FE000FE0
FE000FE0
FE001FC0
FE001FC0
FE003FC0
FE007F80
FE01FF00
FFFFFF00
FFFFFC00
FFFFF800
FFFFE000
FFFFE000
FE0FF000
FE07F800
FE03FC00
FE03FC00
FE01FE00
FE00FF00
FE00FF00
FE007F80
FE003FC0
FE003FC0
FE001FE0
FE000FF0
FE000FF0
FE0007F8
FE0003FC
ENDCHAR
STARTCHAR 0159
ENCODING 345
SWIDTH 378 0
DWIDTH 20 0
BBX 19 39 2 0
BITMAP
FC07E0
3E0FC0
3F1F80
1FBF00
0FFE00
07FC00
03F800
000000
000000
000000
000000
7E0FC0
7E3F80
7E7F80
7EFF80
7EFF80
7FFF80
7FE000
7FC000
7F8000
7F0000
7F0000
7F0000
7F0000
7F0000
7F0000
7F0000
7F0000
7F0000
7F0000
7F0000
7F0000
7F0000
7F0000
7F0000
7F0000
7F0000
7F0000
7F0000
ENDCHAR
STARTCHAR 015A
ENCODING 346
SWIDTH 549 0
DWIDTH 29 0
BBX 26 51 1 0
BITMAP
00003FC0
0000FF80
0001FF00
0001FE00
0003FC00
0007F800
000FF000
000FC000
001F8000
00000000
00000000
00000000
003FE000
00FFFC00
03FFFE00
07FFFF80
0FFFFF80
1FFFFF80
1FE07F00
3FC00F00
3F800200
3F800000
3F000000
3F000000
3F800000
3FC00000
3FE00000
1FFC0000
1FFF8000
0FFFE000
07FFF800
03FFFE00
00FFFF00
001FFF80
0003FF80
00007FC0
00003FC0
00001FC0
00001FC0
00001FC0
00001FC0
00001FC0
3C001FC0
3F003F80
7FC0FF80
FFFFFF00
7FFFFF00
3FFFFE00
0FFFF800
03FFF000
007F8000
ENDCHAR
STARTCHAR 015B
ENCODING 347
SWIDTH 435 0
DWIDTH 23 0
BBX 21 39 1 0
BITMAP
000FF0
001FC0
003F80
003F80
007F00
007E00
00FC00
01F800
000000
000000
000000
01FE00
07FFC0
0FFFE0
1FFFF0
3FFFF0
3F83E0
7F0040
7E0000
7E0000
7F0000
7FC000
3FF000
3FFE00
1FFF80
07FFE0
01FFF0
003FF0
0007F0
0003F8
0003F8
0003F0
3803F0
7E07F0
7FFFE0
FFFFE0
3FFFC0
1FFF00
03FC00
ENDCHAR
STARTCHAR 015C
ENCODING 348
SWIDTH 549 0
DWIDTH 29 0
BBX 26 50 1 0
BITMAP
000FC000
001FE000
003FE000
007FF000
00FDF800
01F8FC00
01F07E00
07F03F00
00000000
00000000
00000000
003FE000
00FFFC00
03FFFE00
07FFFF80
0FFFFF80
1FFFFF80
1FE07F00
3FC00F00
3F800200
3F800000
3F000000
3F000000
3F800000
3FC00000
3FE00000
1FFC0000
1FFF8000
0FFFE000
07FFF800
03FFFE00
00FFFF00
001FFF80
0003FF80
00007FC0
00003FC0
00001FC0
00001FC0
00001FC0
00001FC0
00001FC0
3C001FC0
3F003F80
7FC0FF80
FFFFFF00
7FFFFF00
3FFFFE00
0FFFF800
03FFF000
007F8000
ENDCHAR
STARTCHAR 015D
ENCODING 349
SWIDTH 435 0
DWIDTH 23 0
BBX 21 39 1 0
BITMAP
01FC00
03FE00
07FF00
07FF80
0FCF80
1F87C0
3F03E0
400010
000000
000000
000000
01FE00
07FFC0
0FFFE0
1FFFF0
3FFFF0
3F83E0
7F0040
7E0000
7E0000
7F0000
7FC000
3FF000
3FFE00
1FFF80
07FFE0
01FFF0
003FF0
0007F0
0003F8
0003F8
0003F0
3803F0
7E07F0
7FFFE0
FFFFE0
3FFFC0
1FFF00
03FC00
ENDCHAR
STARTCHAR 015E
ENCODING 350
SWIDTH 549 0
DWIDTH 29 0
BBX 26 49 1 -10
BITMAP
003FE000
00FFFC00
03FFFE00
07FFFF80
0FFFFF80
1FFFFF80
1FE07F00
3FC00F00
3F800200
3F800000
3F000000
3F000000
3F800000
3FC00000
3FE00000
1FF80000
1FFF0000
0FFFE000
07FFF800
03FFFE00
00FFFF00
001FFF80
0003FF80
00007FC0
00003FC0
00001FC0
00001FC0
00001FC0
00001FC0
00001FC0
3C001FC0
3F003F80
7FC0FF80
FFFFFF00
7FFFFF00
3FFFFE00
1FFFFC00
07FFF000
00FFC000
000E0000
001E0000
001FC000
001FE000
0007E000
0003F000
0003F000
003FE000
003FC000
007F0000
ENDCHAR
STARTCHAR 015F
ENCODING 351
SWIDTH 435 0
DWIDTH 23 0
BBX 21 38 1 -10
BITMAP
00FE00
07FFC0
0FFFE0
1FFFF0
3FFFF0
3F83E0
7F0040
7E0000
7E0000
7F0000
7F8000
3FF000
3FFE00
1FFF80
0FFFC0
03FFE0
00FFF0
001FF0
0007F8
0003F8
0003F8
0003F0
3803F0
7E07F0
7FFFE0
FFFFC0
3FFF80
0FFF00
01F000
00F000
00F800
01FE00
007F00
001F00
001F00
03FF00
03FE00
03F800
ENDCHAR
STARTCHAR 0160
ENCODING 352
SWIDTH 549 0
DWIDTH 29 0
BBX 26 50 1 0
BITMAP
07C01F00
03F07E00
01F8FC00
00FCFC00
007DF800
007FF000
003FE000
001FC000
00000000
00000000
00000000
003FE000
00FFFC00
03FFFE00
07FFFF80
0FFFFF80
1FFFFF80
1FE07F00
3FC00F00
3F800200
3F800000
3F000000
3F000000
3F800000
3FC00000
3FE00000
1FFC0000
1FFF8000
0FFFE000
07FFF800
03FFFE00
00FFFF00
001FFF80
0003FF80
00007FC0
00003FC0
00001FC0
00001FC0
00001FC0
00001FC0
00001FC0
3C001FC0
3F003F80
7FC0FF80
FFFFFF00
7FFFFF00
3FFFFE00
0FFFF800
03FFF000
007F8000
ENDCHAR
STARTCHAR 0161
ENCODING 353
SWIDTH 435 0
DWIDTH 23 0
BBX 21 39 1 0
BITMAP
7E03F0
1F07E0
1F8FC0
0FDF80
07FF00
03FE00
01FC00
000000
000000
000000
000000
01FE00
07FFC0
0FFFE0
1FFFF0
3FFFF0
3F83E0
7F0040
7E0000
7E0000
7F0000
7FC000
3FF000
3FFE00
1FFF80
07FFE0
01FFF0
003FF0
0007F0
0003F8
0003F8
0003F0
3803F0
7E07F0
7FFFE0
FFFFE0
3FFFC0
1FFF00
03FC00
ENDCHAR
STARTCHAR 0162
ENCODING 354
SWIDTH 606 0
DWIDTH 32 0
BBX 30 49 1 -10
BITMAP
FFFFFFFC
FFFFFFFC
FFFFFFFC
FFFFFFFC
FFFFFFFC
FFFFFFFC
001FC000
001FC000
001FC000
001FC000
001FC000
001FC000
001FC000
001FC000
001FC000
001FC000
001FC000
001FC000
001FC000
001FC000
001FC000
001FC000
001FC000
001FC000
001FC000
001FC000
001FC000
001FC000
001FC000
001FC000
001FC000
001FC000
001FC000
001FC000
001FC000
001FC000
001FC000
001FC000
001FC000
00078000
00070000
000FE000
000FF000
0003F800
0000F800
0001F800
001FF000
001FF000
003FC000
ENDCHAR
STARTCHAR 0163
ENCODING 355
SWIDTH 378 0
DWIDTH 20 0
BBX 18 46 1 -10
BITMAP
01E000
03E000
07E000
07E000
07E000
07E000
07E000
0FE000
3FFFC0
FFFFC0
FFFFC0
FFFFC0
FFFFC0
0FE000
0FE000
0FE000
0FE000
0FE000
0FE000
0FE000
0FE000
0FE000
0FE000
0FE000
0FE000
0FE000
0FE000
0FE000
0FE000
0FE000
0FE100
0FFF80
07FF80
07FFC0
03FFC0
01FF00
007800
007800
00FC00
00FF00
003F80
000F80
000F80
01FF80
01FF00
01FC00
ENDCHAR
STARTCHAR 0164
ENCODING 356
SWIDTH 606 0
DWIDTH 32 0
BBX 30 50 1 0
BITMAP
07C01F00
03F07E00
01F8FC00
00FCFC00
007DF800
007FF000
003FE000
001FC000
00000000
00000000
00000000
FFFFFFFC
FFFFFFFC
FFFFFFFC
FFFFFFFC
FFFFFFFC
FFFFFFFC
001FC000
001FC000
001FC000
001FC000
001FC000
001FC000
001FC000
001FC000
001FC000
001FC000
001FC000
001FC000
001FC000
001FC000
001FC000
001FC000
001FC000
001FC000
001FC000
001FC000
001FC000
001FC000
001FC000
001FC000
001FC000
001FC000
001FC000
001FC000
001FC000
001FC000
001FC000
001FC000
001FC000
ENDCHAR
STARTCHAR 0165
ENCODING 357
SWIDTH 378 0
DWIDTH 20 0
BBX 22 40 1 0
BITMAP
00007C
00007C
0000FC
01E0FC
03E0F8
07E0F8
07E0F0
07E0F0
07E1E0
07E000
07E000
0FE000
3FFFC0
FFFFC0
FFFFC0
FFFFC0
FFFFC0
0FE000
0FE000
0FE000
0FE000
0FE000
0FE000
0FE000
0FE000
0FE000
0FE000
0FE000
0FE000
0FE000
0FE000
0FE000
0FE000
0FE000
0FE100
0FFF80
07FFC0
07FFC0
03FF80
00FE00
ENDCHAR
STARTCHAR 0166
ENCODING 358
SWIDTH 606 0
DWIDTH 32 0
BBX 30 39 1 0
BITMAP
FFFFFFFC
FFFFFFFC
FFFFFFFC
FFFFFFFC
FFFFFFFC
FFFFFFFC
000FE000
000FE000
000FE000
000FE000
000FE000
000FE000
000FE000
000FE000
000FE000
000FE000
1FFFFFE0
1FFFFFE0
1FFFFFE0
1FFFFFE0
000FE000
000FE000
000FE000
000FE000
000FE000
000FE000
000FE000
000FE000
000FE000
000FE000
000FE000
000FE000
000FE000
000FE000
000FE000
000FE000
000FE000
000FE000
000FE000
ENDCHAR
STARTCHAR 0167
ENCODING 359
SWIDTH 378 0
DWIDTH 20 0
BBX 18 37 1 0
BITMAP
01E000
03E000
03E000
07E000
07E000
07E000
07E000
07E000
0FE000
3FFFC0
FFFFC0
FFFFC0
FFFFC0
FFFFC0
0FE000
0FE000
0FE000
0FE000
7FFFC0
7FFFC0
7FFFC0
7FFFC0
0FE000
0FE000
0FE000
0FE000
0FE000
0FE000
0FE000
0FE000
0FE000
0FE100
0FFF80
07FFC0
07FFC0
03FF80
00FE00
ENDCHAR
STARTCHAR 0168
ENCODING 360
SWIDTH 738 0
DWIDTH 39 0
BBX 32 48 4 0
BITMAP
003E0780
00FF8F80
00FFFF80
01FFFF80
01FFFF00
03E3FE00
03C07C00
00000000
00000000
FE0000FF
FE0000FF
FE0000FF
FE0000FF
FE0000FF
FE0000FF
FE0000FF
FE0000FF
FE0000FF
FE0000FF
FE0000FF
FE0000FF
FE0000FF
FE0000FF
FE0000FF
FE0000FF
FE0000FF
FE0000FF
FE0000FF
FE0000FF
FE0000FF
FE0000FF
FE0000FF
FE0000FF
FE0000FF
FE0000FE
FE0000FE
FF0000FE
7F0001FE
7F8001FC
7F8003FC
3FE007FC
3FF01FF8
1FFFFFF0
0FFFFFE0
07FFFFC0
03FFFF80
00FFFE00
001FF000
ENDCHAR
STARTCHAR 0169
ENCODING 361
SWIDTH 568 0
DWIDTH 30 0
BBX 24 39 3 0
BITMAP
03E0F0
07F8F0
0FFFF0
0FFFE0
1FFFE0
1F3FC0
1E0F80
000000
000000
000000
000000
FE007F
FE007F
FE007F
FE007F
FE007F
FE007F
FE007F
FE007F
FE007F
FE007F
FE007F
FE007F
FE007F
FE007F
FE007F
FE007F
FE007F
FE007F
FE007F
FE007F
FE007F
FF01FF
7F83FF
7FFFFF
3FFFFF
1FFF3F
0FFE3F
03F83F
ENDCHAR
STARTCHAR 016A
ENCODING 362
SWIDTH 738 0
DWIDTH 39 0
BBX 32 46 4 0
BITMAP
00FFFF00
00FFFF00
00FFFF00
00FFFF00
00000000
00000000
00000000
FE0000FF
FE0000FF
FE0000FF
FE0000FF
FE0000FF
FE0000FF
FE0000FF
FE0000FF
FE0000FF
FE0000FF
FE0000FF
FE0000FF
FE0000FF
FE0000FF
FE0000FF
FE0000FF
FE0000FF
FE0000FF
FE0000FF
FE0000FF
FE0000FF
FE0000FF
FE0000FF
FE0000FF
FE0000FF
FE0000FE
FE0000FE
FF0000FE
7F0001FE
7F8001FC
7F8003FC
3FE007FC
3FF01FF8
1FFFFFF0
0FFFFFE0
07FFFFC0
03FFFF80
00FFFE00
001FF000
ENDCHAR
STARTCHAR 016B
ENCODING 363
SWIDTH 568 0
DWIDTH 30 0
BBX 24 37 3 0
BITMAP
0FFFF0
0FFFF0
0FFFF0
0FFFF0
000000
000000
000000
000000
000000
FE007F
FE007F
FE007F
FE007F
FE007F
FE007F
FE007F
FE007F
FE007F
FE007F
FE007F
FE007F
FE007F
FE007F
FE007F
FE007F
FE007F
FE007F
FE007F
FE007F
FE007F
FF01FF
7F83FF
7FFFFF
3FFFFF
1FFF3F
0FFE3F
03F83F
ENDCHAR
STARTCHAR 016C
ENCODING 364
SWIDTH 738 0
DWIDTH 39 0
BBX 32 50 4 0
BITMAP
01F01F00
01F01F00
01F01F00
01F83F00
00FFFE00
00FFFE00
003FF800
000FE000
00000000
00000000
00000000
FE0000FF
FE0000FF
FE0000FF
FE0000FF
FE0000FF
FE0000FF
FE0000FF
FE0000FF
FE0000FF
FE0000FF
FE0000FF
FE0000FF
FE0000FF
FE0000FF
FE0000FF
FE0000FF
FE0000FF
FE0000FF
FE0000FF
FE0000FF
FE0000FF
FE0000FF
FE0000FF
FE0000FF
FE0000FF
FE0000FE
FE0000FE
FF0000FE
7F0001FE
7F8001FC
7F8003FC
3FE007FC
3FF01FF8
1FFFFFF0
0FFFFFE0
07FFFFC0
03FFFF80
00FFFE00
001FF000
ENDCHAR
STARTCHAR 016D
ENCODING 365
SWIDTH 568 0
DWIDTH 30 0
BBX 24 39 3 0
BITMAP
0F01F0
0F01F0
0F81E0
0F83E0
07FFE0
07FFC0
03FF80
00FE00
000000
000000
000000
FE007F
FE007F
FE007F
FE007F
FE007F
FE007F
FE007F
FE007F
FE007F
FE007F
FE007F
FE007F
FE007F
FE007F
FE007F
FE007F
FE007F
FE007F
FE007F
FE007F
FE007F
FF01FF
7F83FF
7FFFFF
3FFFFF
1FFF3F
0FFE3F
03F83F
ENDCHAR
STARTCHAR 016E
ENCODING 366
SWIDTH 738 0
DWIDTH 39 0
BBX 32 51 4 0
BITMAP
0007C000
000FF000
001FF000
003C7800
00383800
00383800
003C7800
001FF000
000FF000
0007C000
00000000
00000000
FE0000FF
FE0000FF
FE0000FF
FE0000FF
FE0000FF
FE0000FF
FE0000FF
FE0000FF
FE0000FF
FE0000FF
FE0000FF
FE0000FF
FE0000FF
FE0000FF
FE0000FF
FE0000FF
FE0000FF
FE0000FF
FE0000FF
FE0000FF
FE0000FF
FE0000FF
FE0000FF
FE0000FF
FE0000FF
FE0000FE
FE0000FE
FF0000FE
7F0001FE
7F8001FC
7F8003FC
3FE007FC
3FF01FF8
1FFFFFF0
0FFFFFE0
07FFFFC0
03FFFF80
00FFFE00
001FF000
ENDCHAR
STARTCHAR 016F
ENCODING 367
SWIDTH 568 0
DWIDTH 30 0
BBX 24 41 3 0
BITMAP
007C00
01FF00
01FF80
03C780
038380
0383C0
038380
03C780
01FF80
01FF00
007C00
000000
000000
FE007F
FE007F
FE007F
FE007F
FE007F
FE007F
FE007F
FE007F
FE007F
FE007F
FE007F
FE007F
FE007F
FE007F
FE007F
FE007F
FE007F
FE007F
FE007F
FE007F
FE007F
FF01FF
7F83FF
7FFFFF
3FFFFF
1FFF3F
0FFE3F
03F83F
ENDCHAR
STARTCHAR 0170
ENCODING 368
SWIDTH 738 0
DWIDTH 39 0
BBX 32 49 4 0
BITMAP
0007E1FC
000FC3F0
001F87E0
001F0FC0
003E1F80
007C3F00
00787C00
00000000
00000000
00000000
FE0000FF
FE0000FF
FE0000FF
FE0000FF
FE0000FF
FE0000FF
FE0000FF
FE0000FF
FE0000FF
FE0000FF
FE0000FF
FE0000FF
FE0000FF
FE0000FF
FE0000FF
FE0000FF
FE0000FF
FE0000FF
FE0000FF
FE0000FF
FE0000FF
FE0000FF
FE0000FF
FE0000FF
FE0000FF
FE0000FE
FE0000FE
FF0000FE
7F0001FE
7F8001FC
7F8003FC
3FE007FC
3FF01FF8
1FFFFFF0
0FFFFFE0
07FFFFC0
03FFFF80
00FFFE00
001FF000
ENDCHAR
STARTCHAR 0171
ENCODING 369
SWIDTH 568 0
DWIDTH 30 0
BBX 24 39 3 0
BITMAP
007E3F
00FC7E
00F8FC
01F0F8
01F1F0
03E3E0
03C7C0
078F80
000000
000000
000000
FE007F
FE007F
FE007F
FE007F
FE007F
FE007F
FE007F
FE007F
FE007F
FE007F
FE007F
FE007F
FE007F
FE007F
FE007F
FE007F
FE007F
FE007F
FE007F
FE007F
FE007F
FF01FF
7F83FF
7FFFFF
3FFFFF
1FFF3F
0FFE3F
03F83F
ENDCHAR
STARTCHAR 0172
ENCODING 370
SWIDTH 738 0
DWIDTH 39 0
BBX 32 48 4 -9
BITMAP
FE0000FF
FE0000FF
FE0000FF
FE0000FF
FE0000FF
FE0000FF
FE0000FF
FE0000FF
FE0000FF
FE0000FF
FE0000FF
FE0000FF
FE0000FF
FE0000FF
FE0000FF
FE0000FF
FE0000FF
FE0000FF
FE0000FF
FE0000FF
FE0000FF
FE0000FF
FE0000FF
FE0000FF
FE0000FF
FE0000FE
FE0000FE
FF0000FE
7F0001FE
7F8001FC
7F8003FC
3FE007FC
3FF01FF8
1FFFFFF0
0FFFFFE0
07FFFFC0
03FFFF80
00FFFE00
001FF000
0003C000
00078000
000F0000
000F0000
001F8000
001FF800
000FF800
000FFC00
0003F000
ENDCHAR
STARTCHAR 0173
ENCODING 371
SWIDTH 568 0
DWIDTH 30 0
BBX 26 37 3 -9
BITMAP
FE007F00
FE007F00
FE007F00
FE007F00
FE007F00
FE007F00
FE007F00
FE007F00
FE007F00
FE007F00
FE007F00
FE007F00
FE007F00
FE007F00
FE007F00
FE007F00
FE007F00
FE007F00
FE007F00
FE007F00
FE007F00
FF01FF00
7F83FF00
7FFFFF00
3FFFFF00
1FFF3F00
0FFE3F00
03F83F00
00001E00
00003C00
00007800
0000F800
0000F800
0000FFC0
0000FFC0
00007FC0
00003F00
ENDCHAR
STARTCHAR 0174
ENCODING 372
SWIDTH 1061 0
DWIDTH 56 0
BBX 55 50 0 0
BITMAP
0000007E000000
000000FF000000
000001FF000000
000003FF800000
000007EFC00000
00000FC7E00000
00000F83F00000
00003F81F80000
00000000000000
00000000000000
00000000000000
FF00003E0000FE
7F80007E0001FE
7F8000FF0001FC
3F8000FF0001FC
3FC000FF0003FC
3FC001FF8003FC
3FC001FF8003F8
1FC001FF8003F8
1FE003FFC007F8
1FE003FFC007F0
0FE003FFC007F0
0FF007FFE007F0
0FF007E7E00FE0
07F007E7E00FE0
07F007E7F00FE0
07F80FC3F01FE0
07F80FC3F01FC0
03F80FC3F81FC0
03F81F83F81FC0
03FC1F81F83F80
01FC1F81FC3F80
01FC3F01FC3F80
01FE3F00FC7F00
00FE3F00FE7F00
00FE7E00FE7F00
00FE7E007E7E00
007F7E007EFE00
007FFC007FFE00
007FFC003FFE00
007FFC003FFC00
003FFC003FFC00
003FF8001FFC00
003FF8001FF800
001FF8001FF800
001FF0000FF800
001FF0000FF000
000FF0000FF000
000FE0000FF000
000FE00007F000
ENDCHAR
STARTCHAR 0175
ENCODING 373
SWIDTH 814 0
DWIDTH 43 0
BBX 42 39 0 0
BITMAP
00003F800000
00007FC00000
0000FFE00000
0000FFF00000
0001F9F00000
0003F0F80000
0007E07C0000
000800020000
000000000000
000000000000
000000000000
FE001F000FC0
7F003F801FC0
7F003F801F80
3F003F801F80
3F007FC03F80
3F807FC03F00
3F807FC03F00
1F80FFE03F00
1F80FFE07E00
1FC0FBE07E00
0FC1FBE07E00
0FC1F3F07E00
0FE1F1F0FC00
07E1F1F0FC00
07E3E1F8FC00
07E3E0F9F800
03F3E0F9F800
03F7C0F9F800
03F7C0FDF000
03F7C07DF000
01FF807FF000
01FF807FE000
01FF803FE000
00FF803FE000
00FF003FE000
00FF001FC000
007F001FC000
007E001FC000
ENDCHAR
STARTCHAR 0176
ENCODING 374
SWIDTH 644 0
DWIDTH 34 0
BBX 35 50 0 0
BITMAP
0001F80000
0003FC0000
0007FC0000
000FFE0000
001FBF0000
003F1F8000
003E0FC000
00FE07E000
0000000000
0000000000
0000000000
FE00001FE0
7F00003FC0
7F80003F80
3F80007F80
3FC000FF00
1FC000FE00
1FE001FE00
0FE001FC00
07F003FC00
07F803F800
03F807F800
03FC07F000
01FC0FE000
00FE0FE000
00FE1FC000
007F1FC000
007F3F8000
003FBF0000
003FFF0000
001FFE0000
000FFE0000
000FFC0000
0007FC0000
0007F80000
0003F80000
0003F80000
0003F80000
0003F80000
0003F80000
0003F80000
0003F80000
0003F80000
0003F80000
0003F80000
0003F80000
0003F80000
0003F80000
0003F80000
0003F80000
ENDCHAR
STARTCHAR 0177
ENCODING 375
SWIDTH 530 0
DWIDTH 28 0
BBX 28 48 0 -9
BITMAP
001FC000
003FE000
007FF000
007FF800
00FCF800
01F87C00
03F03E00
04000100
00000000
00000000
00000000
FE0007F0
7F0007E0
7F000FE0
3F800FE0
3F800FC0
3F801FC0
1FC01F80
1FC01F80
0FE03F00
0FE03F00
07E07F00
07F07E00
07F07E00
03F8FC00
03F8FC00
01F8FC00
01FDF800
00FDF800
00FDF000
00FFF000
007FE000
007FE000
003FE000
003FC000
001FC000
001F8000
001F8000
003F8000
003F0000
003F0000
007E0000
007E0000
00FC0000
00FC0000
01FC0000
01F80000
03F00000
ENDCHAR
STARTCHAR 0178
ENCODING 376
SWIDTH 644 0
DWIDTH 34 0
BBX 35 48 0 0
BITMAP
0038038000
007E07C000
00FE0FE000
00FE0FE000
00FE0FE000
007E0FC000
003C038000
0000000000
0000000000
FE00001FE0
7F00003FC0
7F80003F80
3F80007F80
3FC000FF00
1FC000FE00
1FE001FE00
0FE001FC00
07F003FC00
07F803F800
03F807F800
03FC07F000
01FC0FE000
00FE0FE000
00FE1FC000
007F1FC000
007F3F8000
003FBF0000
003FFF0000
001FFE0000
000FFE0000
000FFC0000
0007FC0000
0007F80000
0003F80000
0003F80000
0003F80000
0003F80000
0003F80000
0003F80000
0003F80000
0003F80000
0003F80000
0003F80000
0003F80000
0003F80000
0003F80000
0003F80000
0003F80000
ENDCHAR
STARTCHAR 0179
ENCODING 377
SWIDTH 606 0
DWIDTH 32 0
BBX 30 51 1 0
BITMAP
00001FE0
00007FC0
0000FF80
0000FF00
0001FE00
0003FC00
0007F800
0007E000
000FC000
00000000
00000000
00000000
7FFFFFFC
7FFFFFFC
7FFFFFFC
7FFFFFFC
7FFFFFF8
7FFFFFF8
00000FF0
00001FE0
00001FC0
00003FC0
00007F80
00007F00
0000FF00
0001FE00
0003FC00
0003FC00
0007F800
000FF000
000FE000
001FE000
003FC000
003F8000
007F8000
00FF0000
01FE0000
01FE0000
03FC0000
07F80000
07F00000
0FF00000
1FE00000
1FC00000
3FC00000
7FFFFFF8
7FFFFFF8
FFFFFFF8
FFFFFFF8
FFFFFFF8
FFFFFFF8
ENDCHAR
STARTCHAR 017A
ENCODING 378
SWIDTH 454 0
DWIDTH 24 0
BBX 22 39 1 0
BITMAP
0007F8
000FE0
001FC0
001FC0
003F80
003F00
007E00
00FC00
000000
000000
000000
7FFFFC
7FFFFC
7FFFFC
7FFFFC
7FFFF8
0003F8
0007F0
000FE0
000FE0
001FC0
003F80
003F00
007F00
00FE00
01FC00
01F800
03F800
07F000
0FE000
0FE000
1FC000
3F8000
3F0000
7FFFF8
FFFFF8
FFFFF8
FFFFF8
FFFFF8
ENDCHAR
STARTCHAR 017B
ENCODING 379
SWIDTH 606 0
DWIDTH 32 0
BBX 30 50 1 0
BITMAP
00038000
000FE000
000FE000
000FF000
000FF000
000FE000
000FE000
00038000
00000000
00000000
00000000
7FFFFFFC
7FFFFFFC
7FFFFFFC
7FFFFFFC
7FFFFFF8
7FFFFFF8
00000FF0
00001FE0
00001FC0
00003FC0
00007F80
00007F00
0000FF00
0001FE00
0003FC00
0003FC00
0007F800
000FF000
000FE000
001FE000
003FC000
003F8000
007F8000
00FF0000
01FE0000
01FE0000
03FC0000
07F80000
07F00000
0FF00000
1FE00000
1FC00000
3FC00000
7FFFFFF8
7FFFFFF8
FFFFFFF8
FFFFFFF8
FFFFFFF8
FFFFFFF8
ENDCHAR
STARTCHAR 017C
ENCODING 380
SWIDTH 454 0
DWIDTH 24 0
BBX 22 40 1 0
BITMAP
003C00
00FE00
00FE00
01FF00
01FF00
00FF00
00FE00
003C00
000000
000000
000000
000000
7FFFFC
7FFFFC
7FFFFC
7FFFFC
7FFFF8
0003F8
0007F0
000FE0
000FE0
001FC0
003F80
003F00
007F00
00FE00
01FC00
01F800
03F800
07F000
0FE000
0FE000
1FC000
3F8000
3F0000
7FFFF8
FFFFF8
FFFFF8
FFFFF8
FFFFF8
ENDCHAR
STARTCHAR 017D
ENCODING 381
SWIDTH 606 0
DWIDTH 32 0
BBX 30 50 1 0
BITMAP
03E00F80
01F83F00
00FC7E00
007E7E00
003EFC00
003FF800
001FF000
000FE000
00000000
00000000
00000000
7FFFFFFC
7FFFFFFC
7FFFFFFC
7FFFFFFC
7FFFFFF8
7FFFFFF8
00000FF0
00001FE0
00001FC0
00003FC0
00007F80
00007F00
0000FF00
0001FE00
0003FC00
0003FC00
0007F800
000FF000
000FE000
001FE000
003FC000
003F8000
007F8000
00FF0000
01FE0000
01FE0000
03FC0000
07F80000
07F00000
0FF00000
1FE00000
1FC00000
3FC00000
7FFFFFF8
7FFFFFF8
FFFFFFF8
FFFFFFF8
FFFFFFF8
FFFFFFF8
ENDCHAR
STARTCHAR 017E
ENCODING 382
SWIDTH 454 0
DWIDTH 24 0
BBX 22 39 1 0
BITMAP
3F01F8
0F83F0
0FC7E0
07EFC0
03FF80
01FF00
00FE00
000000
000000
000000
000000
7FFFFC
7FFFFC
7FFFFC
7FFFFC
7FFFF8
0003F8
0007F0
000FE0
000FE0
001FC0
003F80
003F00
007F00
00FE00
01FC00
01F800
03F800
07F000
0FE000
0FE000
1FC000
3F8000
3F0000
7FFFF8
FFFFF8
FFFFF8
FFFFF8
FFFFF8
ENDCHAR
STARTCHAR 017F
ENCODING 383
SWIDTH 303 0
DWIDTH 16 0
BBX 18 39 1 0
BITMAP
001FC0
00FFC0
01FFC0
03FFC0
07FF80
07F800
0FF000
0FE000
0FE000
0FE000
0FE000
FFE000
FFE000
FFE000
FFE000
7FE000
0FE000
0FE000
0FE000
0FE000
0FE000
0FE000
0FE000
0FE000
0FE000
0FE000
0FE000
0FE000
0FE000
0FE000
0FE000
0FE000
0FE000
0FE000
0FE000
0FE000
0FE000
0FE000
0FE000
ENDCHAR
STARTCHAR 0180
ENCODING 384
SWIDTH 568 0
DWIDTH 30 0
BBX 29 40 -1 0
BITMAP
0FE00000
0FE00000
0FE00000
0FE00000
0FE00000
FFFF8000
FFFF8000
FFFF8000
FFFF8000
0FE00000
0FE00000
0FE00000
0FE0FC00
0FE3FF00
0FEFFFC0
0FFFFFC0
0FFFFFE0
0FFC1FF0
0FF807F0
0FF007F0
0FE003F8
0FE003F8
0FE003F8
0FE003F8
0FE003F8
0FE003F8
0FE003F8
0FE003F8
0FE003F8
0FE003F8
0FE003F8
0FE007F0
0FE007F0
0FF00FF0
0FF81FE0
0FFFFFC0
0FFFFFC0
0FDFFF80
0FCFFE00
0FC3F800
ENDCHAR
STARTCHAR 0181
ENCODING 385
SWIDTH 833 0
DWIDTH 44 0
BBX 40 39 1 0
BITMAP
01FFFFFC00
07FFFFFFC0
1FFFFFFFE0
3FFFFFFFF8
7FFFFFFFFC
7F0FE007FC
FE0FE001FE
FC0FE001FE
FC0FE000FE
FC0FE000FE
FC0FE000FE
FC0FE000FE
FC0FE000FE
FC0FE000FE
700FE001FC
000FE003FC
000FE00FF8
000FFFFFE0
000FFFFFC0
000FFFFFC0
000FFFFFF0
000FFFFFFC
000FE003FE
000FE000FE
000FE000FF
000FE0007F
000FE0007F
000FE0007F
000FE0007F
000FE0007F
000FE0007F
000FE000FF
000FE001FE
000FE003FE
000FFFFFFC
000FFFFFF8
000FFFFFF0
000FFFFFC0
000FFFFE00
ENDCHAR
STARTCHAR 0182
ENCODING 386
SWIDTH 625 0
DWIDTH 33 0
BBX 28 39 4 0
BITMAP
FFFFFFC0
FFFFFFC0
FFFFFFC0
FFFFFFC0
FFFFFFC0
FE000000
FE000000
FE000000
FE000000
FE000000
FE000000
FE000000
FE000000
FE000000
FE000000
FE000000
FE000000
FFFFE000
FFFFFC00
FFFFFF00
FFFFFF80
FFFFFFC0
FE007FC0
FE001FE0
FE000FE0
FE000FF0
FE000FF0
FE0007F0
FE0007F0
FE000FE0
FE000FE0
FE000FE0
FE001FE0
FE007FC0
FFFFFF80
FFFFFF00
FFFFFE00
FFFFF800
FFFFC000
ENDCHAR
STARTCHAR 0183
ENCODING 387
SWIDTH 568 0
DWIDTH 30 0
BBX 25 40 3 0
BITMAP
FFFFFE00
FFFFFE00
FFFFFE00
FFFFFE00
FFFFFE00
FE000000
FE000000
FE000000
FE000000
FE000000
FE000000
FE000000
FE0FC000
FE3FF000
FEFFF800
FFFFFC00
FFFFFE00
FFC1FF00
FF807F00
FF007F00
FE003F80
FE003F80
FE003F80
FE003F80
FE003F80
FE003F80
FE003F80
FE003F80
FE003F80
FE003F80
FE003F80
FE007F00
FE007F00
FF00FF00
FF81FE00
FFFFFC00
FFFFFC00
FDFFF800
FCFFE000
FC3F8000
ENDCHAR
STARTCHAR 0184
ENCODING 388
SWIDTH 701 0
DWIDTH 37 0
BBX 35 39 1 0
BITMAP
00F8000000
01F8000000
03F8000000
03F8000000
07F8000000
0FF8000000
1FF8000000
3FF8000000
3FF8000000
7FF8000000
FFF8000000
FFF8000000
3FF8000000
1FF8000000
07FFFF8000
03FFFFF000
03FFFFFC00
03FFFFFE00
03FFFFFF00
03F800FF80
03F8003FC0
03F8001FC0
03F8001FE0
03F8000FE0
03F8000FE0
03F8000FE0
03F8000FE0
03F8000FE0
03F8000FE0
03F8000FE0
03F8001FE0
03F8001FC0
03F8003FC0
03F800FF80
03FFFFFF00
03FFFFFE00
03FFFFFC00
03FFFFF000
03FFFFC000
ENDCHAR
STARTCHAR 0185
ENCODING 389
SWIDTH 587 0
DWIDTH 31 0
BBX 31 40 -2 0
BITMAP
00F80000
01F80000
03F80000
07F80000
07F80000
0FF80000
1FF80000
3FF80000
7FF80000
FFF80000
3FF80000
1FF80000
07F83F00
03F8FFC0
03FBFFF0
03FFFFF8
03FFFFF8
03FF07FC
03FE01FC
03FC01FE
03F800FE
03F800FE
03F800FE
03F8007E
03F8007E
03F8007E
03F8007E
03F8007E
03F800FE
03F800FE
03F800FE
03F800FE
03F801FC
03FC03FC
03FE07F8
03FFFFF8
03FFFFF0
03F7FFE0
03F1FF80
03F07E00
ENDCHAR
STARTCHAR 0186
ENCODING 390
SWIDTH 663 0
DWIDTH 35 0
BBX 32 39 1 0
BITMAP
007FC000
07FFF800
0FFFFE00
3FFFFF80
FFFFFFC0
7FFFFFE0
7F807FF0
3E001FF8
180007F8
000003FC
000003FC
000001FE
000000FE
000000FE
000000FF
000000FF
0000007F
0000007F
0000007F
0000007F
0000007F
0000007F
0000007F
000000FF
000000FF
000000FE
000001FE
000001FE
000003FC
000007FC
38000FF8
7E001FF8
FF807FF0
FFFFFFE0
7FFFFFC0
3FFFFF80
0FFFFE00
03FFF800
007FC000
ENDCHAR
STARTCHAR 0187
ENCODING 391
SWIDTH 663 0
DWIDTH 35 0
BBX 40 48 2 0
BITMAP
00000001FE
00000007FF
0000000FFF
0000000FFF
0000001FFE
0000001FC0
0000003F80
0000003F00
0000003F00
0003FF3F00
001FFFFF00
007FFFFF00
00FFFFFF00
03FFFFFF00
07FFFFFF00
0FFE01FE00
0FF8007C00
1FF0001800
3FE0000000
3FC0000000
7F80000000
7F80000000
7F00000000
7F00000000
FF00000000
FF00000000
FE00000000
FE00000000
FE00000000
FE00000000
FE00000000
FF00000000
FF00000000
7F00000000
7F00000000
7F80000000
7F80000000
3FC0000000
3FE0000000
1FF0001C00
1FF8003E00
0FFF01FF00
07FFFFFF00
03FFFFFE00
01FFFFFC00
007FFFF800
001FFFE000
0003FF0000
ENDCHAR
STARTCHAR 0188
ENCODING 392
SWIDTH 492 0
DWIDTH 26 0
BBX 29 39 2 0
BITMAP
000003F0
00000FF8
00001FF8
00003FF8
00003FF8
00007E00
00007E00
00007E00
00007C00
00007C00
00007C00
007FFC00
03FFFC00
07FFFC00
0FFFFC00
1FFFFC00
3FE0F800
7F803000
7F000000
7F000000
FE000000
FE000000
FE000000
FE000000
FE000000
FE000000
FE000000
FE000000
FE000000
FE000000
7F000000
7F000000
7F803800
3FE0FC00
1FFFFE00
0FFFFC00
07FFF800
03FFE000
007F0000
ENDCHAR
STARTCHAR 0189
ENCODING 393
SWIDTH 776 0
DWIDTH 41 0
BBX 39 39 0 0
BITMAP
07FFFF0000
07FFFFE000
07FFFFF800
07FFFFFE00
07FFFFFF00
07FFFFFF80
07F001FFC0
07F0003FE0
07F0001FF0
07F0000FF0
07F00007F8
07F00003F8
07F00003FC
07F00003FC
07F00001FC
07F00001FC
07F00001FE
FFFFE001FE
FFFFE001FE
FFFFE001FE
FFFFE001FE
07F00001FE
07F00001FE
07F00001FC
07F00001FC
07F00003FC
07F00003FC
07F00003F8
07F00007F8
07F0000FF0
07F0001FF0
07F0003FE0
07F001FFC0
07FFFFFFC0
07FFFFFF00
07FFFFFE00
07FFFFFC00
07FFFFF000
07FFFF0000
ENDCHAR
STARTCHAR 018A
ENCODING 394
SWIDTH 928 0
DWIDTH 49 0
BBX 46 39 1 0
BITMAP
01FFFFFE0000
07FFFFFFE000
1FFFFFFFF800
3FFFFFFFFC00
7FFFFFFFFE00
7FEFFFFFFF80
FE0FE003FF80
FC0FE0007FC0
FC0FE0003FE0
FC0FE0001FF0
FC0FE0000FF0
FC0FE00007F0
FC0FE00007F8
FC0FE00003F8
700FE00003F8
000FE00003FC
000FE00003FC
000FE00001FC
000FE00001FC
000FE00001FC
000FE00001FC
000FE00003FC
000FE00003FC
000FE00003FC
000FE00003F8
000FE00003F8
000FE00007F8
000FE00007F0
000FE0000FF0
000FE0001FF0
000FE0003FE0
000FE0007FC0
000FE003FFC0
000FFFFFFF80
000FFFFFFF00
000FFFFFFC00
000FFFFFF800
000FFFFFE000
000FFFFE0000
ENDCHAR
STARTCHAR 018B
ENCODING 395
SWIDTH 625 0
DWIDTH 33 0
BBX 27 39 2 0
BITMAP
7FFFFFE0
7FFFFFE0
7FFFFFE0
7FFFFFE0
7FFFFFE0
00000FE0
00000FE0
00000FE0
00000FE0
00000FE0
00000FE0
00000FE0
00000FE0
00000FE0
00000FE0
00000FE0
00000FE0
007FFFE0
07FFFFE0
0FFFFFE0
3FFFFFE0
7FFFFFE0
7FC00FE0
FF000FE0
FF000FE0
FE000FE0
FE000FE0
FE000FE0
FE000FE0
FE000FE0
FE000FE0
FF000FE0
7F800FE0
7FC00FE0
3FFFFFE0
1FFFFFE0
0FFFFFE0
03FFFFE0
007FFFE0
ENDCHAR
STARTCHAR 018C
ENCODING 396
SWIDTH 568 0
DWIDTH 30 0
BBX 25 40 2 0
BITMAP
3FFFFF80
3FFFFF80
3FFFFF80
3FFFFF80
3FFFFF80
00003F80
00003F80
00003F80
00003F80
00003F80
00003F80
00003F80
00FE3F80
03FFBF80
07FFFF80
1FFFFF80
1FFFFF80
3FE0FF80
7F807F80
7F003F80
7F003F80
FE003F80
FE003F80
FE003F80
FE003F80
FE003F80
FE003F80
FE003F80
FE003F80
FE003F80
FE003F80
FE003F80
7F003F80
7F007F80
7FC1FF80
3FFFFF80
1FFFDF80
0FFF9F80
07FF1F80
01F80F80
ENDCHAR
STARTCHAR 018D
ENCODING 397
SWIDTH 530 0
DWIDTH 28 0
BBX 26 39 1 0
BITMAP
007F8000
03FFF000
07FFF800
1FFFFC00
3FFFFE00
3FC1FF00
7F807F80
7F003F80
FE003F80
FE001FC0
FE001FC0
FC001FC0
FC001FC0
FC001FC0
FE001FC0
FE001FC0
FE001FC0
7F003F80
7F003F80
3F807F00
3FC0FF00
1FF1FE00
0FFFFC00
07FFF000
03FFC000
01FFC000
007FF000
001FF800
0007F800
0003FC00
0001FC00
0000FE00
0000FE00
1FC0FC00
1FFFFC00
1FFFFC00
1FFFF800
1FFFF000
07FF8000
ENDCHAR
STARTCHAR 018E
ENCODING 398
SWIDTH 568 0
DWIDTH 30 0
BBX 24 39 2 0
BITMAP
FFFFFF
FFFFFF
FFFFFF
FFFFFF
FFFFFF
FFFFFF
00007F
00007F
00007F
00007F
00007F
00007F
00007F
00007F
00007F
00007F
00007F
1FFFFF
1FFFFF
1FFFFF
1FFFFF
1FFFFF
00007F
00007F
00007F
00007F
00007F
00007F
00007F
00007F
00007F
00007F
00007F
FFFFFF
FFFFFF
FFFFFF
FFFFFF
FFFFFF
FFFFFF
ENDCHAR
STARTCHAR 018F
ENCODING 399
SWIDTH 738 0
DWIDTH 39 0
BBX 35 39 2 0
BITMAP
001FF80000
01FFFF0000
07FFFFC000
1FFFFFE000
3FFFFFF800
7FFFFFFC00
FFE01FFC00
3F8003FE00
3E0001FF00
000000FF00
0000007F80
0000003F80
0000003FC0
0000003FC0
0000001FC0
0000001FC0
0000001FC0
0000001FE0
FFFFFFFFE0
FFFFFFFFE0
FFFFFFFFE0
FFFFFFFFE0
FFFFFFFFE0
FE00001FE0
FE00001FC0
FE00001FC0
FE00003FC0
7F00003FC0
7F00007F80
7F80007F80
3FC000FF00
3FE003FE00
1FF80FFE00
0FFFFFFC00
07FFFFF800
03FFFFF000
01FFFFC000
007FFF0000
000FF80000
ENDCHAR
STARTCHAR 0190
ENCODING 400
SWIDTH 587 0
DWIDTH 31 0
BBX 29 39 2 0
BITMAP
001FF000
01FFFE00
07FFFF80
0FFFFFE0
1FFFFFF0
3FFFFFE0
3FF01FE0
7FC003C0
7F800000
7F800000
7F800000
7F800000
7F800000
3FC00000
1FF00000
0FFFFC00
07FFFC00
03FFFC00
07FFFC00
1FFFFC00
1FF00000
3FC00000
7F800000
7F000000
FF000000
FF000000
FF000000
FF000000
FF000000
FF0000C0
7F8001E0
7FC003F0
3FF01FF8
3FFFFFF0
1FFFFFE0
0FFFFFC0
07FFFF00
01FFFC00
003FE000
ENDCHAR
STARTCHAR 0191
ENCODING 401
SWIDTH 568 0
DWIDTH 30 0
BBX 32 49 -4 -10
BITMAP
00FFFFFF
00FFFFFF
00FFFFFF
00FFFFFF
00FFFFFF
00FFFFFF
00FE0000
00FE0000
00FE0000
00FE0000
00FE0000
00FE0000
00FE0000
00FE0000
00FE0000
00FE0000
00FE0000
00FE0000
00FFFFFC
00FFFFFC
00FFFFFC
00FFFFFC
00FFFFFC
00FFFFFC
00FE0000
00FE0000
00FE0000
00FE0000
00FE0000
00FE0000
00FE0000
00FE0000
00FE0000
00FE0000
00FE0000
00FE0000
00FE0000
00FE0000
00FE0000
00FE0000
00FE0000
00FE0000
01FE0000
7FFE0000
7FFC0000
FFFC0000
FFF80000
FFF00000
3F800000
ENDCHAR
STARTCHAR 0192
ENCODING 402
SWIDTH 360 0
DWIDTH 19 0
BBX 22 49 -4 -10
BITMAP
0001FC
0007FC
001FFC
003FFC
003FFC
007F80
007F00
007E00
007E00
007E00
007E00
07FFFC
07FFFC
07FFFC
07FFFC
03FFFC
007E00
007E00
007E00
007E00
007E00
007E00
007E00
007E00
007E00
007E00
007E00
007E00
007E00
007E00
007E00
007E00
007E00
007E00
007E00
007E00
007E00
007E00
007E00
007E00
007E00
00FE00
00FE00
01FC00
7FFC00
7FF800
7FF000
FFE000
3F8000
ENDCHAR
STARTCHAR 0193
ENCODING 403
SWIDTH 738 0
DWIDTH 39 0
BBX 42 48 2 0
BITMAP
000000007F80
00000001FFC0
00000003FFC0
00000007FFC0
00000007FF80
00000007F000
0000000FE000
0000000FC000
0000000FC000
0001FF8FC000
001FFFFFC000
007FFFFFC000
00FFFFFFC000
03FFFFFFC000
07FFFFFF8000
0FFF00FF8000
0FF8001F0000
1FF0000F0000
3FE000000000
3FC000000000
7F8000000000
7F8000000000
7F0000000000
7F0000000000
FF0000000000
FF0000000000
FE0000000000
FE0000000000
FE0007FFC000
FE0007FFC000
FE0007FFC000
FE0007FFC000
FF0007FFC000
7F00001FC000
7F00001FC000
7F00001FC000
7F80001FC000
3F80001FC000
3FC0001FC000
1FE0001FC000
0FF0001FC000
0FFC001FC000
07FF00FFC000
03FFFFFFC000
00FFFFFFC000
007FFFFF0000
001FFFFC0000
0001FFC00000
ENDCHAR
STARTCHAR 0194
ENCODING 404
SWIDTH 701 0
DWIDTH 37 0
BBX 39 39 -1 0
BITMAP
FF000001FE
7F800003FC
3FC00003F8
3FC00007F0
1FE0000FF0
0FF0000FE0
0FF0001FC0
07F8003FC0
03FC003F80
03FC007F00
01FE00FF00
00FF00FE00
00FF01FC00
007F81FC00
003FC3F800
001FC7F000
001FE7F000
000FFFE000
0007FFC000
0007FFC000
0003FF8000
0001FF0000
0001FF0000
0003FF0000
0003FF8000
0007FFC000
000FFFE000
001FEFE000
001FC7F000
003FC7F800
007F83F800
007F01FC00
00FF01FE00
01FE00FF00
03FFFFFF00
03FFFFFF80
07FFFFFFC0
0FFFFFFFC0
1FFFFFFFF0
ENDCHAR
STARTCHAR 0195
ENCODING 405
SWIDTH 852 0
DWIDTH 45 0
BBX 39 40 3 0
BITMAP
FE00000000
FE00000000
FE00000000
FE00000000
FE00000000
FE00000000
FE00000000
FE00000000
FE00000000
FE00000000
FE00000000
FE00000000
FE1FC0007E
FE7FF0007E
FEFFF8007E
FFFFFC007E
FFFFFE007E
FFC1FE007E
FF80FE007E
FE007F007E
FE007F007E
FE007F007E
FE007F007E
FE007F007E
FE007F007E
FE007F007E
FE007F007E
FE007F007E
FE007F007E
FE007F007E
FE007F007E
FE007F00FE
FE003F00FE
FE003F80FE
FE003FC3FC
FE001FFFFC
FE001FFFF8
FE000FFFF0
FE0003FFE0
FE0000FF00
ENDCHAR
STARTCHAR 0196
ENCODING 406
SWIDTH 341 0
DWIDTH 18 0
BBX 13 39 4 0
BITMAP
FE00
FE00
FE00
FE00
FE00
FE00
FE00
FE00
FE00
FE00
FE00
FE00
FE00
FE00
FE00
FE00
FE00
FE00
FE00
FE00
FE00
FE00
FE00
FE00
FE00
FE00
FE00
FE00
FE00
FE00
FE00
FE00
FF00
FFC0
7FF8
7FF8
3FF8
1FF8
07E0
ENDCHAR
STARTCHAR 0197
ENCODING 407
SWIDTH 322 0
DWIDTH 17 0
BBX 17 39 0 0
BITMAP
07F000
07F000
07F000
07F000
07F000
07F000
07F000
07F000
07F000
07F000
07F000
07F000
07F000
07F000
07F000
07F000
07F000
FFFF80
FFFF80
FFFF80
FFFF80
07F000
07F000
07F000
07F000
07F000
07F000
07F000
07F000
07F000
07F000
07F000
07F000
07F000
07F000
07F000
07F000
07F000
07F000
ENDCHAR
STARTCHAR 0198
ENCODING 408
SWIDTH 720 0
DWIDTH 38 0
BBX 33 39 4 0
BITMAP
FE0000FF80
FE0003FF80
FE0007FF80
FE000FFF80
FE001FFF80
FE003FE000
FE003F8000
FE007F0000
FE00FF0000
FE00FE0000
FE01FE0000
FE01FC0000
FE03FC0000
FE07F80000
FE07F00000
FE0FF00000
FE1FE00000
FFFFC00000
FFFF800000
FFFFC00000
FFFFE00000
FFFFF00000
FE0FF80000
FE07F80000
FE03FC0000
FE03FE0000
FE01FF0000
FE00FF0000
FE007F8000
FE007FC000
FE003FE000
FE001FE000
FE000FF000
FE000FF800
FE0007F800
FE0003FC00
FE0001FE00
FE0001FF00
FE0000FF80
ENDCHAR
STARTCHAR 0199
ENCODING 409
SWIDTH 530 0
DWIDTH 28 0
BBX 25 39 3 0
BITMAP
01F80000
0FFE0000
1FFE0000
3FFE0000
3FFC0000
7F800000
7F000000
7E000000
FE000000
FE000000
FE000000
FE007F80
FE00FF00
FE00FE00
FE01FC00
FE03F800
FE07F800
FE07F000
FE0FE000
FE1FC000
FE3F8000
FE7F8000
FFFF0000
FFFE0000
FFFE0000
FFFF0000
FFFF8000
FE3F8000
FE1FC000
FE1FE000
FE0FE000
FE07F000
FE07F800
FE03FC00
FE01FC00
FE00FE00
FE00FF00
FE007F00
FE003F80
ENDCHAR
STARTCHAR 019A
ENCODING 410
SWIDTH 284 0
DWIDTH 15 0
BBX 14 40 1 0
BITMAP
1FC0
1FC0
1FC0
1FC0
1FC0
1FC0
1FC0
1FC0
1FC0
1FC0
1FC0
1FC0
1FC0
1FC0
1FC0
1FC0
1FC0
FFFC
FFFC
FFFC
FFFC
FFFC
1FC0
1FC0
1FC0
1FC0
1FC0
1FC0
1FC0
1FC0
1FC0
1FC0
1FC0
1FC0
1FC0
1FC0
1FC0
1FC0
1FC0
1FC0
ENDCHAR
STARTCHAR 019B
ENCODING 411
SWIDTH 549 0
DWIDTH 29 0
BBX 28 39 0 0
BITMAP
1F800000
3FE00000
3FF00000
3FF00000
3FF80000
03F82000
01FCE000
00FFF000
00FFF000
01FFE000
1FFF0000
0FFE0000
0FFF0000
0F3F0000
083F0000
003F8000
003F8000
007FC000
007FC000
00FFC000
00FFE000
01FFE000
01FFE000
01F3F000
03F3F000
03F3F000
07E1F800
07E1F800
0FE1F800
0FC0FC00
0FC0FC00
1FC07E00
1F807E00
3F807F00
3F803FF0
7F003FF0
7F001FF0
7F000FF0
FE0003E0
ENDCHAR
STARTCHAR 019C
ENCODING 412
SWIDTH 1098 0
DWIDTH 58 0
BBX 50 39 4 0
BITMAP
FE0007F0003FC0
FE0007F0003FC0
FE0007F0003FC0
FE0007F0003FC0
FE0007F0003FC0
FE0007F0003FC0
FE0007F0003FC0
FE0007F0003FC0
FE0007F0003FC0
FE0007F0003FC0
FE0007F0003FC0
FE0007F0003FC0
FE0007F0003FC0
FE0007F0003FC0
FE0007F0003FC0
FE0007F0003FC0
FE0007F0003FC0
FE0007F0003FC0
FE0007F0003FC0
FE0007F0003FC0
FE0007F0003FC0
FE0007F0003FC0
FE0007F0003FC0
FE0007F0003FC0
FE0007F0003FC0
FE0007F0003FC0
FE0007F0003FC0
FE0007F8003FC0
FE0007F8003FC0
FF000FF8007FC0
7F000FF8007FC0
7F801FFC00FFC0
7FC03FFE01FFC0
3FE07EFF07FFC0
3FFFFEFFFFDFC0
1FFFFC7FFF9FC0
0FFFF83FFF0FC0
03FFE01FFE0FC0
00FF0003F80FC0
ENDCHAR
STARTCHAR 019D
ENCODING 413
SWIDTH 776 0
DWIDTH 41 0
BBX 41 49 -4 -10
BITMAP
00FC00003F80
00FE00003F80
00FE00003F80
00FF00003F80
00FF80003F80
00FFC0003F80
00FFE0003F80
00FFE0003F80
00FFF0003F80
00FFF8003F80
00FFFC003F80
00FFFE003F80
00FDFE003F80
00FCFF003F80
00FEFF803F80
00FE7FC03F80
00FE3FC03F80
00FE1FE03F80
00FE0FF03F80
00FE0FF83F80
00FE07FC3F80
00FE03FC3F80
00FE01FE3F80
00FE01FF3F80
00FE00FFBF80
00FE007FBF80
00FE003FFF80
00FE003FFF80
00FE001FFF80
00FE000FFF80
00FE0007FF80
00FE0003FF80
00FE0003FF80
00FE0001FF80
00FE0000FF80
00FE00007F80
00FE00007F80
00FE00003F80
00FE00001F80
00FE00000000
00FC00000000
00FC00000000
00FC00000000
01FC00000000
7FF800000000
7FF800000000
FFF000000000
FFE000000000
7F8000000000
ENDCHAR
STARTCHAR 019E
ENCODING 414
SWIDTH 606 0
DWIDTH 32 0
BBX 28 37 1 -9
BITMAP
7C01FC00
FF07FF00
FF9FFF80
FFBFFFC0
FFFFFFE0
1FFC1FE0
0FF80FF0
0FE007F0
0FE007F0
0FE007F0
0FE007F0
0FE007F0
0FE007F0
0FE007F0
0FE007F0
0FE007F0
0FE007F0
0FE007F0
0FE007F0
0FE007F0
0FE007F0
0FE007F0
0FE007F0
0FE007F0
0FE007F0
0FE007F0
0FE007F0
0FE007F0
000007F0
000007F0
000007F0
000007F0
000007F0
000007F0
000007F0
000007F0
000007F0
ENDCHAR
STARTCHAR 019F
ENCODING 415
SWIDTH 814 0
DWIDTH 43 0
BBX 39 39 2 0
BITMAP
0001FF0000
001FFFE000
007FFFF800
00FFFFFE00
03FFFFFF00
07FFFFFF80
0FFF01FFC0
0FF8003FE0
1FF0001FF0
3FC0000FF0
3FC00007F8
7F800003F8
7F800003FC
7F000001FC
7F000001FC
FF000001FC
FFFFFFFFFE
FFFFFFFFFE
FFFFFFFFFE
FFFFFFFFFE
FFFFFFFFFE
FE000001FE
FF000001FE
FF000001FC
7F000001FC
7F000003FC
7F800003FC
7F800007F8
3FC00007F8
3FE0000FF0
1FF0001FF0
0FF8007FE0
0FFF01FFC0
07FFFFFF80
03FFFFFF00
00FFFFFE00
007FFFFC00
001FFFE000
0001FF0000
ENDCHAR
STARTCHAR 01A0
ENCODING 416
SWIDTH 871 0
DWIDTH 46 0
BBX 43 43 2 0
BITMAP
0000000007E0
000000000FE0
000000001FE0
000000001FE0
0001FF000FE0
001FFFE00FE0
007FFFF80FC0
00FFFFFE0FC0
03FFFFFF0F80
07FFFFFFBF80
0FFF01FFFF00
0FF8003FFC00
1FF0001FF000
3FE0000FF000
3FC00007F800
7F800003F800
7F800003FC00
7F000001FC00
7F000001FC00
FF000001FC00
FF000001FE00
FE000001FE00
FE000001FE00
FE000000FE00
FE000001FE00
FE000001FE00
FE000001FE00
FF000001FC00
7F000001FC00
7F000001FC00
7F800003FC00
7F800003F800
3FC00007F800
3FE0000FF000
1FF0001FF000
0FF8003FE000
0FFF01FFC000
07FFFFFF8000
03FFFFFF0000
00FFFFFE0000
007FFFFC0000
001FFFE00000
0001FF000000
ENDCHAR
STARTCHAR 01A1
ENCODING 417
SWIDTH 625 0
DWIDTH 33 0
BBX 32 32 2 0
BITMAP
0000003F
0000007F
0000007F
0000007F
007F803F
01FFF03F
07FFFC3E
0FFFFE3E
1FFFFF7C
3FE0FFF8
7F803FF0
7F003FC0
7E001FC0
FE001FC0
FE000FC0
FE000FC0
FE000FE0
FE000FE0
FE000FE0
FE000FE0
FE000FE0
FE000FC0
FE001FC0
7E001FC0
7F003F80
7F803F80
3FC0FF00
1FFFFF00
0FFFFE00
07FFFC00
01FFF000
007F8000
ENDCHAR
STARTCHAR 01A2
ENCODING 418
SWIDTH 1042 0
DWIDTH 55 0
BBX 49 48 2 -9
BITMAP
0003FE000FC000
003FFFC07FF800
007FFFF0FFFC00
01FFFFF9FFFE00
03FFFFFFFFFE00
07FFFFFFFFFF00
0FFE03FFE1FF00
1FF800FF807F00
1FE0007F807F00
3FC0003FC07F00
3FC0001FC07F80
7F80001FE07F80
7F80000FE07F80
7F00000FF07F80
7F00000FF07F80
FF000007F07F80
FF000007F07F80
FE000007F07F80
FE000007F07F80
FE000007F07F80
FE000007F07F80
FE000007F07F80
FF000007F07F80
FF000007F07F80
7F00000FF07F80
7F00000FF07F80
7F80000FE07F80
7F80001FE07F80
3FC0001FE07F80
3FC0003FC07F80
1FE0007FC07F80
1FF800FF807F80
0FFE03FF007F80
07FFFFFF007F80
03FFFFFE007F80
01FFFFF8007F80
007FFFF0007F80
001FFFC0007F80
0003FE00007F80
00000000007F80
00000000007F80
00000000007F80
00000000007F80
00000000007F80
00000000007F80
00000000007F80
00000000007F80
00000000007F80
ENDCHAR
STARTCHAR 01A3
ENCODING 419
SWIDTH 814 0
DWIDTH 43 0
BBX 38 37 2 -9
BITMAP
007F801F80
01FFF07FE0
07FFFDFFF0
0FFFFFFFF8
1FFFFFFFF8
3FE0FFE3FC
7F807F81FC
7F003F81FC
7E003F80FC
FE003F80FC
FE003F80FC
FE003F80FC
FE003F80FC
FE003F80FC
FE003F80FC
FE003F80FC
FE003F80FC
FE003F80FC
FE003F80FC
7E003F80FC
7F003F80FC
7F807F00FC
3FC0FF00FC
1FFFFE00FC
0FFFFC00FC
07FFF800FC
01FFF000FC
007F8000FC
00000000FC
00000000FC
00000000FC
00000000FC
00000000FC
00000000FC
00000000FC
00000000FC
00000000FC
ENDCHAR
STARTCHAR 01A4
ENCODING 420
SWIDTH 776 0
DWIDTH 41 0
BBX 39 39 1 0
BITMAP
01FFFFF800
07FFFFFF80
1FFFFFFFC0
3FFFFFFFF0
7FFFFFFFF8
7F0FE00FF8
FE0FE003FC
FC0FE001FC
FC0FE001FE
FC0FE000FE
FC0FE000FE
FC0FE000FE
FC0FE000FE
FC0FE000FE
700FE000FE
000FE000FE
000FE001FE
000FE001FC
000FE003FC
000FE00FF8
000FFFFFF0
000FFFFFF0
000FFFFFC0
000FFFFF00
000FFFF800
000FE00000
000FE00000
000FE00000
000FE00000
000FE00000
000FE00000
000FE00000
000FE00000
000FE00000
000FE00000
000FE00000
000FE00000
000FE00000
000FE00000
ENDCHAR
STARTCHAR 01A5
ENCODING 421
SWIDTH 568 0
DWIDTH 30 0
BBX 25 48 3 -9
BITMAP
01F80000
0FFE0000
1FFE0000
3FFE0000
3FFC0000
7F800000
7F000000
7E000000
FE000000
FE000000
FE000000
FE0FC000
FE3FF000
FEFFF800
FFFFFC00
FFFFFE00
FFC1FF00
FF807F00
FF007F00
FE003F80
FE003F80
FE003F80
FE003F80
FE003F80
FE003F80
FE003F80
FE003F80
FE003F80
FE003F80
FE003F80
FE007F00
FE007F00
FF00FF00
FF81FE00
FFFFFC00
FFFFFC00
FFFFF800
FEFFE000
FE3F8000
FE000000
FE000000
FE000000
FE000000
FE000000
FE000000
FE000000
FE000000
FE000000
ENDCHAR
STARTCHAR 01A6
ENCODING 422
SWIDTH 625 0
DWIDTH 33 0
BBX 30 44 4 -5
BITMAP
FE000000
FE000000
FE000000
FE000000
FE000000
FE000000
FFFF8000
FFFFF800
FFFFFC00
FFFFFF00
FFFFFF80
FE00FF80
FE003FC0
FE001FC0
FE001FC0
FE000FE0
FE000FE0
FE000FE0
FE000FE0
FE001FC0
FE001FC0
FE003FC0
FE007F80
FE01FF80
FFFFFF00
FFFFFE00
FFFFF800
FFFFE000
FFFFE000
FE0FF000
FE07F800
FE03FC00
FE03FC00
FE01FE00
FE00FF00
FE00FF00
FE007F80
FE003FC0
FE003FC0
00001FE0
00000FF0
00000FF0
000007F8
000007FC
ENDCHAR
STARTCHAR 01A7
ENCODING 423
SWIDTH 549 0
DWIDTH 29 0
BBX 26 39 2 0
BITMAP
00FF0000
07FFE000
1FFFF000
7FFFF800
7FFFFC00
7FFFFE00
3F83FE00
3C00FF00
08007F00
00007F00
00007F00
00007F00
00007F00
0000FF00
0001FF00
0007FE00
001FFE00
00FFFC00
03FFF800
0FFFF000
1FFFC000
3FFE0000
7FF00000
FFC00000
FF000000
FE000000
FE000000
FE000000
FE000000
FE000000
FE000E00
FF003F00
7FC0FF80
7FFFFFC0
3FFFFF80
1FFFFF00
0FFFFC00
03FFF000
00FF8000
ENDCHAR
STARTCHAR 01A8
ENCODING 424
SWIDTH 435 0
DWIDTH 23 0
BBX 21 28 1 0
BITMAP
01FC00
0FFF80
3FFFC0
7FFFE0
3FFFF0
3E0FF0
1003F0
0003F0
0003F0
0007F0
000FF0
003FE0
01FFC0
07FF80
1FFE00
3FF800
7FC000
7F0000
7E0000
FE0000
FE0000
7E00E0
7F03F0
7FFFF0
3FFFF8
1FFFE0
0FFFC0
01FE00
ENDCHAR
STARTCHAR 01A9
ENCODING 425
SWIDTH 606 0
DWIDTH 32 0
BBX 29 39 2 0
BITMAP
FFFFFFF8
FFFFFFF8
FFFFFFF8
FFFFFFF8
FFFFFFF8
7F800000
3FC00000
3FE00000
1FF00000
0FF80000
07F80000
03FC0000
01FE0000
01FF0000
00FF8000
007F8000
003FC000
001FE000
000FE000
0007E000
000FE000
001FC000
003F8000
007F8000
00FF0000
00FE0000
01FC0000
03F80000
07F80000
0FF00000
1FE00000
3FC00000
3F800000
7F000000
FFFFFFF8
FFFFFFF8
FFFFFFF8
FFFFFFF8
FFFFFFF8
ENDCHAR
STARTCHAR 01AA
ENCODING 426
SWIDTH 360 0
DWIDTH 19 0
BBX 27 51 -3 -10
BITMAP
03F00000
0FFE0000
3FFF0000
3FFF8000
7FFF8000
7E1FC000
FE0FC000
FC0FC000
FC0FC000
FC0FC000
FC0FC000
FE1FC000
7FFFC000
7FFFC000
3FFFC000
1FFFC000
07EFC000
000FC000
000FC000
000FC000
000FC000
000FC000
000FC000
000FC000
000FC000
000FC000
000FC000
000FC000
000FC000
000FC000
000FC000
000FC000
000FC000
000FC000
000FC000
000FC000
000FC000
000FC000
000FC000
000FC000
000FC000
000FC000
000FE000
000FE000
000FE000
0007F000
0007FFC0
0003FFC0
0001FFC0
0000FFE0
00003F80
ENDCHAR
STARTCHAR 01AB
ENCODING 427
SWIDTH 378 0
DWIDTH 20 0
BBX 18 46 1 -10
BITMAP
01E000
03E000
07E000
07E000
07E000
07E000
07E000
0FE000
3FFFC0
FFFFC0
FFFFC0
FFFFC0
FFFFC0
0FE000
0FE000
0FE000
0FE000
0FE000
0FE000
0FE000
0FE000
0FE000
0FE000
0FE000
0FE000
0FE000
0FE000
0FE000
0FE000
0FE000
0FF3C0
0FFFC0
07FFC0
07FFC0
03FFC0
00FFC0
0007C0
0007C0
0007C0
000FC0
000FC0
01FFC0
03FF80
03FF00
03FE00
00FC00
ENDCHAR
STARTCHAR 01AC
ENCODING 428
SWIDTH 682 0
DWIDTH 36 0
BBX 34 39 1 0
BITMAP
01FFFFFFC0
07FFFFFFC0
1FFFFFFFC0
3FFFFFFFC0
7FFFFFFFC0
7FFFFFFFC0
FF00FE0000
FE00FE0000
FC00FE0000
FC00FE0000
FC00FE0000
FC00FE0000
FC00FE0000
FC00FE0000
7000FE0000
0000FE0000
0000FE0000
0000FE0000
0000FE0000
0000FE0000
0000FE0000
0000FE0000
0000FE0000
0000FE0000
0000FE0000
0000FE0000
0000FE0000
0000FE0000
0000FE0000
0000FE0000
0000FE0000
0000FE0000
0000FE0000
0000FE0000
0000FE0000
0000FE0000
0000FE0000
0000FE0000
0000FE0000
ENDCHAR
STARTCHAR 01AD
ENCODING 429
SWIDTH 378 0
DWIDTH 20 0
BBX 18 39 1 0
BITMAP
003F00
00FF80
01FF80
03FF80
03FF80
07E000
07E000
07E000
07E000
07E000
0FE000
3FFFC0
FFFFC0
FFFFC0
FFFFC0
FFFFC0
0FE000
0FE000
0FE000
0FE000
0FE000
0FE000
0FE000
0FE000
0FE000
0FE000
0FE000
0FE000
0FE000
0FE000
0FE000
0FE000
0FE000
0FE100
0FFF80
07FFC0
07FFC0
03FF80
00FE00
ENDCHAR
STARTCHAR 01AE
ENCODING 430
SWIDTH 606 0
DWIDTH 32 0
BBX 30 50 1 -11
BITMAP
FFFFFFFC
FFFFFFFC
FFFFFFFC
FFFFFFFC
FFFFFFFC
FFFFFFFC
001FC000
001FC000
001FC000
001FC000
001FC000
001FC000
001FC000
001FC000
001FC000
001FC000
001FC000
001FC000
001FC000
001FC000
001FC000
001FC000
001FC000
001FC000
001FC000
001FC000
001FC000
001FC000
001FC000
001FC000
001FC000
001FC000
001FC000
001FC000
001FC000
001FC000
001FC000
001FC000
001FC000
001FC000
001FC000
001FE000
000FE000
000FE000
000FF000
0007FFC0
0007FFC0
0003FFC0
0001FFE0
00003F80
ENDCHAR
STARTCHAR 01AF
ENCODING 431
SWIDTH 871 0
DWIDTH 46 0
BBX 43 43 4 0
BITMAP
000000000FC0
000000001FE0
000000001FE0
000000001FE0
FE0000FF0FE0
FE0000FF0FC0
FE0000FF0FC0
FE0000FF0F80
FE0000FF3F80
FE0000FFFF00
FE0000FFFC00
FE0000FFF000
FE0000FF0000
FE0000FF0000
FE0000FF0000
FE0000FF0000
FE0000FF0000
FE0000FF0000
FE0000FF0000
FE0000FF0000
FE0000FF0000
FE0000FF0000
FE0000FF0000
FE0000FF0000
FE0000FF0000
FE0000FF0000
FE0000FF0000
FE0000FF0000
FE0000FE0000
FE0000FE0000
FE0000FE0000
FF0000FE0000
7F0001FE0000
7F8001FC0000
7F8003FC0000
3FE007F80000
3FF01FF80000
1FFFFFF00000
0FFFFFE00000
07FFFFC00000
03FFFF800000
00FFFE000000
001FF0000000
ENDCHAR
STARTCHAR 01B0
ENCODING 432
SWIDTH 663 0
DWIDTH 35 0
BBX 33 32 3 0
BITMAP
0000001F80
0000003F80
0000003F80
0000003F80
FE007F1F80
FE007F1F80
FE007F1F00
FE007F3F00
FE007FFE00
FE007FFC00
FE007FF000
FE007F0000
FE007F0000
FE007F0000
FE007F0000
FE007F0000
FE007F0000
FE007F0000
FE007F0000
FE007F0000
FE007F0000
FE007F0000
FE007F0000
FE007F0000
FE007F0000
FF01FF0000
7F83FF0000
7FFFFF0000
3FFFFF0000
1FFF3F0000
0FFE3F0000
03F83F0000
ENDCHAR
STARTCHAR 01B1
ENCODING 433
SWIDTH 814 0
DWIDTH 43 0
BBX 39 39 2 0
BITMAP
7FFF81FFFC
FFFF81FFFE
FFFF81FFFE
FFFF81FFFE
FFFF81FFFE
FFFF81FFFE
007F81FC00
00FF81FE00
01FF81FF80
07FC007FC0
07F0001FE0
0FE0000FE0
1FE00007F0
1FC00007F8
3F800003F8
3F800003F8
7F800001FC
7F000001FC
7F000001FC
7F000001FC
7F000001FC
7F000001FC
7F000001FC
7F000001FC
7F000001FC
7F000001FC
3F800003FC
3F800003F8
3FC00007F8
1FE0000FF0
1FF0001FF0
0FF8003FE0
07FF01FFC0
03FFFFFFC0
01FFFFFF00
00FFFFFE00
003FFFFC00
000FFFE000
0001FF0000
ENDCHAR
STARTCHAR 01B2
ENCODING 434
SWIDTH 738 0
DWIDTH 39 0
BBX 33 39 4 0
BITMAP
FE003FC000
FE007FF000
FE003FFC00
FE003FFE00
FE003FFE00
FE003FFF00
FE0000FF00
FE00007F00
FE00007F80
FE00003F80
FE00003F80
FE00003F80
FE00003F80
FE00003F80
FE00003F80
FE00007F80
FE00007F80
FE00007F00
FE00007F00
FE00007F00
FE0000FF00
FE0000FE00
FE0000FE00
FE0001FE00
FE0001FC00
FE0003FC00
FE0003F800
FE0007F800
FE000FF000
FF001FE000
FF003FE000
7F807FC000
7FC1FF8000
7FFFFF0000
3FFFFE0000
1FFFF80000
0FFFF00000
07FFC00000
01FE000000
ENDCHAR
STARTCHAR 01B3
ENCODING 435
SWIDTH 738 0
DWIDTH 39 0
BBX 39 39 0 0
BITMAP
FE000003FC
FF00000FFE
7F80001FFC
3F80003FFC
3FC0007FFC
1FC000FF00
1FE000FE00
0FE001FC00
07F001FC00
07F803F800
03F803F000
03FC07F000
01FC0FE000
01FE0FE000
00FE1FC000
007F1FC000
007F3F8000
003FBF0000
003FFF0000
001FFE0000
000FFE0000
000FFC0000
0007FC0000
0007F80000
0003F80000
0003F80000
0003F80000
0003F80000
0003F80000
0003F80000
0003F80000
0003F80000
0003F80000
0003F80000
0003F80000
0003F80000
0003F80000
0003F80000
0003F80000
ENDCHAR
STARTCHAR 01B4
ENCODING 436
SWIDTH 606 0
DWIDTH 32 0
BBX 32 37 0 -9
BITMAP
FE0000FE
7F0003FF
7F0007FF
3F800FFE
3F800FFE
3F801FC0
1FC01FC0
1FC01F80
0FE03F80
0FE03F00
07E03F00
07F07E00
07F07E00
03F0FE00
03F8FC00
01F8FC00
01FDF800
01FDF800
00FDF000
00FFF000
007FF000
007FE000
003FE000
003FC000
003FC000
001F8000
001F8000
003F8000
003F0000
003F0000
007E0000
007E0000
00FC0000
00FC0000
01FC0000
01F80000
03F00000
ENDCHAR
STARTCHAR 01B5
ENCODING 437
SWIDTH 606 0
DWIDTH 32 0
BBX 30 39 1 0
BITMAP
7FFFFFFC
7FFFFFFC
7FFFFFFC
7FFFFFFC
7FFFFFF8
7FFFFFF8
00000FF0
00001FE0
00001FE0
00003FC0
00003F80
00007F80
0000FF00
0000FE00
0001FE00
0003FC00
0003F800
3FFFFFF8
3FFFFFF8
3FFFFFF8
3FFFFFF8
3FFFFFF8
007F8000
00FF0000
00FF0000
01FE0000
03FC0000
03F80000
07F80000
0FF00000
1FE00000
1FE00000
3FC00000
7FFFFFF8
7FFFFFF8
FFFFFFF8
FFFFFFF8
FFFFFFF8
FFFFFFF8
ENDCHAR
STARTCHAR 01B6
ENCODING 438
SWIDTH 454 0
DWIDTH 24 0
BBX 22 28 1 0
BITMAP
7FFFFC
7FFFFC
7FFFFC
7FFFFC
7FFFF8
0003F8
0007F0
000FE0
000FE0
001FC0
003F80
7FFFF8
7FFFF8
7FFFF8
7FFFF8
7FFFF8
03F800
07F000
07E000
0FE000
1FC000
3F8000
3F0000
7FFFF8
7FFFF8
FFFFF8
FFFFF8
FFFFF8
ENDCHAR
STARTCHAR 01B7
ENCODING 439
SWIDTH 587 0
DWIDTH 31 0
BBX 28 39 1 0
BITMAP
7FFFFFE0
7FFFFFE0
7FFFFFE0
7FFFFFE0
7FFFFFE0
7FFFFFC0
00007F80
0000FF00
0001FE00
0003FC00
0007F800
000FF000
001FE000
003FC000
007F8000
00FFF800
01FFFE00
01FFFF80
01FFFFC0
01FFFFE0
00007FE0
00001FF0
00000FF0
000007F0
000007F0
000007F0
000007F0
000007F0
00000FF0
18000FF0
3C001FE0
7E003FE0
FFC0FFC0
FFFFFFC0
7FFFFF80
1FFFFF00
0FFFFC00
03FFF000
007F8000
ENDCHAR
STARTCHAR 01B8
ENCODING 440
SWIDTH 587 0
DWIDTH 31 0
BBX 28 39 2 0
BITMAP
7FFFFFE0
7FFFFFE0
7FFFFFE0
7FFFFFE0
3FFFFFE0
3FFFFFE0
1FF00000
0FF80000
07FC0000
03FE0000
01FF0000
007F8000
003FC000
001FE000
000FF000
01FFF800
07FFF800
1FFFF800
3FFFF800
3FFFF800
7FE00000
7F800000
FF000000
FF000000
FE000000
FE000000
FE000000
FF000000
FF000000
7F000180
7F8003C0
3FC007E0
3FF01FF0
1FFFFFF0
0FFFFFE0
07FFFFC0
03FFFF00
00FFFC00
001FE000
ENDCHAR
STARTCHAR 01B9
ENCODING 441
SWIDTH 454 0
DWIDTH 24 0
BBX 23 38 2 -10
BITMAP
7FFFF8
7FFFF8
7FFFF8
7FFFF8
7FFFF8
3F8000
1FC000
0FE000
07F000
07F000
03F800
01FC00
00FE00
007E00
007F00
01FF80
0FFFC0
1FFFC0
3FFFC0
7FE000
7F0000
FE0000
FE0000
FC0000
FC0000
FC0000
FC0000
FC0000
FC0000
FE0000
7E0000
7F0038
3FC0FC
3FFFFC
1FFFFE
0FFFFC
03FFF0
007F80
ENDCHAR
STARTCHAR 01BA
ENCODING 442
SWIDTH 454 0
DWIDTH 24 0
BBX 21 38 1 -10
BITMAP
FFFFF0
FFFFF0
FFFFF0
FFFFF0
FFFFF0
000FE0
001FC0
003F80
007F00
00FE00
01FC00
03FE00
07FFC0
07FFE0
07FFF0
001FF0
0003F8
0003F8
0003F8
0003F8
0003F8
0003F8
000FF0
00FFF0
0FFFE0
1FFFC0
3FFF80
7FFE00
FFF000
FE0000
FC0000
FC0000
FE0000
FFF800
7FF800
3FFC00
1FFC00
07F000
ENDCHAR
STARTCHAR 01BB
ENCODING 443
SWIDTH 587 0
DWIDTH 31 0
BBX 27 39 2 0
BITMAP
007F8000
01FFF000
07FFF800
0FFFFE00
1FFFFE00
3FC0FF00
3F807F00
7F003F80
7E003F80
7E003F80
FE001F80
08001F80
00003F80
00003F80
00003F80
00007F00
00007F00
0000FE00
FFFFFFE0
FFFFFFE0
FFFFFFE0
FFFFFFE0
FFFFFFE0
001FE000
003FC000
007F8000
00FF0000
01FE0000
03FC0000
07F80000
0FF00000
1FE00000
3FC00000
7FBFFF80
FFFFFFC0
FFFFFFC0
FFFFFFC0
FFFFFFC0
FFFFFFC0
ENDCHAR
STARTCHAR 01BC
ENCODING 444
SWIDTH 587 0
DWIDTH 31 0
BBX 28 39 1 0
BITMAP
7FFFFFE0
7FFFFFE0
7FFFFFE0
7FFFFFE0
3FFFFFC0
0FFFFF80
01F80000
03F80000
03F00000
03F00000
07F00000
07E00000
07E00000
0FFFE000
0FFFF800
0FFFFE00
1FFFFF00
1FFFFF80
1FFFFFC0
07807FE0
00001FE0
00000FE0
00000FF0
000007F0
000007F0
000007F0
000007F0
000007F0
00000FF0
18000FE0
3C001FE0
7E003FC0
FFC0FFC0
7FFFFF80
3FFFFF00
1FFFFE00
0FFFFC00
03FFF000
007FC000
ENDCHAR
STARTCHAR 01BD
ENCODING 445
SWIDTH 454 0
DWIDTH 24 0
BBX 21 28 1 0
BITMAP
7FFFF0
7FFFF0
7FFFF0
7FFFF0
3FFFE0
07C000
07C000
0FC000
0F8000
0F8000
1FFE00
1FFF80
1FFFE0
3FFFF0
3FFFF0
0407F8
0003F8
0001F8
0001F8
0001F8
1001F8
3803F8
FE07F0
7FFFF0
3FFFE0
1FFFC0
0FFF80
01FC00
ENDCHAR
STARTCHAR 01BE
ENCODING 446
SWIDTH 454 0
DWIDTH 24 0
BBX 21 37 1 0
BITMAP
007000
01F000
01F000
01F000
01F000
01F000
03F000
03F000
03F000
1FFFF0
3FFFF0
3FFFF0
3FFFF0
3FFFF0
03F000
03F000
03F800
03F800
03FC00
01FF00
00FFC0
007FE0
003FF0
000FF0
0007F8
0003F8
0001F8
0001F8
0001F8
0003F8
7803F8
7E0FF0
FFFFF0
7FFFE0
3FFFC0
0FFF00
01FC00
ENDCHAR
STARTCHAR 01BF
ENCODING 447
SWIDTH 568 0
DWIDTH 30 0
BBX 25 37 3 -9
BITMAP
F80FE000
FC7FF800
FCFFFC00
FDFFFE00
FFFFFF00
FFE0FF00
FF807F80
FF003F80
FE003F80
FE003F80
FE003F80
FE003F80
FE003F80
FE003F80
FE003F80
FE007F00
FE007F00
FE00FE00
FE01FE00
FE03FC00
FE07F800
FE0FF000
FE3FE000
FEFFC000
FFFF8000
FFFE0000
FFFC0000
FFF00000
FFC00000
FE000000
FE000000
FE000000
FE000000
FE000000
FE000000
FE000000
FE000000
ENDCHAR
STARTCHAR 01C0
ENCODING 448
SWIDTH 227 0
DWIDTH 12 0
BBX 5 51 3 -9
BITMAP
F8
F8
F8
F8
F8
F8
F8
F8
F8
F8
F8
F8
F8
F8
F8
F8
F8
F8
F8
F8
F8
F8
F8
F8
F8
F8
F8
F8
F8
F8
F8
F8
F8
F8
F8
F8
F8
F8
F8
F8
F8
F8
F8
F8
F8
F8
F8
F8
F8
F8
F8
ENDCHAR
STARTCHAR 01C1
ENCODING 449
SWIDTH 511 0
DWIDTH 27 0
BBX 21 51 3 -9
BITMAP
F800F8
F800F8
F800F8
F800F8
F800F8
F800F8
F800F8
F800F8
F800F8
F800F8
F800F8
F800F8
F800F8
F800F8
F800F8
F800F8
F800F8
F800F8
F800F8
F800F8
F800F8
F800F8
F800F8
F800F8
F800F8
F800F8
F800F8
F800F8
F800F8
F800F8
F800F8
F800F8
F800F8
F800F8
F800F8
F800F8
F800F8
F800F8
F800F8
F800F8
F800F8
F800F8
F800F8
F800F8
F800F8
F800F8
F800F8
F800F8
F800F8
F800F8
F800F8
ENDCHAR
STARTCHAR 01C2
ENCODING 450
SWIDTH 530 0
DWIDTH 28 0
BBX 24 50 2 -10
BITMAP
007F00
007F00
007F00
007F00
007F00
007F00
007F00
007F00
007F00
007F00
007F00
007F00
007F00
007F00
007F00
007F00
007F00
FFFFFF
FFFFFF
FFFFFF
FFFFFF
FFFFFF
007F00
007F00
007F00
007F00
007F00
FFFFFF
FFFFFF
FFFFFF
FFFFFF
FFFFFF
007F00
007F00
007F00
007F00
007F00
007F00
007F00
007F00
007F00
007F00
007F00
007F00
007F00
007F00
007F00
007F00
007F00
007F00
ENDCHAR
STARTCHAR 01C3
ENCODING 451
SWIDTH 227 0
DWIDTH 12 0
BBX 8 39 2 0
BITMAP
7E
7E
7E
7E
7E
7E
7E
7E
7E
7E
7E
7E
7E
7E
7E
7E
7E
7E
7E
7E
7E
7C
7C
7C
3C
00
00
00
00
00
00
3C
7E
FE
FF
FF
FE
7E
3C
ENDCHAR
STARTCHAR 01C4
ENCODING 452
SWIDTH 1383 0
DWIDTH 73 0
BBX 68 50 4 0
BITMAP
00000000000F803E00
000000000007E0FC00
000000000003F1F800
000000000001F9F800
000000000000FBF000
000000000000FFE000
0000000000007FC000
0000000000003F8000
000000000000000000
000000000000000000
000000000000000000
FFFFF00001FFFFFFF0
FFFFFE0001FFFFFFF0
FFFFFF8001FFFFFFF0
FFFFFFE001FFFFFFF0
FFFFFFF001FFFFFFE0
FFFFFFF801FFFFFFE0
FE001FFC0000003FC0
FE0007FE0000007F80
FE0001FE0000007F00
FE0000FF000000FF00
FE0000FF000001FE00
FE00007F800001FC00
FE00003F800003FC00
FE00003FC00007F800
FE00003FC0000FF000
FE00001FC0000FF000
FE00001FC0001FE000
FE00001FC0003FC000
FE00001FC0003F8000
FE00001FC0007F8000
FE00001FC000FF0000
FE00001FC000FE0000
FE00001FC001FE0000
FE00001FC003FC0000
FE00003FC007F80000
FE00003FC007F80000
FE00003F800FF00000
FE00007F801FE00000
FE0000FF001FC00000
FE0000FF003FC00000
FE0001FE007F800000
FE0007FE007F000000
FE001FFC00FF000000
FFFFFFF801FFFFFFE0
FFFFFFF001FFFFFFE0
FFFFFFE003FFFFFFE0
FFFFFF8003FFFFFFE0
FFFFFE0003FFFFFFE0
FFFFF00003FFFFFFE0
ENDCHAR
STARTCHAR 01C5
ENCODING 453
SWIDTH 1231 0
DWIDTH 65 0
BBX 59 39 4 0
BITMAP
FFFFF00000FC07E0
FFFFFE00003E0FC0
FFFFFF80003F1F80
FFFFFFE0001FBF00
FFFFFFF0000FFE00
FFFFFFF80007FC00
FE001FFC0003F800
FE0007FE00000000
FE0001FE00000000
FE0000FF00000000
FE0000FF00000000
FE00007F83FFFFE0
FE00003F83FFFFE0
FE00003FC3FFFFE0
FE00003FC3FFFFE0
FE00001FC3FFFFC0
FE00001FC0001FC0
FE00001FC0003F80
FE00001FC0007F00
FE00001FC0007F00
FE00001FC000FE00
FE00001FC001FC00
FE00001FC001F800
FE00001FC003F800
FE00003FC007F000
FE00003FC00FE000
FE00003F800FC000
FE00007F801FC000
FE0000FF003F8000
FE0000FF007F0000
FE0001FE007F0000
FE0007FE00FE0000
FE001FFC01FC0000
FFFFFFF801F80000
FFFFFFF003FFFFC0
FFFFFFE007FFFFC0
FFFFFF8007FFFFC0
FFFFFE0007FFFFC0
FFFFF00007FFFFC0
ENDCHAR
STARTCHAR 01C6
ENCODING 454
SWIDTH 1042 0
DWIDTH 55 0
BBX 52 40 2 0
BITMAP
00003F80000000
00003F80FC07E0
00003F803E0FC0
00003F803F1F80
00003F801FBF00
00003F800FFE00
00003F8007FC00
00003F8003F800
00003F80000000
00003F80000000
00003F80000000
00003F80000000
00FE3F81FFFFF0
03FFBF81FFFFF0
07FFFF81FFFFF0
1FFFFF81FFFFF0
1FFFFF81FFFFE0
3FE0FF80000FE0
7F807F80001FC0
7F003F80003F80
7F003F80003F80
FE003F80007F00
FE003F8000FE00
FE003F8000FC00
FE003F8001FC00
FE003F8003F800
FE003F8007F000
FE003F8007E000
FE003F800FE000
FE003F801FC000
FE003F803F8000
FE003F803F8000
7F003F807F0000
7F007F80FE0000
7FC1FF80FC0000
3FFFFF81FFFFE0
1FFFDF83FFFFE0
0FFF9F83FFFFE0
07FF1F83FFFFE0
01F80F83FFFFE0
ENDCHAR
STARTCHAR 01C7
ENCODING 455
SWIDTH 966 0
DWIDTH 51 0
BBX 43 39 4 0
BITMAP
FE0000000FE0
FE0000000FE0
FE0000000FE0
FE0000000FE0
FE0000000FE0
FE0000000FE0
FE0000000FE0
FE0000000FE0
FE0000000FE0
FE0000000FE0
FE0000000FE0
FE0000000FE0
FE0000000FE0
FE0000000FE0
FE0000000FE0
FE0000000FE0
FE0000000FE0
FE0000000FE0
FE0000000FE0
FE0000000FE0
FE0000000FE0
FE0000000FE0
FE0000000FE0
FE0000000FE0
FE0000000FE0
FE0000000FE0
FE0000000FE0
FE0000000FE0
FE0000001FE0
FE0000001FC0
FE0000001FC0
FE0000003FC0
FE000000FF80
FFFFFE7FFF80
FFFFFE7FFF00
FFFFFE7FFE00
FFFFFE7FFC00
FFFFFE7FF800
FFFFFE3FC000
ENDCHAR
STARTCHAR 01C8
ENCODING 456
SWIDTH 795 0
DWIDTH 42 0
BBX 35 50 4 -10
BITMAP
0000000780
FE00001FC0
FE00001FE0
FE00001FE0
FE00001FE0
FE00001FE0
FE00001FC0
FE00000780
FE00000000
FE00000000
FE00000000
FE00000000
FE00001FC0
FE00001FC0
FE00001FC0
FE00001FC0
FE00001FC0
FE00001FC0
FE00001FC0
FE00001FC0
FE00001FC0
FE00001FC0
FE00001FC0
FE00001FC0
FE00001FC0
FE00001FC0
FE00001FC0
FE00001FC0
FE00001FC0
FE00001FC0
FE00001FC0
FE00001FC0
FE00001FC0
FE00001FC0
FFFFFE1FC0
FFFFFE1FC0
FFFFFE1FC0
FFFFFE1FC0
FFFFFE1FC0
FFFFFE1FC0
0000001FC0
0000001FC0
0000001FC0
0000001FC0
0000003FC0
000003FF80
000003FF80
000003FF00
000003FE00
000003F800
ENDCHAR
STARTCHAR 01C9
ENCODING 457
SWIDTH 511 0
DWIDTH 27 0
BBX 22 50 3 -10
BITMAP
FE00F0
FE03F8
FE03FC
FE03FC
FE03FC
FE03FC
FE03F8
FE00F0
FE0000
FE0000
FE0000
FE0000
FE03F8
FE03F8
FE03F8
FE03F8
FE03F8
FE03F8
FE03F8
FE03F8
FE03F8
FE03F8
FE03F8
FE03F8
FE03F8
FE03F8
FE03F8
FE03F8
FE03F8
FE03F8
FE03F8
FE03F8
FE03F8
FE03F8
FE03F8
FE03F8
FE03F8
FE03F8
FE03F8
FE03F8
0003F8
0003F8
0003F8
0003F8
0007F8
007FF0
007FF0
007FE0
007FC0
007F00
ENDCHAR
STARTCHAR 01CA
ENCODING 458
SWIDTH 1212 0
DWIDTH 64 0
BBX 56 39 4 0
BITMAP
FC00003F80007F
FE00003F80007F
FE00003F80007F
FF00003F80007F
FF80003F80007F
FFC0003F80007F
FFE0003F80007F
FFE0003F80007F
FFF0003F80007F
FFF8003F80007F
FFFC003F80007F
FFFE003F80007F
FDFE003F80007F
FCFF003F80007F
FEFF803F80007F
FE7FC03F80007F
FE3FC03F80007F
FE1FE03F80007F
FE0FF03F80007F
FE0FF83F80007F
FE07FC3F80007F
FE03FC3F80007F
FE01FE3F80007F
FE01FF3F80007F
FE00FFBF80007F
FE007FBF80007F
FE003FFF80007F
FE003FFF80007F
FE001FFF8000FF
FE000FFF8000FE
FE0007FF8000FE
FE0003FF8001FE
FE0003FF8007FC
FE0001FF83FFFC
FE0000FF83FFF8
FE00007F83FFF0
FE00007F83FFE0
FE00003F83FFC0
FE00001F81FE00
ENDCHAR
STARTCHAR 01CB
ENCODING 459
SWIDTH 1023 0
DWIDTH 54 0
BBX 48 50 4 -10
BITMAP
00000000003C
FC00003F80FE
FE00003F80FF
FE00003F80FF
FF00003F80FF
FF80003F80FF
FFC0003F80FE
FFE0003F803C
FFE0003F8000
FFF0003F8000
FFF8003F8000
FFFC003F8000
FFFE003F80FE
FDFE003F80FE
FCFF003F80FE
FEFF803F80FE
FE7FC03F80FE
FE3FC03F80FE
FE1FE03F80FE
FE0FF03F80FE
FE0FF83F80FE
FE07FC3F80FE
FE03FC3F80FE
FE01FE3F80FE
FE01FF3F80FE
FE00FFBF80FE
FE007FBF80FE
FE003FFF80FE
FE003FFF80FE
FE001FFF80FE
FE000FFF80FE
FE0007FF80FE
FE0003FF80FE
FE0003FF80FE
FE0001FF80FE
FE0000FF80FE
FE00007F80FE
FE00007F80FE
FE00003F80FE
FE00001F80FE
0000000000FE
0000000000FE
0000000000FE
0000000000FE
0000000001FE
000000001FFC
000000001FFC
000000001FF8
000000001FF0
000000001FC0
ENDCHAR
STARTCHAR 01CC
ENCODING 460
SWIDTH 833 0
DWIDTH 44 0
BBX 38 50 3 -10
BITMAP
00000000F0
00000003F8
00000003FC
00000003FC
00000003FC
00000003FC
00000003F8
00000000F0
0000000000
0000000000
0000000000
0000000000
F83FC003F8
FCFFF003F8
FDFFF803F8
FFFFFC03F8
FFFFFE03F8
FFC1FE03F8
FF80FE03F8
FE007F03F8
FE007F03F8
FE007F03F8
FE007F03F8
FE007F03F8
FE007F03F8
FE007F03F8
FE007F03F8
FE007F03F8
FE007F03F8
FE007F03F8
FE007F03F8
FE007F03F8
FE007F03F8
FE007F03F8
FE007F03F8
FE007F03F8
FE007F03F8
FE007F03F8
FE007F03F8
FE007F03F8
00000003F8
00000003F8
00000003F8
00000003F8
00000007F8
0000007FF0
0000007FF0
0000007FE0
0000007FC0
0000007F00
ENDCHAR
STARTCHAR 01CD
ENCODING 461
SWIDTH 701 0
DWIDTH 37 0
BBX 37 50 0 0
BITMAP
007C01F000
003F07E000
001F8FC000
000FCFC000
0007DF8000
0007FF0000
0003FE0000
0001FC0000
0000000000
0000000000
0000000000
0001FC0000
0003FE0000
0003FE0000
0007FE0000
0007FF0000
0007FF0000
000FFF8000
000FDF8000
001FDF8000
001FDFC000
001F8FC000
003F8FC000
003F8FE000
003F07E000
007F07F000
007E07F000
00FE03F000
00FE03F800
00FC03F800
01FC01FC00
01FC01FC00
03F800FC00
03F800FE00
03F800FE00
07FFFFFE00
07FFFFFF00
07FFFFFF00
0FFFFFFF80
0FFFFFFF80
1FC0001F80
1FC0001FC0
1FC0001FC0
3F80000FE0
3F80000FE0
7F80000FE0
7F000007F0
7F000007F0
FF000007F8
FE000003F8
ENDCHAR
STARTCHAR 01CE
ENCODING 462
SWIDTH 511 0
DWIDTH 27 0
BBX 23 39 1 0
BITMAP
1F80FC
07C1F8
07E3F0
03F7E0
01FFC0
00FF80
007F00
000000
000000
000000
000000
007F00
03FFC0
0FFFF0
3FFFF8
3FFFF8
3F83FC
1E00FC
0000FE
0000FE
00007E
00007E
00007E
003FFE
01FFFE
0FFFFE
1FFFFE
3FE07E
7F007E
7E007E
FE007E
FE00FE
FE01FE
FF07FE
7FFFFE
7FFFFE
3FFE3E
1FFC3E
07F03E
ENDCHAR
STARTCHAR 01CF
ENCODING 463
SWIDTH 303 0
DWIDTH 16 0
BBX 19 50 -2 0
BITMAP
F803E0
7E0FC0
3F1F80
1F9F80
0FBF00
0FFE00
07FC00
03F800
000000
000000
000000
03F800
03F800
03F800
03F800
03F800
03F800
03F800
03F800
03F800
03F800
03F800
03F800
03F800
03F800
03F800
03F800
03F800
03F800
03F800
03F800
03F800
03F800
03F800
03F800
03F800
03F800
03F800
03F800
03F800
03F800
03F800
03F800
03F800
03F800
03F800
03F800
03F800
03F800
03F800
ENDCHAR
STARTCHAR 01D0
ENCODING 464
SWIDTH 246 0
DWIDTH 13 0
BBX 19 39 -3 0
BITMAP
FC07E0
3E0FC0
3F1F80
1FBF00
0FFE00
07FC00
03F800
000000
000000
000000
000000
03F800
03F800
03F800
03F800
03F800
03F800
03F800
03F800
03F800
03F800
03F800
03F800
03F800
03F800
03F800
03F800
03F800
03F800
03F800
03F800
03F800
03F800
03F800
03F800
03F800
03F800
03F800
03F800
ENDCHAR
STARTCHAR 01D1
ENCODING 465
SWIDTH 814 0
DWIDTH 43 0
BBX 39 50 2 0
BITMAP
003E00F800
001F83F000
000FC7E000
0007E7E000
0003EFC000
0003FF8000
0001FF0000
0000FE0000
0000000000
0000000000
0000000000
0001FF0000
001FFFE000
007FFFF800
00FFFFFE00
03FFFFFF00
07FFFFFF80
0FFF01FFC0
0FF8003FE0
1FF0001FF0
3FE0000FF0
3FC00007F8
7F800003F8
7F800003FC
7F000001FC
7F000001FC
FF000001FC
FF000001FE
FE000001FE
FE000001FE
FE000000FE
FE000001FE
FE000001FE
FE000001FE
FF000001FC
7F000001FC
7F000001FC
7F800003FC
7F800003F8
3FC00007F8
3FE0000FF0
1FF0001FF0
0FF8003FE0
0FFF01FFC0
07FFFFFF80
03FFFFFF00
00FFFFFE00
007FFFFC00
001FFFE000
0001FF0000
ENDCHAR
STARTCHAR 01D2
ENCODING 466
SWIDTH 568 0
DWIDTH 30 0
BBX 27 39 2 0
BITMAP
0FC07E00
03E0FC00
03F1F800
01FBF000
00FFE000
007FC000
003F8000
00000000
00000000
00000000
00000000
007F8000
01FFF000
07FFFC00
0FFFFE00
1FFFFF00
3FE0FF00
7F803F80
7F003F80
7E001FC0
FE001FC0
FE000FC0
FE000FE0
FE000FE0
FE000FE0
FE000FE0
FE000FE0
FE000FE0
FE000FC0
FE001FC0
7E001FC0
7F003F80
7F803F80
3FC0FF00
1FFFFF00
0FFFFE00
07FFFC00
01FFF000
007F8000
ENDCHAR
STARTCHAR 01D3
ENCODING 467
SWIDTH 738 0
DWIDTH 39 0
BBX 32 50 4 0
BITMAP
03E00F80
01F83F00
00FC7E00
007E7E00
003EFC00
003FF800
001FF000
000FE000
00000000
00000000
00000000
FE0000FF
FE0000FF
FE0000FF
FE0000FF
FE0000FF
FE0000FF
FE0000FF
FE0000FF
FE0000FF
FE0000FF
FE0000FF
FE0000FF
FE0000FF
FE0000FF
FE0000FF
FE0000FF
FE0000FF
FE0000FF
FE0000FF
FE0000FF
FE0000FF
FE0000FF
FE0000FF
FE0000FF
FE0000FF
FE0000FE
FE0000FE
FF0000FE
7F0001FE
7F8001FC
7F8003FC
3FE007FC
3FF01FF8
1FFFFFF0
0FFFFFE0
07FFFFC0
03FFFF80
00FFFE00
001FF000
ENDCHAR
STARTCHAR 01D4
ENCODING 468
SWIDTH 568 0
DWIDTH 30 0
BBX 24 39 3 0
BITMAP
3F01F8
0F83F0
0FC7E0
07EFC0
03FF80
01FF00
00FE00
000000
000000
000000
000000
FE007F
FE007F
FE007F
FE007F
FE007F
FE007F
FE007F
FE007F
FE007F
FE007F
FE007F
FE007F
FE007F
FE007F
FE007F
FE007F
FE007F
FE007F
FE007F
FE007F
FE007F
FF01FF
7F83FF
7FFFFF
3FFFFF
1FFF3F
0FFE3F
03F83F
ENDCHAR
STARTCHAR 01D5
ENCODING 469
SWIDTH 738 0
DWIDTH 39 0
BBX 32 54 4 0
BITMAP
00FFFF00
00FFFF00
00FFFF00
00FFFF00
00000000
00000000
00E00E00
01F81F00
03F83F80
03F83F80
03F83F80
01F83F00
00F00E00
00000000
00000000
FE0000FF
FE0000FF
FE0000FF
FE0000FF
FE0000FF
FE0000FF
FE0000FF
FE0000FF
FE0000FF
FE0000FF
FE0000FF
FE0000FF
FE0000FF
FE0000FF
FE0000FF
FE0000FF
FE0000FF
FE0000FF
FE0000FF
FE0000FF
FE0000FF
FE0000FF
FE0000FF
FE0000FF
FE0000FF
FE0000FE
FE0000FE
FF0000FE
7F0001FE
7F8001FC
7F8003FC
3FE007FC
3FF01FF8
1FFFFFF0
0FFFFFE0
07FFFFC0
03FFFF80
00FFFE00
001FF000
ENDCHAR
STARTCHAR 01D6
ENCODING 470
SWIDTH 568 0
DWIDTH 30 0
BBX 24 46 3 0
BITMAP
0FFFF0
0FFFF0
0FFFF0
0FFFF0
000000
000000
000000
0F01E0
1F83F0
1FC7F0
1FC7F8
1FC7F0
1F83F0
0F01E0
000000
000000
000000
000000
FE007F
FE007F
FE007F
FE007F
FE007F
FE007F
FE007F
FE007F
FE007F
FE007F
FE007F
FE007F
FE007F
FE007F
FE007F
FE007F
FE007F
FE007F
FE007F
FE007F
FE007F
FF01FF
7F83FF
7FFFFF
3FFFFF
1FFF3F
0FFE3F
03F83F
ENDCHAR
STARTCHAR 01D7
ENCODING 471
SWIDTH 738 0
DWIDTH 39 0
BBX 32 59 4 0
BITMAP
00000FF0
00003FE0
00007FC0
00007F80
0000FF00
0001FE00
0003FC00
0003F000
0007E000
00000000
00000000
00E00E00
01F81F00
03F83F80
03F83F80
03F83F80
01F83F00
00F00E00
00000000
00000000
FE0000FF
FE0000FF
FE0000FF
FE0000FF
FE0000FF
FE0000FF
FE0000FF
FE0000FF
FE0000FF
FE0000FF
FE0000FF
FE0000FF
FE0000FF
FE0000FF
FE0000FF
FE0000FF
FE0000FF
FE0000FF
FE0000FF
FE0000FF
FE0000FF
FE0000FF
FE0000FF
FE0000FF
FE0000FF
FE0000FE
FE0000FE
FF0000FE
7F0001FE
7F8001FC
7F8003FC
3FE007FC
3FF01FF8
1FFFFFF0
0FFFFFE0
07FFFFC0
03FFFF80
00FFFE00
001FF000
ENDCHAR
STARTCHAR 01D8
ENCODING 472
SWIDTH 568 0
DWIDTH 30 0
BBX 24 48 3 0
BITMAP
0003FC
0007F0
000FE0
000FE0
001FC0
001F80
003F00
007E00
000000
0F01E0
1F83F0
1FC7F0
1FC7F8
1FC7F0
1F83F0
0F01E0
000000
000000
000000
000000
FE007F
FE007F
FE007F
FE007F
FE007F
FE007F
FE007F
FE007F
FE007F
FE007F
FE007F
FE007F
FE007F
FE007F
FE007F
FE007F
FE007F
FE007F
FE007F
FE007F
FE007F
FF01FF
7F83FF
7FFFFF
3FFFFF
1FFF3F
0FFE3F
03F83F
ENDCHAR
STARTCHAR 01D9
ENCODING 473
SWIDTH 738 0
DWIDTH 39 0
BBX 32 58 4 0
BITMAP
03E00F80
01F83F00
00FC7E00
007E7E00
003EFC00
003FF800
001FF000
000FE000
00000000
00000000
00E00E00
01F81F00
03F83F80
03F83F80
03F83F80
01F83F00
00F00E00
00000000
00000000
FE0000FF
FE0000FF
FE0000FF
FE0000FF
FE0000FF
FE0000FF
FE0000FF
FE0000FF
FE0000FF
FE0000FF
FE0000FF
FE0000FF
FE0000FF
FE0000FF
FE0000FF
FE0000FF
FE0000FF
FE0000FF
FE0000FF
FE0000FF
FE0000FF
FE0000FF
FE0000FF
FE0000FF
FE0000FF
FE0000FE
FE0000FE
FF0000FE
7F0001FE
7F8001FC
7F8003FC
3FE007FC
3FF01FF8
1FFFFFF0
0FFFFFE0
07FFFFC0
03FFFF80
00FFFE00
001FF000
ENDCHAR
STARTCHAR 01DA
ENCODING 474
SWIDTH 568 0
DWIDTH 30 0
BBX 24 49 3 0
BITMAP
3E00F8
1F81F0
0FC3E0
07E7C0
03FFC0
01FF80
01FF00
00FE00
000000
000000
0F01E0
1F83F0
1FC7F0
1FC7F8
1FC7F0
1F83F0
0F01E0
000000
000000
000000
000000
FE007F
FE007F
FE007F
FE007F
FE007F
FE007F
FE007F
FE007F
FE007F
FE007F
FE007F
FE007F
FE007F
FE007F
FE007F
FE007F
FE007F
FE007F
FE007F
FE007F
FE007F
FF01FF
7F83FF
7FFFFF
3FFFFF
1FFF3F
0FFE3F
03F83F
ENDCHAR
STARTCHAR 01DB
ENCODING 475
SWIDTH 738 0
DWIDTH 39 0
BBX 32 59 4 0
BITMAP
0FF00000
07F80000
03FC0000
01FE0000
00FF0000
007F0000
003F8000
001FC000
000FE000
00000000
00000000
00E00E00
01F81F00
03F83F80
03F83F80
03F83F80
01F83F00
00F00E00
00000000
00000000
FE0000FF
FE0000FF
FE0000FF
FE0000FF
FE0000FF
FE0000FF
FE0000FF
FE0000FF
FE0000FF
FE0000FF
FE0000FF
FE0000FF
FE0000FF
FE0000FF
FE0000FF
FE0000FF
FE0000FF
FE0000FF
FE0000FF
FE0000FF
FE0000FF
FE0000FF
FE0000FF
FE0000FF
FE0000FF
FE0000FE
FE0000FE
FF0000FE
7F0001FE
7F8001FC
7F8003FC
3FE007FC
3FF01FF8
1FFFFFF0
0FFFFFE0
07FFFFC0
03FFFF80
00FFFE00
001FF000
ENDCHAR
STARTCHAR 01DC
ENCODING 476
SWIDTH 568 0
DWIDTH 30 0
BBX 24 49 3 0
BITMAP
3FC000
0FE000
07F000
03F000
01F800
01F800
00FC00
007E00
000000
000000
0F01E0
1F83F0
1FC7F0
1FC7F8
1FC7F0
1F83F0
0F01E0
000000
000000
000000
000000
FE007F
FE007F
FE007F
FE007F
FE007F
FE007F
FE007F
FE007F
FE007F
FE007F
FE007F
FE007F
FE007F
FE007F
FE007F
FE007F
FE007F
FE007F
FE007F
FE007F
FE007F
FF01FF
7F83FF
7FFFFF
3FFFFF
1FFF3F
0FFE3F
03F83F
ENDCHAR
STARTCHAR 01DD
ENCODING 477
SWIDTH 530 0
DWIDTH 28 0
BBX 25 28 2 0
BITMAP
01FE0000
0FFFC000
3FFFE000
7FFFF000
FFFFF800
7E03FC00
3801FE00
0000FE00
00007F00
00007F00
00003F00
00003F00
00003F00
FFFFFF80
FFFFFF80
FFFFFF80
FFFFFF00
FC003F00
FC003F00
FC007F00
FC007E00
7E00FE00
7F83FC00
3FFFFC00
1FFFF800
0FFFE000
07FFC000
00FE0000
ENDCHAR
STARTCHAR 01DE
ENCODING 478
SWIDTH 701 0
DWIDTH 37 0
BBX 37 54 0 0
BITMAP
001FFFE000
001FFFE000
001FFFE000
001FFFE000
0000000000
0000000000
001C01C000
003F03E000
007F07F000
007F07F000
007F07F000
003F07E000
001E01C000
0000000000
0000000000
0001FC0000
0003FE0000
0003FE0000
0007FE0000
0007FF0000
0007FF0000
000FFF8000
000FDF8000
001FDF8000
001FDFC000
001F8FC000
003F8FC000
003F8FE000
003F07E000
007F07F000
007E07F000
00FE03F000
00FE03F800
00FC03F800
01FC01FC00
01FC01FC00
03F800FC00
03F800FE00
03F800FE00
07FFFFFE00
07FFFFFF00
07FFFFFF00
0FFFFFFF80
0FFFFFFF80
1FC0001F80
1FC0001FC0
1FC0001FC0
3F80000FE0
3F80000FE0
7F80000FE0
7F000007F0
7F000007F0
FF000007F8
FE000003F8
ENDCHAR
STARTCHAR 01DF
ENCODING 479
SWIDTH 511 0
DWIDTH 27 0
BBX 23 46 1 0
BITMAP
07FFF8
07FFF8
07FFF8
07FFF8
000000
000000
000000
0780F0
0FC1F8
0FE3F8
0FE3FC
0FE3F8
0FC1F8
0780F0
000000
000000
000000
000000
007F00
03FFC0
0FFFF0
3FFFF8
3FFFF8
3F83FC
1E00FC
0000FE
0000FE
00007E
00007E
00007E
003FFE
01FFFE
0FFFFE
1FFFFE
3FE07E
7F007E
7E007E
FE007E
FE00FE
FE01FE
FF07FE
7FFFFE
7FFFFE
3FFE3E
1FFC3E
07F03E
ENDCHAR
STARTCHAR 01E0
ENCODING 480
SWIDTH 701 0
DWIDTH 37 0
BBX 37 55 0 0
BITMAP
001FFFE000
001FFFE000
001FFFE000
001FFFE000
0000000000
0000700000
0001FC0000
0001FC0000
0001FE0000
0001FE0000
0001FC0000
0001FC0000
0000700000
0000000000
0000000000
0000000000
0001FC0000
0003FE0000
0003FE0000
0007FE0000
0007FF0000
0007FF0000
000FFF8000
000FDF8000
001FDF8000
001FDFC000
001F8FC000
003F8FC000
003F8FE000
003F07E000
007F07F000
007E07F000
00FE03F000
00FE03F800
00FC03F800
01FC01FC00
01FC01FC00
03F800FC00
03F800FE00
03F800FE00
07FFFFFE00
07FFFFFF00
07FFFFFF00
0FFFFFFF80
0FFFFFFF80
1FC0001F80
1FC0001FC0
1FC0001FC0
3F80000FE0
3F80000FE0
7F80000FE0
7F000007F0
7F000007F0
FF000007F8
FE000003F8
ENDCHAR
STARTCHAR 01E1
ENCODING 481
SWIDTH 511 0
DWIDTH 27 0
BBX 23 46 1 0
BITMAP
07FFF8
07FFF8
07FFF8
07FFF8
000000
000000
001E00
007F00
007F00
00FF80
00FF80
007F80
007F00
001E00
000000
000000
000000
000000
007F00
03FFC0
0FFFF0
3FFFF8
3FFFF8
3F83FC
1E00FC
0000FE
0000FE
00007E
00007E
00007E
003FFE
01FFFE
0FFFFE
1FFFFE
3FE07E
7F007E
7E007E
FE007E
FE00FE
FE01FE
FF07FE
7FFFFE
7FFFFE
3FFE3E
1FFC3E
07F03E
ENDCHAR
STARTCHAR 01E2
ENCODING 482
SWIDTH 928 0
DWIDTH 49 0
BBX 48 46 -1 0
BITMAP
0000003FFFC0
0000003FFFC0
0000003FFFC0
0000003FFFC0
000000000000
000000000000
000000000000
00000FFFFFFF
00001FFFFFFF
00001FFFFFFF
00003FFFFFFF
00003FFFFFFF
00007FFFFFFF
00007FFC0000
0000FFFC0000
0000FCFC0000
0001FCFC0000
0001F8FE0000
0003F8FE0000
0003F0FE0000
0007F0FE0000
0007E0FE0000
000FE0FE0000
000FC07E0000
001FC07FFFF8
001F807FFFF8
003F807FFFF8
003F007FFFF8
007F007FFFF8
007E007F0000
00FE007F0000
00FFFFFF0000
01FFFFFF0000
01FFFFFF8000
03FFFFFF8000
03FFFFFF8000
07F0003F8000
07F0003F8000
0FE0003F8000
0FE0003F8000
1FC0001FFFFF
1FC0001FFFFF
3F80001FFFFF
3F80001FFFFF
7F00001FFFFF
FF00001FFFFF
ENDCHAR
STARTCHAR 01E3
ENCODING 483
SWIDTH 814 0
DWIDTH 43 0
BBX 40 37 1 0
BITMAP
0007FFF800
0007FFF800
0007FFF800
0007FFF800
0000000000
0000000000
0000000000
0000000000
0000000000
00FF003F80
03FFC0FFE0
0FFFE3FFF0
1FFFF7FFF8
3FFFFFFFFC
3F83FFC1FE
1E00FF807E
0000FF007E
0000FF003F
00007E003F
00007E003F
001FFFFFFF
01FFFFFFFF
07FFFFFFFF
1FFFFFFFFF
3FF07E0000
7F807E0000
7E007E0000
7E00FF0000
FE00FF0000
FE00FF8000
FE01FF801E
7F07FFE07E
7FFFEFFFFF
7FFFC7FFFE
3FFF83FFF8
1FFF01FFF0
07F8003F80
ENDCHAR
STARTCHAR 01E4
ENCODING 484
SWIDTH 757 0
DWIDTH 40 0
BBX 38 39 2 0
BITMAP
0001FF8000
001FFFF000
007FFFFC00
00FFFFFF00
03FFFFFF80
07FFFFFFC0
0FFF00FF80
0FF8001F00
1FF0000F00
3FE0000000
3FC0000000
7F80000000
7F80000000
7F00000000
7F00000000
FF00000000
FF00000000
FE0007FFC0
FE0007FFC0
FE0007FFC0
FE0007FFC0
FE0007FFC0
FE00001FC0
FF00001FC0
7F00001FC0
7F0007FFFC
7F0007FFFC
7F8007FFFC
3F8007FFFC
3FC007FFFC
1FE0001FC0
0FF0001FC0
0FFC001FC0
07FF00FFC0
03FFFFFFC0
00FFFFFFC0
007FFFFF00
001FFFFC00
0001FFC000
ENDCHAR
STARTCHAR 01E5
ENCODING 485
SWIDTH 549 0
DWIDTH 29 0
BBX 30 38 0 -10
BITMAP
003FC000
00FFF000
03FFFFF0
07FFFFF0
0FFFFFF0
0FF07FE0
0FC03F00
1FC01F00
1F801F80
1F801F80
1F801F80
0FC03F00
0FC03F00
0FF0FF00
07FFFE00
03FFFC00
00FFF000
03FFC000
07C00000
0FC00000
0FE00000
0FFFF000
0FFFFF00
07FFFFC0
03FFFFE0
07FFFFE0
0F801FE0
FF0007FC
FFFFFFFC
FFFFFFFC
FFFFFFFC
FF0007FC
3F8007C0
1FE01FC0
0FFFFF80
07FFFE00
03FFFC00
007FE000
ENDCHAR
STARTCHAR 01E6
ENCODING 486
SWIDTH 720 0
DWIDTH 38 0
BBX 34 50 2 0
BITMAP
003E00F800
001F83F000
000FC7E000
0007E7E000
0003EFC000
0003FF8000
0001FF0000
0000FE0000
0000000000
0000000000
0000000000
0001FF8000
001FFFF000
007FFFFC00
00FFFFFF00
03FFFFFF80
07FFFFFFC0
0FFF00FF80
0FF8001F00
1FF0000F00
3FE0000000
3FC0000000
7F80000000
7F80000000
7F00000000
7F00000000
FF00000000
FF00000000
FE00000000
FE00000000
FE0007FFC0
FE0007FFC0
FE0007FFC0
FE0007FFC0
FF0007FFC0
7F00001FC0
7F00001FC0
7F00001FC0
7F80001FC0
3F80001FC0
3FC0001FC0
1FE0001FC0
0FF0001FC0
07FC001FC0
03FF00FFC0
01FFFFFFC0
00FFFFFFC0
003FFFFF00
000FFFFC00
0001FFC000
ENDCHAR
STARTCHAR 01E7
ENCODING 487
SWIDTH 530 0
DWIDTH 28 0
BBX 26 49 1 -10
BITMAP
1F80FC00
07C1F800
07E3F000
03F7E000
01FFC000
00FF8000
007F0000
00000000
00000000
00000000
00000000
00FF0000
03FFC000
0FFFFFC0
1FFFFFC0
1FFFFFC0
3FC1FF80
3F00FC00
7F007E00
7E007E00
7E007E00
7E007E00
3F007E00
3F00FC00
1FC1FC00
1FFFF800
0FFFF000
03FFC000
0FFF0000
1F000000
1F000000
3F000000
3F800000
3FFFE000
1FFFFE00
1FFFFF00
0FFFFF80
1FFFFF80
3E003FC0
7C001FC0
FC000FC0
FC001F80
FE001F80
7F007F80
7FFFFF00
3FFFFE00
1FFFFC00
0FFFF000
00FF8000
ENDCHAR
STARTCHAR 01E8
ENCODING 488
SWIDTH 682 0
DWIDTH 36 0
BBX 33 50 4 0
BITMAP
07C01F0000
03F07E0000
01F8FC0000
00FCFC0000
007DF80000
007FF00000
003FE00000
001FC00000
0000000000
0000000000
0000000000
FE0000FF00
FE0001FE00
FE0003FC00
FE0007F800
FE000FF000
FE000FF000
FE001FE000
FE003FC000
FE007F8000
FE007F0000
FE00FF0000
FE01FE0000
FE03FC0000
FE03F80000
FE07F80000
FE0FF00000
FE1FE00000
FFFFC00000
FFFF800000
FFFFC00000
FFFFE00000
FFFFF00000
FE0FF00000
FE07F80000
FE03FC0000
FE03FE0000
FE01FE0000
FE00FF0000
FE007F8000
FE007FC000
FE003FC000
FE001FE000
FE000FF000
FE000FF800
FE0007F800
FE0003FC00
FE0001FE00
FE0001FF00
FE0000FF80
ENDCHAR
STARTCHAR 01E9
ENCODING 489
SWIDTH 530 0
DWIDTH 28 0
BBX 31 50 -3 0
BITMAP
F803E000
7E0FC000
3F1F8000
1F9F8000
0FBF0000
0FFE0000
07FC0000
03F80000
00000000
00000000
03F80000
03F80000
03F80000
03F80000
03F80000
03F80000
03F80000
03F80000
03F80000
03F80000
03F80000
03F80000
03F801FE
03F803FC
03F803F8
03F807F0
03F80FE0
03F81FE0
03F81FC0
03F83F80
03F87F00
03F8FE00
03F9FE00
03FFFC00
03FFF800
03FFF800
03FFFC00
03FFFE00
03F8FE00
03F87F00
03F87F80
03F83F80
03F81FC0
03F81FE0
03F80FF0
03F807F0
03F803F8
03F803FC
03F801FC
03F800FE
ENDCHAR
STARTCHAR 01EA
ENCODING 490
SWIDTH 814 0
DWIDTH 43 0
BBX 39 48 2 -9
BITMAP
0001FF0000
001FFFE000
007FFFF800
00FFFFFE00
03FFFFFF00
07FFFFFF80
0FFF01FFC0
0FF8003FE0
1FF0001FF0
3FE0000FF0
3FC00007F8
7F800003F8
7F800003FC
7F000001FC
7F000001FC
FF000001FC
FF000001FE
FE000001FE
FE000001FE
FE000000FE
FE000001FE
FE000001FE
FE000001FE
FF000001FC
FF000001FC
7F000001FC
7F800003FC
7F800003F8
3FC00007F8
3FE0000FF0
1FF0001FF0
0FF8003FE0
0FFF01FFC0
07FFFFFFC0
03FFFFFF00
01FFFFFE00
007FFFFC00
001FFFF000
0003FF0000
00003C0000
0000780000
0000F00000
0001F00000
0001F00000
0001FF8000
0001FF8000
0000FF8000
00003F0000
ENDCHAR
STARTCHAR 01EB
ENCODING 491
SWIDTH 568 0
DWIDTH 30 0
BBX 27 37 2 -9
BITMAP
007F8000
01FFF000
07FFF800
0FFFFE00
1FFFFF00
3FE0FF00
7F803F80
7F003F80
7E001FC0
FE001FC0
FE000FC0
FE000FC0
FE000FE0
FE000FE0
FE000FE0
FE000FE0
FE000FC0
FE000FC0
FE001FC0
7E001FC0
7F003F80
7F803F80
3FC0FF00
1FFFFF00
1FFFFE00
07FFFC00
03FFF000
00FF8000
001E0000
003C0000
007C0000
007C0000
007C0000
007FC000
007FE000
003FE000
001F8000
ENDCHAR
STARTCHAR 01EC
ENCODING 492
SWIDTH 814 0
DWIDTH 43 0
BBX 39 55 2 -9
BITMAP
000FFFE000
000FFFE000
000FFFE000
000FFFE000
0000000000
0000000000
0000000000
0001FF0000
001FFFE000
007FFFF800
00FFFFFE00
03FFFFFF00
07FFFFFF80
0FFF01FFC0
0FF8003FE0
1FF0001FF0
3FE0000FF0
3FC00007F8
7F800003F8
7F800003FC
7F000001FC
7F000001FC
FF000001FC
FF000001FE
FE000001FE
FE000001FE
FE000000FE
FE000001FE
FE000001FE
FE000001FE
FF000001FC
FF000001FC
7F000001FC
7F800003FC
7F800003F8
3FC00007F8
3FE0000FF0
1FF0001FF0
0FF8003FE0
0FFE01FFC0
07FFFFFFC0
03FFFFFF00
00FFFFFE00
007FFFFC00
001FFFF000
0003FF8000
0000780000
0000F00000
0001E00000
0001E00000
0003F00000
0003FF0000
0001FF0000
0001FF8000
00007E0000
ENDCHAR
STARTCHAR 01ED
ENCODING 493
SWIDTH 568 0
DWIDTH 30 0
BBX 27 46 2 -9
BITMAP
07FFF800
07FFF800
07FFF800
07FFF800
00000000
00000000
00000000
00000000
00000000
007F8000
01FFF000
07FFF800
0FFFFE00
1FFFFF00
3FE0FF00
7F803F80
7F003F80
7F001FC0
FE001FC0
FE000FC0
FE000FE0
FE000FE0
FE000FE0
FE000FE0
FE000FE0
FE000FE0
FE000FC0
FE001FC0
7E001FC0
7F003F80
7F803F80
3FC0FF00
1FFFFF00
0FFFFE00
07FFFC00
03FFF000
007FC000
001E0000
003C0000
00780000
00780000
00FC0000
00FFC000
007FC000
007FE000
001F8000
ENDCHAR
STARTCHAR 01EE
ENCODING 494
SWIDTH 587 0
DWIDTH 31 0
BBX 28 50 1 0
BITMAP
07C01F00
03F07E00
01F8FC00
00FCFC00
007DF800
007FF000
003FE000
001FC000
00000000
00000000
00000000
7FFFFFE0
7FFFFFE0
7FFFFFE0
7FFFFFE0
7FFFFFE0
7FFFFFC0
00007F80
0000FF00
0001FE00
0003FC00
0007F800
000FF000
001FE000
003FC000
007F8000
00FFF800
01FFFE00
01FFFF80
01FFFFC0
01FFFFE0
00007FE0
00001FF0
00000FF0
000007F0
000007F0
000007F0
000007F0
000007F0
00000FF0
18000FF0
3C001FE0
7E003FE0
FFC0FFC0
FFFFFFC0
7FFFFF80
1FFFFF00
0FFFFC00
03FFF000
007F8000
ENDCHAR
STARTCHAR 01EF
ENCODING 495
SWIDTH 454 0
DWIDTH 24 0
BBX 23 49 -1 -10
BITMAP
1F80FC
07C1F8
07E3F0
03F7E0
01FFC0
00FF80
007F00
000000
000000
000000
000000
3FFFFC
3FFFFC
3FFFFC
3FFFFC
3FFFF8
0003F8
0007F0
000FE0
001FC0
003F80
003F80
007F00
00FE00
01FC00
01F800
03FF00
07FFC0
07FFF0
07FFF8
000FF8
0003FC
0001FC
0000FE
0000FE
00007E
00007E
00007E
00007E
0000FE
0000FE
0001FC
3803FC
7E07F8
7FFFF0
FFFFF0
7FFFC0
1FFF80
07FC00
ENDCHAR
STARTCHAR 01F0
ENCODING 496
SWIDTH 246 0
DWIDTH 13 0
BBX 19 49 -3 -10
BITMAP
FC07E0
3E0FC0
3F1F80
1FBF00
0FFE00
07FC00
03F800
000000
000000
000000
000000
03F800
03F800
03F800
03F800
03F800
03F800
03F800
03F800
03F800
03F800
03F800
03F800
03F800
03F800
03F800
03F800
03F800
03F800
03F800
03F800
03F800
03F800
03F800
03F800
03F800
03F800
03F800
03F800
03F800
03F800
03F800
03F800
07F800
7FF000
7FF000
7FE000
7FC000
7F0000
ENDCHAR
STARTCHAR 01F1
ENCODING 497
SWIDTH 1383 0
DWIDTH 73 0
BBX 68 39 4 0
BITMAP
FFFFF00001FFFFFFF0
FFFFFE0001FFFFFFF0
FFFFFF8001FFFFFFF0
FFFFFFE001FFFFFFF0
FFFFFFF001FFFFFFE0
FFFFFFF801FFFFFFE0
FE001FFC0000003FC0
FE0007FE0000007F80
FE0001FE0000007F00
FE0000FF000000FF00
FE0000FF000001FE00
FE00007F800001FC00
FE00003F800003FC00
FE00003FC00007F800
FE00003FC0000FF000
FE00001FC0000FF000
FE00001FC0001FE000
FE00001FC0003FC000
FE00001FC0003F8000
FE00001FC0007F8000
FE00001FC000FF0000
FE00001FC000FE0000
FE00001FC001FE0000
FE00001FC003FC0000
FE00003FC007F80000
FE00003FC007F80000
FE00003F800FF00000
FE00007F801FE00000
FE0000FF001FC00000
FE0000FF003FC00000
FE0001FE007F800000
FE0007FE007F000000
FE001FFC00FF000000
FFFFFFF801FFFFFFE0
FFFFFFF001FFFFFFE0
FFFFFFE003FFFFFFE0
FFFFFF8003FFFFFFE0
FFFFFE0003FFFFFFE0
FFFFF00003FFFFFFE0
ENDCHAR
STARTCHAR 01F2
ENCODING 498
SWIDTH 1231 0
DWIDTH 65 0
BBX 59 39 4 0
BITMAP
FFFFF00000000000
FFFFFE0000000000
FFFFFF8000000000
FFFFFFE000000000
FFFFFFF000000000
FFFFFFF800000000
FE001FFC00000000
FE0007FE00000000
FE0001FE00000000
FE0000FF00000000
FE0000FF00000000
FE00007F83FFFFE0
FE00003F83FFFFE0
FE00003FC3FFFFE0
FE00003FC3FFFFE0
FE00001FC3FFFFC0
FE00001FC0001FC0
FE00001FC0003F80
FE00001FC0007F00
FE00001FC0007F00
FE00001FC000FE00
FE00001FC001FC00
FE00001FC001F800
FE00001FC003F800
FE00003FC007F000
FE00003FC00FE000
FE00003F800FC000
FE00007F801FC000
FE0000FF003F8000
FE0000FF007F0000
FE0001FE007F0000
FE0007FE00FE0000
FE001FFC01FC0000
FFFFFFF801F80000
FFFFFFF003FFFFC0
FFFFFFE007FFFFC0
FFFFFF8007FFFFC0
FFFFFE0007FFFFC0
FFFFF00007FFFFC0
ENDCHAR
STARTCHAR 01F3
ENCODING 499
SWIDTH 1042 0
DWIDTH 55 0
BBX 52 40 2 0
BITMAP
00003F80000000
00003F80000000
00003F80000000
00003F80000000
00003F80000000
00003F80000000
00003F80000000
00003F80000000
00003F80000000
00003F80000000
00003F80000000
00003F80000000
00FE3F81FFFFF0
03FFBF81FFFFF0
07FFFF81FFFFF0
1FFFFF81FFFFF0
1FFFFF81FFFFE0
3FE0FF80000FE0
7F807F80001FC0
7F003F80003F80
7F003F80003F80
FE003F80007F00
FE003F8000FE00
FE003F8000FC00
FE003F8001FC00
FE003F8003F800
FE003F8007F000
FE003F8007E000
FE003F800FE000
FE003F801FC000
FE003F803F8000
FE003F803F8000
7F003F807F0000
7F007F80FE0000
7FC1FF80FC0000
3FFFFF81FFFFE0
1FFFDF83FFFFE0
0FFF9F83FFFFE0
07FF1F83FFFFE0
01F80F83FFFFE0
ENDCHAR
STARTCHAR 01F4
ENCODING 500
SWIDTH 720 0
DWIDTH 38 0
BBX 34 51 2 0
BITMAP
000001FE00
000007FC00
00000FF800
00000FF000
00001FE000
00003FC000
00007F8000
00007E0000
0000FC0000
0000000000
0000000000
0000000000
0001FF8000
001FFFF000
007FFFFC00
00FFFFFF00
03FFFFFF80
07FFFFFFC0
0FFF00FF80
0FF8001F00
1FF0000F00
3FE0000000
3FC0000000
7F80000000
7F80000000
7F00000000
7F00000000
FF00000000
FF00000000
FE00000000
FE00000000
FE0007FFC0
FE0007FFC0
FE0007FFC0
FE0007FFC0
FF0007FFC0
7F00001FC0
7F00001FC0
7F00001FC0
7F80001FC0
3F80001FC0
3FC0001FC0
1FE0001FC0
0FF0001FC0
07FC001FC0
03FF00FFC0
01FFFFFFC0
00FFFFFFC0
003FFFFF00
000FFFFC00
0001FFC000
ENDCHAR
STARTCHAR 01F5
ENCODING 501
SWIDTH 530 0
DWIDTH 28 0
BBX 26 49 1 -10
BITMAP
0003FC00
0007F000
000FE000
000FE000
001FC000
001F8000
003F0000
007E0000
00000000
00000000
00000000
00FF0000
03FFC000
0FFFFFC0
1FFFFFC0
1FFFFFC0
3FC1FF80
3F00FC00
7F007E00
7E007E00
7E007E00
7E007E00
3F007E00
3F00FC00
1FC1FC00
1FFFF800
0FFFF000
03FFC000
0FFF0000
1F000000
1F000000
3F000000
3F800000
3FFFE000
1FFFFE00
1FFFFF00
0FFFFF80
1FFFFF80
3E003FC0
7C001FC0
FC000FC0
FC001F80
FE001F80
7F007F80
7FFFFF00
3FFFFE00
1FFFFC00
0FFFF000
00FF8000
ENDCHAR
STARTCHAR 01F6
ENCODING 502
SWIDTH 1061 0
DWIDTH 56 0
BBX 51 39 4 0
BITMAP
FE00007F800000
FE00007F800000
FE00007F800000
FE00007F800000
FE00007F800000
FE00007F800000
FE00007F800000
FE00007F800000
FE00007F800000
FE00007F800000
FE00007F800000
FE00007F83FC00
FE00007F83FF00
FE00007F83FF80
FE00007F83FF80
FE00007F83FFC0
FE00007F801FC0
FFFFFFFF801FC0
FFFFFFFF800FE0
FFFFFFFF800FE0
FFFFFFFF800FE0
FFFFFFFF800FE0
FE00007F800FE0
FE00007F800FE0
FE00007F800FE0
FE00007F800FC0
FE00007F800FC0
FE00007F801FC0
FE00007F801FC0
FE00003F801F80
FE00003F803F80
FE00003F807F00
FE00003FC07F00
FE00001FE1FE00
FE00001FFFFC00
FE00000FFFF800
FE000007FFF000
FE000003FFE000
FE0000007F0000
ENDCHAR
STARTCHAR 01F7
ENCODING 503
SWIDTH 720 0
DWIDTH 38 0
BBX 32 48 4 -9
BITMAP
FC01FE00
FE0FFF80
FE3FFFE0
FE7FFFF0
FEFFFFF8
FFFFFFFC
FFFE07FC
FFF003FE
FFE001FE
FFC000FF
FF8000FF
FF00007F
FE00007F
FE00007F
FE00007F
FE00007F
FE00007F
FE0000FF
FE0000FE
FE0000FE
FE0001FE
FE0001FC
FE0003FC
FE0003F8
FE0007F8
FE000FF0
FE001FE0
FE003FC0
FE00FFC0
FE01FF80
FE07FE00
FE1FFC00
FE3FF800
FFFFF000
FFFFC000
FFFF8000
FFFE0000
FFF80000
FFE00000
FF800000
FE000000
FE000000
FE000000
FE000000
FE000000
FE000000
FE000000
FE000000
ENDCHAR
STARTCHAR 01F8
ENCODING 504
SWIDTH 776 0
DWIDTH 41 0
BBX 33 50 4 0
BITMAP
003FC00000
000FE00000
000FE00000
0007F00000
0003F80000
0001F80000
0000FC0000
00007E0000
0000000000
0000000000
0000000000
FC00003F80
FE00003F80
FE00003F80
FF00003F80
FF80003F80
FFC0003F80
FFE0003F80
FFE0003F80
FFF0003F80
FFF8003F80
FFFC003F80
FFFE003F80
FDFE003F80
FCFF003F80
FEFF803F80
FE7FC03F80
FE3FC03F80
FE1FE03F80
FE0FF03F80
FE0FF83F80
FE07FC3F80
FE03FC3F80
FE01FE3F80
FE01FF3F80
FE00FFBF80
FE007FBF80
FE003FFF80
FE003FFF80
FE001FFF80
FE000FFF80
FE0007FF80
FE0003FF80
FE0003FF80
FE0001FF80
FE0000FF80
FE00007F80
FE00007F80
FE00003F80
FE00001F80
ENDCHAR
STARTCHAR 01F9
ENCODING 505
SWIDTH 568 0
DWIDTH 30 0
BBX 24 39 3 0
BITMAP
0FF000
03F800
03F800
01FC00
00FE00
007E00
003F00
001F80
000000
000000
000000
F83FC0
FCFFF0
FDFFF8
FFFFFC
FFFFFE
FFC1FE
FF80FE
FE007F
FE007F
FE007F
FE007F
FE007F
FE007F
FE007F
FE007F
FE007F
FE007F
FE007F
FE007F
FE007F
FE007F
FE007F
FE007F
FE007F
FE007F
FE007F
FE007F
FE007F
ENDCHAR
STARTCHAR 01FA
ENCODING 506
SWIDTH 701 0
DWIDTH 37 0
BBX 37 57 0 0
BITMAP
000007FE00
00000FF000
00001FE000
00003FC000
00007F0000
0000FE0000
0001F00000
0000F80000
0001FC0000
0003FE0000
00038E0000
0007070000
0007070000
0003070000
00038E0000
0001FC0000
0000F80000
0000000000
0001FC0000
0003FE0000
0003FE0000
0007FE0000
0007FF0000
0007FF0000
000FFF8000
000FDF8000
001FDF8000
001FDFC000
001F8FC000
003F8FC000
003F8FE000
003F07E000
007F07F000
007E07F000
00FE03F000
00FE03F800
00FC03F800
01FC01FC00
01FC01FC00
03F800FC00
03F800FE00
03F800FE00
07FFFFFE00
07FFFFFF00
07FFFFFF00
0FFFFFFF80
0FFFFFFF80
1FC0001F80
1FC0001FC0
1FC0001FC0
3F80000FE0
3F80000FE0
7F80000FE0
7F000007F0
7F000007F0
FF000007F8
FE000003F8
ENDCHAR
STARTCHAR 01FB
ENCODING 507
SWIDTH 511 0
DWIDTH 27 0
BBX 23 51 1 0
BITMAP
00007E
0003FC
0003F8
0007F0
0007E0
000FC0
001F80
001F00
003C00
000000
003E00
00FF80
00FFC0
01E3C0
01C1C0
01C1E0
01C1C0
01E3C0
00FFC0
00FF80
003E00
000000
000000
007F00
03FFC0
0FFFF0
3FFFF8
3FFFF8
3F83FC
1E00FC
0000FE
0000FE
00007E
00007E
00007E
003FFE
01FFFE
0FFFFE
1FFFFE
3FE07E
7F007E
7E007E
FE007E
FE00FE
FE01FE
FF07FE
7FFFFE
7FFFFE
3FFE3E
1FFC3E
07F03E
ENDCHAR
STARTCHAR 01FC
ENCODING 508
SWIDTH 928 0
DWIDTH 49 0
BBX 48 51 -1 0
BITMAP
0000000007F8
000000001FF0
000000003FE0
000000003FC0
000000007F80
00000000FF00
00000001FE00
00000001F800
00000003F000
000000000000
000000000000
000000000000
00000FFFFFFF
00001FFFFFFF
00001FFFFFFF
00003FFFFFFF
00003FFFFFFF
00007FFFFFFF
00007FFC0000
0000FFFC0000
0000FCFC0000
0001FCFC0000
0001F8FE0000
0003F8FE0000
0003F0FE0000
0007F0FE0000
0007E0FE0000
000FE0FE0000
000FC07E0000
001FC07FFFF8
001F807FFFF8
003F807FFFF8
003F007FFFF8
007F007FFFF8
007E007F0000
00FE007F0000
00FFFFFF0000
01FFFFFF0000
01FFFFFF8000
03FFFFFF8000
03FFFFFF8000
07F0003F8000
07F0003F8000
0FE0003F8000
0FE0003F8000
1FC0001FFFFF
1FC0001FFFFF
3F80001FFFFF
3F80001FFFFF
7F00001FFFFF
FF00001FFFFF
ENDCHAR
STARTCHAR 01FD
ENCODING 509
SWIDTH 814 0
DWIDTH 43 0
BBX 40 39 1 0
BITMAP
000003FC00
000007F000
00000FE000
00000FE000
00001FC000
00001F8000
00003F0000
00007E0000
0000000000
0000000000
0000000000
00FF003F80
03FFC0FFE0
0FFFE3FFF0
1FFFF7FFF8
3FFFFFFFFC
3F83FFC1FE
1E00FF807E
0000FF007E
0000FF003F
00007E003F
00007E003F
001FFFFFFF
01FFFFFFFF
07FFFFFFFF
1FFFFFFFFF
3FF07E0000
7F807E0000
7E007E0000
7E00FF0000
FE00FF0000
FE00FF8000
FE01FF801E
7F07FFE07E
7FFFEFFFFF
7FFFC7FFFE
3FFF83FFF8
1FFF01FFF0
07F8003F80
ENDCHAR
STARTCHAR 01FE
ENCODING 510
SWIDTH 814 0
DWIDTH 43 0
BBX 39 53 2 -2
BITMAP
000001FE00
000007FC00
00000FF800
00000FF000
00001FE000
00003FC000
00007F8000
00007E0000
0000FC0000
0000000000
00000000FC
00000000F8
0001FF01F0
001FFFE3E0
007FFFFBE0
00FFFFFFC0
03FFFFFF80
07FFFFFFC0
0FFF01FFE0
0FF8003FE0
1FF0007FF0
3FE0007FF8
3FC000FFF8
7F8001F3F8
7F8003F3FC
7F0003E1FC
7F0007C1FC
FF000FC1FE
FF001F81FE
FE001F01FE
FE003E01FE
FE007E00FE
FE007C01FE
FE00F801FE
FE01F001FE
FF03F001FC
FF03E001FC
7F07C001FC
7F8FC003FC
7F9F8003F8
3FDF0007F8
3FFE000FF0
1FFE001FF0
0FFC003FE0
0FFF01FFC0
07FFFFFF80
03FFFFFF00
03FFFFFE00
07FFFFF800
0FDFFFE000
1F81FF0000
1F00000000
7E00000000
ENDCHAR
STARTCHAR 01FF
ENCODING 511
SWIDTH 568 0
DWIDTH 30 0
BBX 29 40 1 -1
BITMAP
0000FF00
0001FC00
0003F800
0003F800
0007F000
0007E000
000FC000
001F8000
00000078
000001F0
000003E0
003FC3E0
00FFFFC0
03FFFF80
07FFFF00
0FFFFF80
1FF07F80
3FC07FC0
3F807FE0
3F00FFE0
7F01F7E0
7E03F7E0
7E03E7F0
7E07C7F0
7E0F87F0
7E1F07F0
7E1F07F0
7E3E07E0
7E7C07E0
7FF807E0
3FF80FE0
3FF00FC0
1FE01FC0
1FE07F80
0FFFFF80
0FFFFF00
1FFFFE00
1FFFF800
3E3FC000
FC000000
ENDCHAR
STARTCHAR 0200
ENCODING 512
SWIDTH 701 0
DWIDTH 37 0
BBX 37 49 0 0
BITMAP
0FE1F80000
03F0FC0000
01F87E0000
00FC3E0000
003E1F0000
001F0F8000
000F87C000
0000000000
0000000000
0000000000
0001FC0000
0003FE0000
0003FE0000
0007FE0000
0007FF0000
0007FF0000
000FFF8000
000FDF8000
001FDF8000
001FDFC000
001F8FC000
003F8FC000
003F8FE000
003F07E000
007F07F000
007E07F000
00FE03F000
00FE03F800
00FC03F800
01FC01FC00
01FC01FC00
03F800FC00
03F800FE00
03F800FE00
07FFFFFE00
07FFFFFF00
07FFFFFF00
0FFFFFFF80
0FFFFFFF80
1FC0001F80
1FC0001FC0
1FC0001FC0
3F80000FE0
3F80000FE0
7F80000FE0
7F000007F0
7F000007F0
FF000007F8
FE000003F8
ENDCHAR
STARTCHAR 0201
ENCODING 513
SWIDTH 511 0
DWIDTH 27 0
BBX 23 39 1 0
BITMAP
FC7E00
7E3F00
3F1F00
1F8F80
0F8780
07C7C0
03E3C0
01F1E0
000000
000000
000000
007F00
03FFC0
0FFFF0
3FFFF8
3FFFF8
3F83FC
1E00FC
0000FE
0000FE
00007E
00007E
00007E
003FFE
01FFFE
0FFFFE
1FFFFE
3FE07E
7F007E
7E007E
FE007E
FE00FE
FE01FE
FF07FE
7FFFFE
7FFFFE
3FFE3E
1FFC3E
07F03E
ENDCHAR
STARTCHAR 0202
ENCODING 514
SWIDTH 701 0
DWIDTH 37 0
BBX 37 49 0 0
BITMAP
0001FC0000
0007FF0000
000FFF8000
001FFFC000
003F07E000
003E03E000
003E03E000
0000000000
0000000000
0000000000
0001FC0000
0003FE0000
0003FE0000
0007FE0000
0007FF0000
0007FF0000
000FFF8000
000FDF8000
001FDF8000
001FDFC000
001F8FC000
003F8FC000
003F8FE000
003F07E000
007F07F000
007E07F000
00FE03F000
00FE03F800
00FC03F800
01FC01FC00
01FC01FC00
03F800FC00
03F800FE00
03F800FE00
07FFFFFE00
07FFFFFF00
07FFFFFF00
0FFFFFFF80
0FFFFFFF80
1FC0001F80
1FC0001FC0
1FC0001FC0
3F80000FE0
3F80000FE0
7F80000FE0
7F000007F0
7F000007F0
FF000007F8
FE000003F8
ENDCHAR
STARTCHAR 0203
ENCODING 515
SWIDTH 511 0
DWIDTH 27 0
BBX 23 39 1 0
BITMAP
007F00
01FFC0
03FFE0
07FFF0
07C1F0
07C0F0
0780F8
000000
000000
000000
000000
007F00
03FFC0
0FFFF0
3FFFF8
3FFFF8
3F83FC
1E00FC
0000FE
0000FE
00007E
00007E
00007E
003FFE
01FFFE
0FFFFE
1FFFFE
3FE07E
7F007E
7E007E
FE007E
FE00FE
FE01FE
FF07FE
7FFFFE
7FFFFE
3FFE3E
1FFC3E
07F03E
ENDCHAR
STARTCHAR 0204
ENCODING 516
SWIDTH 568 0
DWIDTH 30 0
BBX 26 49 2 0
BITMAP
FE1F8000
3F0FC000
1F87E000
0FC3E000
03E1F000
01F0F800
00F87C00
00000000
00000000
00000000
3FFFFFC0
3FFFFFC0
3FFFFFC0
3FFFFFC0
3FFFFFC0
3FFFFFC0
3F800000
3F800000
3F800000
3F800000
3F800000
3F800000
3F800000
3F800000
3F800000
3F800000
3F800000
3FFFFE00
3FFFFE00
3FFFFE00
3FFFFE00
3FFFFE00
3F800000
3F800000
3F800000
3F800000
3F800000
3F800000
3F800000
3F800000
3F800000
3F800000
3F800000
3FFFFFC0
3FFFFFC0
3FFFFFC0
3FFFFFC0
3FFFFFC0
3FFFFFC0
ENDCHAR
ENDFONT
